SplineFontDB: 3.0
FontName: RupeeTechFat
FullName: RupeeTechFat
FamilyName: RupeeTechFat
Weight: Regular
Copyright: © 2010 TechFat (http://techfat.blogspot.com). All Rights Reserved.
Version: 5.06 July 20, 2010
DefaultBaseFilename: tfrupee
ItalicAngle: 0
UnderlinePosition: -69.3359
UnderlineWidth: 73.2422
Ascent: 800
Descent: 200
LayerCount: 2
Layer: 0 1 "Back"  1
Layer: 1 1 "Fore"  0
XUID: [1021 803 1702925826 7770541]
FSType: 8
OS2Version: 3
OS2_WeightWidthSlopeOnly: 0
OS2_UseTypoMetrics: 1
CreationTime: 649950890
ModificationTime: 1280920261
PfmFamily: 17
TTFWeight: 400
TTFWidth: 5
LineGap: 33
VLineGap: 0
Panose: 2 11 6 4 2 2 2 2 2 4
OS2TypoAscent: -72
OS2TypoAOffset: 1
OS2TypoDescent: -10
OS2TypoDOffset: 1
OS2TypoLinegap: 150
OS2WinAscent: -101
OS2WinAOffset: 1
OS2WinDescent: -113
OS2WinDOffset: 1
HheadAscent: -101
HheadAOffset: 1
HheadDescent: 113
HheadDOffset: 1
OS2SubXSize: 700
OS2SubYSize: 650
OS2SubXOff: 0
OS2SubYOff: 138
OS2SupXSize: 700
OS2SupYSize: 650
OS2SupXOff: 0
OS2SupYOff: 477
OS2StrikeYSize: 50
OS2StrikeYPos: 259
OS2FamilyClass: 2053
OS2Vendor: 'TMC '
OS2CodePages: 400001ff.ffff0000
OS2UnicodeRanges: e0002aff.c0007843.00000009.00000000
Lookup: 6 256 0 "'ccmp' Glyph Composition/Decomposition lookup 0"  {"'ccmp' Glyph Composition/Decomposition lookup 0 subtable"  } ['ccmp' ('grek' <'dflt' > 'latn' <'LTH ' 'dflt' > ) ]
Lookup: 4 0 0 "'ccmp' Glyph Composition/Decomposition lookup 1"  {"'ccmp' Glyph Composition/Decomposition lookup 1 subtable"  } ['ccmp' ('grek' <'dflt' > 'latn' <'LTH ' 'dflt' > ) ]
Lookup: 4 0 0 "'ccmp' Glyph Composition/Decomposition lookup 2"  {"'ccmp' Glyph Composition/Decomposition lookup 2 subtable"  } ['ccmp' ('grek' <'dflt' > 'latn' <'LTH ' 'dflt' > ) ]
Lookup: 1 0 0 "'locl' Localized Forms in Latin lookup 3"  {"'locl' Localized Forms in Latin lookup 3 subtable"  } ['locl' ('latn' <'LTH ' > ) ]

StartChar: .notdef
Encoding: 256 -1 0
Width: 750
GlyphClass: 2
Flags: W
HStem: 0 16<141 609> 609 16<141 609>
VStem: 125 16<16 609> 609 16<16 609>
LayerCount: 2
Fore
SplineSet
125 0 m 1,0,-1
 125 625 l 1,1,-1
 625 625 l 1,2,-1
 625 0 l 1,3,-1
 125 0 l 1,0,-1
141 16 m 1,4,-1
 609 16 l 1,5,-1
 609 609 l 1,6,-1
 141 609 l 1,7,-1
 141 16 l 1,4,-1
EndSplineSet
EndChar

StartChar: exclam
Encoding: 33 33 4
Width: 277
GlyphClass: 2
Flags: W
HStem: 0 100<90 191> 696 20G<86 195>
VStem: 86 109<0 100 458.741 716>
LayerCount: 2
Fore
SplineSet
113 178 m 1,0,-1
 86 557 l 1,1,-1
 86 716 l 1,2,-1
 195 716 l 1,3,-1
 195 557 l 1,4,-1
 169 178 l 1,5,-1
 113 178 l 1,0,-1
90 0 m 1,6,-1
 90 100 l 1,7,-1
 191 100 l 1,8,-1
 191 0 l 1,9,-1
 90 0 l 1,6,-1
EndSplineSet
EndChar

StartChar: quotedbl
Encoding: 34 34 5
Width: 354
GlyphClass: 2
Flags: W
HStem: 462 254<70 124 232 285>
VStem: 46 100<559.042 716> 70 54<462 501.958> 208 100<559.042 716> 232 53<462 501.958>
LayerCount: 2
Fore
SplineSet
70 462 m 1,0,-1
 46 599 l 1,1,-1
 46 716 l 1,2,-1
 146 716 l 1,3,-1
 146 599 l 1,4,-1
 124 462 l 1,5,-1
 70 462 l 1,0,-1
232 462 m 1,6,-1
 208 599 l 1,7,-1
 208 716 l 1,8,-1
 308 716 l 1,9,-1
 308 599 l 1,10,-1
 285 462 l 1,11,-1
 232 462 l 1,6,-1
EndSplineSet
EndChar

StartChar: numbersign
Encoding: 35 35 6
Width: 556
GlyphClass: 2
Flags: W
HStem: -12 21G<50 128.038 277 355.038> 196 73<10 93 181 319 408 543> 446 73<10 144 231 371 459 543> 708 20G<196.885 274 423.885 501>
LayerCount: 2
Fore
SplineSet
50 -12 m 1,0,-1
 93 196 l 1,1,-1
 10 196 l 1,2,-1
 10 269 l 1,3,-1
 107 269 l 1,4,-1
 144 446 l 1,5,-1
 10 446 l 1,6,-1
 10 519 l 1,7,-1
 158 519 l 1,8,-1
 201 728 l 1,9,-1
 274 728 l 1,10,-1
 231 519 l 1,11,-1
 385 519 l 1,12,-1
 428 728 l 1,13,-1
 501 728 l 1,14,-1
 459 519 l 1,15,-1
 543 519 l 1,16,-1
 543 446 l 1,17,-1
 444 446 l 1,18,-1
 408 269 l 1,19,-1
 543 269 l 1,20,-1
 543 196 l 1,21,-1
 393 196 l 1,22,-1
 351 -12 l 1,23,-1
 277 -12 l 1,24,-1
 319 196 l 1,25,-1
 166 196 l 1,26,-1
 124 -12 l 1,27,-1
 50 -12 l 1,0,-1
181 269 m 1,28,-1
 334 269 l 1,29,-1
 371 446 l 1,30,-1
 217 446 l 1,31,-1
 181 269 l 1,28,-1
EndSplineSet
EndChar

StartChar: dollar
Encoding: 36 36 7
Width: 556
GlyphClass: 2
Flags: W
HStem: -15 74<191.195 249 301 360.232> 667 73<191.433 249>
VStem: 36 88<135.5 200.273> 51 88<475.38 615.605> 249 52<-103 -14 59 327 423 666 737.418 782> 401 91<562 614.249> 419 90<120.119 272.454>
LayerCount: 2
Fore
SplineSet
249 -103 m 1,0,-1
 249 -15 l 1,1,2
 183 -7 183 -7 142 14.5 c 128,-1,3
 101 36 101 36 71 83 c 128,-1,4
 41 130 41 130 36 199 c 1,5,-1
 124 215 l 1,6,7
 134 144 134 144 160 111 c 0,8,9
 197 64 197 64 249 59 c 1,10,-1
 249 339 l 1,11,12
 195 349 195 349 138 381 c 0,13,14
 96 404 96 404 73.5 445.5 c 128,-1,15
 51 487 51 487 51 540 c 0,16,17
 51 634 51 634 117 692 c 0,18,19
 161 731 161 731 249 740 c 1,20,-1
 249 782 l 1,21,-1
 301 782 l 1,22,-1
 301 740 l 1,23,24
 378 733 378 733 422 695 c 0,25,26
 480 647 480 647 492 563 c 1,27,-1
 401 550 l 1,28,29
 393 602 393 602 368.5 629.5 c 128,-1,30
 344 657 344 657 301 666 c 1,31,-1
 301 412 l 1,32,33
 367 395 367 395 389 386 c 0,34,35
 430 368 430 368 455.5 342 c 128,-1,36
 481 316 481 316 495 280.5 c 128,-1,37
 509 245 509 245 509 204 c 0,38,39
 509 113 509 113 451 51.5 c 128,-1,40
 393 -10 393 -10 301 -14 c 1,41,-1
 301 -103 l 1,42,-1
 249 -103 l 1,0,-1
249 667 m 1,43,44
 198 659 198 659 168.5 625.5 c 128,-1,45
 139 592 139 592 139 547 c 128,-1,46
 139 502 139 502 164 471.5 c 128,-1,47
 189 441 189 441 249 423 c 1,48,-1
 249 667 l 1,43,44
301 59 m 1,49,50
 352 65 352 65 385.5 103.5 c 128,-1,51
 419 142 419 142 419 198 c 0,52,53
 419 246 419 246 395.5 275 c 128,-1,54
 372 304 372 304 301 327 c 1,55,-1
 301 59 l 1,49,50
EndSplineSet
EndChar

StartChar: percent
Encoding: 37 37 8
Width: 889
GlyphClass: 2
Flags: W
HStem: -26 60<626 723.94> 292 60<625.187 723.026> 350 60<163 259.702> 667 61<161.972 260.427>
VStem: 58 77<438.482 638.881> 288 76<439.074 638.333> 521 77<63.0644 263.131> 751 77<63.0744 262.583>
LayerCount: 2
Fore
SplineSet
58 544 m 0,0,1
 58 621 58 621 96.5 674.5 c 128,-1,2
 135 728 135 728 208 728 c 0,3,4
 275 728 275 728 319.5 680 c 128,-1,5
 364 632 364 632 364 539 c 0,6,7
 364 448 364 448 319.5 399 c 128,-1,8
 275 350 275 350 209 350 c 0,9,10
 144 350 144 350 101 398 c 128,-1,11
 58 446 58 446 58 544 c 0,0,1
211 667 m 256,12,13
 178 667 178 667 156.5 639 c 128,-1,14
 135 611 135 611 135 535 c 0,15,16
 135 466 135 466 157 438 c 128,-1,17
 179 410 179 410 211 410 c 0,18,19
 244 410 244 410 266 438.5 c 128,-1,20
 288 467 288 467 288 542 c 0,21,22
 288 611 288 611 266 639 c 128,-1,23
 244 667 244 667 211 667 c 256,12,13
211 -26 m 1,24,-1
 603 728 l 1,25,-1
 674 728 l 1,26,-1
 284 -26 l 1,27,-1
 211 -26 l 1,24,-1
521 168 m 0,28,29
 521 245 521 245 559.5 298.5 c 128,-1,30
 598 352 598 352 672 352 c 0,31,32
 739 352 739 352 783.5 304 c 128,-1,33
 828 256 828 256 828 163 c 0,34,35
 828 72 828 72 783 23 c 128,-1,36
 738 -26 738 -26 672 -26 c 0,37,38
 607 -26 607 -26 564 22.5 c 128,-1,39
 521 71 521 71 521 168 c 0,28,29
674 292 m 128,-1,41
 641 292 641 292 619.5 263.5 c 128,-1,42
 598 235 598 235 598 159 c 0,43,44
 598 91 598 91 620 62.5 c 128,-1,45
 642 34 642 34 674 34 c 0,46,47
 708 34 708 34 729.5 62.5 c 128,-1,48
 751 91 751 91 751 166 c 0,49,50
 751 235 751 235 729 263.5 c 128,-1,40
 707 292 707 292 674 292 c 128,-1,41
EndSplineSet
EndChar

StartChar: ampersand
Encoding: 38 38 9
Width: 666
GlyphClass: 2
Flags: W
HStem: -12 77<199.005 347.669> 656 72<248.339 362.287>
VStem: 43 95<132.109 269.842> 133 90<518.798 631.153> 387 90<510.951 631.678> 504 92<264.184 318.522>
LayerCount: 2
Fore
SplineSet
475 84 m 1,0,1
 432 36 432 36 380.5 12 c 128,-1,2
 329 -12 329 -12 270 -12 c 0,3,4
 160 -12 160 -12 95 62 c 0,5,6
 43 123 43 123 43 197 c 0,7,8
 43 263 43 263 85.5 317 c 128,-1,9
 128 371 128 371 213 411 c 1,10,11
 165 467 165 467 149 501.5 c 128,-1,12
 133 536 133 536 133 568 c 0,13,14
 133 632 133 632 183.5 680 c 128,-1,15
 234 728 234 728 311 728 c 0,16,17
 384 728 384 728 430.5 683 c 128,-1,18
 477 638 477 638 477 575 c 0,19,20
 477 473 477 473 342 401 c 1,21,-1
 470 237 l 1,22,23
 492 280 492 280 504 337 c 1,24,-1
 596 317 l 1,25,26
 573 223 573 223 532 163 c 1,27,28
 581 98 581 98 644 53 c 1,29,-1
 585 -17 l 1,30,31
 532 17 532 17 475 84 c 1,0,1
296 458 m 1,32,33
 353 492 353 492 370 517 c 128,-1,34
 387 542 387 542 387 573 c 0,35,36
 387 610 387 610 364 633 c 128,-1,37
 341 656 341 656 306 656 c 0,38,39
 270 656 270 656 246.5 633 c 128,-1,40
 223 610 223 610 223 577 c 0,41,42
 223 560 223 560 231.5 541.5 c 128,-1,43
 240 523 240 523 257 503 c 2,44,-1
 296 458 l 1,32,33
420 154 m 1,45,-1
 259 354 l 1,46,47
 188 312 188 312 163 275 c 128,-1,48
 138 238 138 238 138 203 c 0,49,50
 138 160 138 160 172.5 112.5 c 128,-1,51
 207 65 207 65 271 65 c 0,52,53
 311 65 311 65 353 90 c 128,-1,54
 395 115 395 115 420 154 c 1,45,-1
EndSplineSet
EndChar

StartChar: quotesingle
Encoding: 260 39 10
Width: 190
GlyphClass: 2
Flags: W
HStem: 462 254<66 121>
VStem: 44 100<555.217 716> 66 55<462 502.783>
LayerCount: 2
Fore
SplineSet
66 462 m 1,0,-1
 44 596 l 1,1,-1
 44 716 l 1,2,-1
 144 716 l 1,3,-1
 144 596 l 1,4,-1
 121 462 l 1,5,-1
 66 462 l 1,0,-1
EndSplineSet
EndChar

StartChar: parenleft
Encoding: 40 40 11
Width: 333
GlyphClass: 2
Flags: W
HStem: 708 20G<188 297>
VStem: 61 90<90.0321 430.985>
LayerCount: 2
Fore
SplineSet
234 -210 m 1,0,1
 161 -118 161 -118 111 4.5 c 128,-1,2
 61 127 61 127 61 259 c 0,3,4
 61 375 61 375 98 482 c 0,5,6
 142 606 142 606 234 728 c 1,7,-1
 297 728 l 1,8,9
 238 626 238 626 219 583 c 0,10,11
 189 516 189 516 172 442 c 0,12,13
 151 351 151 351 151 259 c 0,14,15
 151 24 151 24 297 -210 c 1,16,-1
 234 -210 l 1,0,1
EndSplineSet
EndChar

StartChar: parenright
Encoding: 41 41 12
Width: 333
GlyphClass: 2
Flags: W
HStem: 708 20G<61 170>
VStem: 207 90<90.0321 429.027>
LayerCount: 2
Fore
SplineSet
124 -210 m 1,0,-1
 61 -210 l 1,1,2
 207 24 207 24 207 259 c 0,3,4
 207 351 207 351 186 441 c 0,5,6
 169 514 169 514 139 582 c 0,7,8
 120 626 120 626 61 728 c 1,9,-1
 124 728 l 1,10,11
 216 605 216 605 259 482 c 0,12,13
 297 376 297 376 297 259 c 0,14,15
 297 127 297 127 246.5 4.5 c 128,-1,16
 196 -118 196 -118 124 -210 c 1,0,-1
EndSplineSet
EndChar

StartChar: asterisk
Encoding: 42 42 13
Width: 389
GlyphClass: 2
Flags: W
HStem: 423 305
VStem: 157 71<609.275 728>
LayerCount: 2
Fore
SplineSet
31 584 m 1,0,-1
 54 654 l 1,1,2
 132 627 132 627 167 606 c 1,3,4
 158 694 158 694 157 728 c 1,5,-1
 228 728 l 1,6,7
 227 680 227 680 216 607 c 1,8,9
 266 632 266 632 332 654 c 1,10,-1
 354 584 l 1,11,12
 292 563 292 563 232 557 c 1,13,14
 262 531 262 531 316 465 c 1,15,-1
 258 423 l 1,16,17
 230 462 230 462 191 528 c 1,18,19
 155 459 155 459 127 423 c 1,20,-1
 70 465 l 1,21,22
 127 535 127 535 151 557 c 1,23,24
 88 569 88 569 31 584 c 1,0,-1
EndSplineSet
EndChar

StartChar: plus
Encoding: 43 43 14
Width: 583
GlyphClass: 2
Flags: W
HStem: 312 82<56 250 333 528>
VStem: 250 83<116 312 394 589>
LayerCount: 2
Fore
SplineSet
250 116 m 1,0,-1
 250 312 l 1,1,-1
 56 312 l 1,2,-1
 56 394 l 1,3,-1
 250 394 l 1,4,-1
 250 589 l 1,5,-1
 333 589 l 1,6,-1
 333 394 l 1,7,-1
 528 394 l 1,8,-1
 528 312 l 1,9,-1
 333 312 l 1,10,-1
 333 116 l 1,11,-1
 250 116 l 1,0,-1
EndSplineSet
EndChar

StartChar: comma
Encoding: 44 44 15
Width: 277
GlyphClass: 2
Flags: W
HStem: 0 100<89 139>
VStem: 89 100<0 100> 139 50<-77.8623 0>
LayerCount: 2
Fore
SplineSet
89 0 m 1,0,-1
 89 100 l 1,1,-1
 189 100 l 1,2,-1
 189 0 l 2,3,4
 189 -55 189 -55 169.5 -89 c 128,-1,5
 150 -123 150 -123 107 -142 c 1,6,-1
 83 -104 l 1,7,8
 111 -92 111 -92 124 -68 c 128,-1,9
 137 -44 137 -44 139 0 c 1,10,-1
 89 0 l 1,0,-1
EndSplineSet
EndChar

StartChar: hyphen
Encoding: 45 45 16
AltUni2: 0000ad.ffffffff.0
Width: 333
GlyphClass: 2
Flags: W
HStem: 215 88<32 302>
VStem: 32 270<215 303>
LayerCount: 2
Fore
SplineSet
32 215 m 1,0,-1
 32 303 l 1,1,-1
 302 303 l 1,2,-1
 302 215 l 1,3,-1
 32 215 l 1,0,-1
EndSplineSet
EndChar

StartChar: period
Encoding: 46 46 17
Width: 277
GlyphClass: 2
Flags: W
HStem: 0 100<91 191>
VStem: 91 100<0 100>
LayerCount: 2
Fore
SplineSet
91 0 m 1,0,-1
 91 100 l 1,1,-1
 191 100 l 1,2,-1
 191 0 l 1,3,-1
 91 0 l 1,0,-1
EndSplineSet
EndChar

StartChar: slash
Encoding: 47 47 18
Width: 277
GlyphClass: 2
Flags: W
HStem: -12 21G<0 76.5946> 708 20G<202.378 278>
VStem: 0 278
LayerCount: 2
Fore
SplineSet
0 -12 m 1,0,-1
 208 728 l 1,1,-1
 278 728 l 1,2,-1
 71 -12 l 1,3,-1
 0 -12 l 1,0,-1
EndSplineSet
EndChar

StartChar: zero
Encoding: 48 48 19
Width: 556
GlyphClass: 2
Flags: W
HStem: -12 72<208.45 341.432> 646 73<205.18 341.372>
VStem: 42 90<164.724 542.771> 418 90<162.748 543.077>
LayerCount: 2
Fore
SplineSet
42 353 m 0,0,1
 42 480 42 480 68 557.5 c 128,-1,2
 94 635 94 635 145.5 677 c 128,-1,3
 197 719 197 719 275 719 c 0,4,5
 333 719 333 719 376 695.5 c 128,-1,6
 419 672 419 672 447.5 628.5 c 128,-1,7
 476 585 476 585 492 522 c 128,-1,8
 508 459 508 459 508 353 c 0,9,10
 508 227 508 227 482.5 149.5 c 128,-1,11
 457 72 457 72 405.5 30 c 128,-1,12
 354 -12 354 -12 275 -12 c 0,13,14
 171 -12 171 -12 112 62 c 0,15,16
 42 151 42 151 42 353 c 0,0,1
132 353 m 256,17,18
 132 177 132 177 173 118.5 c 128,-1,19
 214 60 214 60 275 60 c 256,20,21
 336 60 336 60 377 118.5 c 128,-1,22
 418 177 418 177 418 353 c 0,23,24
 418 530 418 530 376.5 588 c 128,-1,25
 335 646 335 646 274 646 c 128,-1,26
 213 646 213 646 177 595 c 0,27,28
 132 529 132 529 132 353 c 256,17,18
EndSplineSet
EndChar

StartChar: one
Encoding: 49 49 20
Width: 556
GlyphClass: 2
Flags: W
HStem: 0 21G<285 373> 699 20G<304.5 373>
VStem: 285 88<0 560>
LayerCount: 2
Fore
SplineSet
373 0 m 1,0,-1
 285 0 l 1,1,-1
 285 560 l 1,2,3
 253 530 253 530 201.5 499.5 c 128,-1,4
 150 469 150 469 109 454 c 1,5,-1
 109 539 l 1,6,7
 183 574 183 574 238 623 c 128,-1,8
 293 672 293 672 316 719 c 1,9,-1
 373 719 l 1,10,-1
 373 0 l 1,0,-1
EndSplineSet
EndChar

StartChar: two
Encoding: 50 50 21
Width: 556
GlyphClass: 2
Flags: W
HStem: 0 84<152 503> 646 73<197.128 356.304>
VStem: 47 90<511.222 585.696> 412 90<446.591 591.465>
LayerCount: 2
Fore
SplineSet
503 84 m 1,0,-1
 503 0 l 1,1,-1
 30 0 l 1,2,-1
 30 5 l 2,3,4
 30 34 30 34 41 61 c 0,5,6
 59 109 59 109 98.5 156 c 128,-1,7
 138 203 138 203 213 265 c 0,8,9
 330 361 330 361 371 416.5 c 128,-1,10
 412 472 412 472 412 522 c 0,11,12
 412 574 412 574 374.5 610 c 128,-1,13
 337 646 337 646 277 646 c 0,14,15
 214 646 214 646 176 608 c 128,-1,16
 138 570 138 570 137 502 c 1,17,-1
 47 512 l 1,18,19
 56 613 56 613 116.5 666 c 128,-1,20
 177 719 177 719 279 719 c 0,21,22
 382 719 382 719 442 661.5 c 128,-1,23
 502 604 502 604 502 520 c 0,24,25
 502 477 502 477 484.5 435.5 c 128,-1,26
 467 394 467 394 426.5 348 c 128,-1,27
 386 302 386 302 291 222 c 0,28,29
 212 156 212 156 189.5 132 c 128,-1,30
 167 108 167 108 152 84 c 1,31,-1
 503 84 l 1,0,-1
EndSplineSet
EndChar

StartChar: three
Encoding: 51 51 22
Width: 556
GlyphClass: 2
Flags: W
HStem: -13 73<196.013 348.094> 349 66<225.28 326.26> 518 21G<51 143.5> 646 73<195.916 340.76>
VStem: 42 88<134.823 189.955> 51 88<531.807 586.551> 385 91<465.858 601.92> 417 94<129.008 287.2>
LayerCount: 2
Fore
SplineSet
42 189 m 1,0,-1
 130 201 l 1,1,2
 145 126 145 126 181.5 93 c 128,-1,3
 218 60 218 60 270 60 c 0,4,5
 332 60 332 60 374.5 103 c 128,-1,6
 417 146 417 146 417 209 c 0,7,8
 417 270 417 270 377.5 309.5 c 128,-1,9
 338 349 338 349 277 349 c 0,10,11
 252 349 252 349 215 339 c 1,12,-1
 225 416 l 1,13,14
 234 415 234 415 239 415 c 0,15,16
 295 415 295 415 340 444.5 c 128,-1,17
 385 474 385 474 385 535 c 0,18,19
 385 583 385 583 352.5 614.5 c 128,-1,20
 320 646 320 646 268 646 c 0,21,22
 217 646 217 646 182.5 614 c 128,-1,23
 148 582 148 582 139 518 c 1,24,-1
 51 533 l 1,25,26
 67 621 67 621 124 670 c 128,-1,27
 181 719 181 719 266 719 c 0,28,29
 325 719 325 719 374 693.5 c 128,-1,30
 423 668 423 668 449.5 625 c 128,-1,31
 476 582 476 582 476 533 c 0,32,33
 476 487 476 487 451 448.5 c 128,-1,34
 426 410 426 410 377 388 c 1,35,36
 440 373 440 373 475.5 327 c 128,-1,37
 511 281 511 281 511 211 c 0,38,39
 511 117 511 117 442.5 52 c 128,-1,40
 374 -13 374 -13 270 -13 c 0,41,42
 176 -13 176 -13 113.5 43.5 c 128,-1,43
 51 100 51 100 42 189 c 1,0,-1
EndSplineSet
EndChar

StartChar: four
Encoding: 52 52 23
Width: 556
GlyphClass: 2
Flags: W
HStem: 0 21G<323 411> 171 81<99 323 411 508> 696 20G<324.948 411>
VStem: 323 88<0 171 252 575>
LayerCount: 2
Fore
SplineSet
323 0 m 1,0,-1
 323 171 l 1,1,-1
 13 171 l 1,2,-1
 13 252 l 1,3,-1
 339 716 l 1,4,-1
 411 716 l 1,5,-1
 411 252 l 1,6,-1
 508 252 l 1,7,-1
 508 171 l 1,8,-1
 411 171 l 1,9,-1
 411 0 l 1,10,-1
 323 0 l 1,0,-1
323 252 m 1,11,-1
 323 575 l 1,12,-1
 99 252 l 1,13,-1
 323 252 l 1,11,-1
EndSplineSet
EndChar

StartChar: five
Encoding: 53 53 24
Width: 556
GlyphClass: 2
Flags: W
HStem: -12 72<197.407 347.105> 397 78<198.263 352.265> 622 84<197 482>
VStem: 42 92<127.833 188.533> 423 93<140.281 325.854>
LayerCount: 2
Fore
SplineSet
42 188 m 1,0,-1
 134 195 l 1,1,2
 144 128 144 128 181.5 94 c 128,-1,3
 219 60 219 60 271 60 c 0,4,5
 334 60 334 60 378.5 108 c 128,-1,6
 423 156 423 156 423 235 c 0,7,8
 423 310 423 310 380.5 353.5 c 128,-1,9
 338 397 338 397 270 397 c 0,10,11
 228 397 228 397 193.5 377.5 c 128,-1,12
 159 358 159 358 140 328 c 1,13,-1
 57 338 l 1,14,-1
 126 706 l 1,15,-1
 482 706 l 1,16,-1
 482 622 l 1,17,-1
 197 622 l 1,18,-1
 158 430 l 1,19,20
 222 475 222 475 293 475 c 0,21,22
 387 475 387 475 451.5 410 c 128,-1,23
 516 345 516 345 516 243 c 0,24,25
 516 146 516 146 459 75 c 0,26,27
 390 -12 390 -12 271 -12 c 0,28,29
 173 -12 173 -12 112 43 c 128,-1,30
 51 98 51 98 42 188 c 1,0,-1
EndSplineSet
EndChar

StartChar: six
Encoding: 54 54 25
Width: 556
GlyphClass: 2
Flags: W
HStem: -12 72<212.12 354.369> 387 77<206.67 354.568> 646 73<218.722 359.246>
VStem: 38 87<369 523.826> 410 88<540.443 593.769> 420 90<131.049 319.536>
LayerCount: 2
Fore
SplineSet
498 541 m 1,0,-1
 410 534 l 1,1,2
 398 586 398 586 377 609 c 1,3,4
 341 647 341 647 289 646 c 0,5,6
 247 646 247 646 215 623 c 0,7,8
 173 593 173 593 149.5 535 c 128,-1,9
 126 477 126 477 125 369 c 1,10,11
 157 417 157 417 203 440.5 c 128,-1,12
 249 464 249 464 299 464 c 0,13,14
 387 464 387 464 448.5 399.5 c 128,-1,15
 510 335 510 335 510 232 c 0,16,17
 510 165 510 165 481 107 c 128,-1,18
 452 49 452 49 401.5 18.5 c 128,-1,19
 351 -12 351 -12 286 -12 c 0,20,21
 176 -12 176 -12 107 68.5 c 128,-1,22
 38 149 38 149 38 335 c 0,23,24
 38 543 38 543 114 637 c 0,25,26
 181 719 181 719 294 719 c 0,27,28
 378 719 378 719 432.5 671.5 c 128,-1,29
 487 624 487 624 498 541 c 1,0,-1
139 232 m 0,30,31
 139 187 139 187 158 145.5 c 128,-1,32
 177 104 177 104 212 82 c 128,-1,33
 247 60 247 60 285 60 c 0,34,35
 341 60 341 60 380.5 105 c 128,-1,36
 420 150 420 150 420 227 c 0,37,38
 420 301 420 301 380.5 344 c 128,-1,39
 341 387 341 387 281 387 c 128,-1,40
 221 387 221 387 180 344 c 128,-1,41
 139 301 139 301 139 232 c 0,30,31
EndSplineSet
EndChar

StartChar: seven
Encoding: 55 55 26
Width: 556
GlyphClass: 2
Flags: W
HStem: 0 21G<147 241.5> 622 85<47 398>
VStem: 147 91<0 153.223>
LayerCount: 2
Fore
SplineSet
47 622 m 1,0,-1
 47 707 l 1,1,-1
 511 707 l 1,2,-1
 511 638 l 1,3,4
 443 565 443 565 375.5 444.5 c 128,-1,5
 308 324 308 324 271 197 c 1,6,7
 245 107 245 107 238 0 c 1,8,-1
 147 0 l 1,9,10
 148 84 148 84 180 204 c 128,-1,11
 212 324 212 324 271.5 435 c 128,-1,12
 331 546 331 546 398 622 c 1,13,-1
 47 622 l 1,0,-1
EndSplineSet
EndChar

StartChar: eight
Encoding: 56 56 27
Width: 556
GlyphClass: 2
Flags: W
HStem: -12 72<198.606 356.512> 350 72<204.898 348.525> 646 73<204.982 345.813>
VStem: 41 90<127.927 285.992> 69 90<466.833 600.06> 393 90<466.667 598.419> 422 90<125.146 283.664>
LayerCount: 2
Fore
SplineSet
177 388 m 1,0,1
 122 408 122 408 95.5 445 c 128,-1,2
 69 482 69 482 69 534 c 0,3,4
 69 612 69 612 125.5 665.5 c 128,-1,5
 182 719 182 719 275 719 c 0,6,7
 369 719 369 719 426 664.5 c 128,-1,8
 483 610 483 610 483 532 c 0,9,10
 483 482 483 482 457 445 c 128,-1,11
 431 408 431 408 377 388 c 1,12,13
 443 367 443 367 477.5 319 c 128,-1,14
 512 271 512 271 512 205 c 0,15,16
 512 113 512 113 447 50.5 c 128,-1,17
 382 -12 382 -12 276 -12 c 256,18,19
 170 -12 170 -12 105.5 50.5 c 128,-1,20
 41 113 41 113 41 207 c 0,21,22
 41 277 41 277 76.5 324 c 128,-1,23
 112 371 112 371 177 388 c 1,0,1
159 537 m 0,24,25
 159 486 159 486 192 454 c 128,-1,26
 225 422 225 422 277 422 c 0,27,28
 328 422 328 422 360.5 454 c 128,-1,29
 393 486 393 486 393 532 c 0,30,31
 393 580 393 580 359.5 613 c 128,-1,32
 326 646 326 646 276 646 c 128,-1,33
 226 646 226 646 192.5 614 c 128,-1,34
 159 582 159 582 159 537 c 0,24,25
131 207 m 0,35,36
 131 169 131 169 149 134 c 128,-1,37
 167 99 167 99 202 79.5 c 128,-1,38
 237 60 237 60 277 60 c 0,39,40
 340 60 340 60 381 100.5 c 128,-1,41
 422 141 422 141 422 204 c 128,-1,42
 422 267 422 267 380 308.5 c 128,-1,43
 338 350 338 350 274 350 c 0,44,45
 212 350 212 350 171.5 309.5 c 128,-1,46
 131 269 131 269 131 207 c 0,35,36
EndSplineSet
EndChar

StartChar: nine
Encoding: 57 57 28
Width: 556
GlyphClass: 2
Flags: W
HStem: -12 72<186.012 333.958> 243 77<199.608 344.113> 646 73<205.919 347.623>
VStem: 42 90<389.662 567.044> 55 84<110.404 166.583> 425 87<184.041 461.818>
LayerCount: 2
Fore
SplineSet
55 166 m 1,0,-1
 139 173 l 1,1,2
 150 113 150 113 180 86.5 c 128,-1,3
 210 60 210 60 258 60 c 0,4,5
 299 60 299 60 329 78.5 c 128,-1,6
 359 97 359 97 378.5 128 c 128,-1,7
 398 159 398 159 411.5 212 c 128,-1,8
 425 265 425 265 425 319 c 0,9,10
 425 325 425 325 424 337 c 1,11,12
 398 295 398 295 352.5 269 c 128,-1,13
 307 243 307 243 253 243 c 0,14,15
 164 243 164 243 103 307.5 c 128,-1,16
 42 372 42 372 42 477 c 0,17,18
 42 586 42 586 106 652.5 c 128,-1,19
 170 719 170 719 267 719 c 0,20,21
 337 719 337 719 394.5 681.5 c 128,-1,22
 452 644 452 644 482 574 c 128,-1,23
 512 504 512 504 512 373 c 0,24,25
 512 236 512 236 482.5 154.5 c 128,-1,26
 453 73 453 73 394 30.5 c 128,-1,27
 335 -12 335 -12 256 -12 c 0,28,29
 172 -12 172 -12 119 35 c 128,-1,30
 66 82 66 82 55 166 c 1,0,-1
415 481 m 256,31,32
 415 557 415 557 374.5 601.5 c 128,-1,33
 334 646 334 646 277 646 c 0,34,35
 218 646 218 646 175 598 c 128,-1,36
 132 550 132 550 132 474 c 0,37,38
 132 406 132 406 173 363 c 128,-1,39
 214 320 214 320 275 320 c 128,-1,40
 336 320 336 320 375.5 362.5 c 128,-1,41
 415 405 415 405 415 481 c 256,31,32
EndSplineSet
EndChar

StartChar: colon
Encoding: 58 58 29
Width: 277
GlyphClass: 2
Flags: W
HStem: 0 100<90 190> 418 101<90 190>
VStem: 90 100<0 100 418 519>
LayerCount: 2
Fore
SplineSet
90 418 m 1,0,-1
 90 519 l 1,1,-1
 190 519 l 1,2,-1
 190 418 l 1,3,-1
 90 418 l 1,0,-1
90 0 m 1,4,-1
 90 100 l 1,5,-1
 190 100 l 1,6,-1
 190 0 l 1,7,-1
 90 0 l 1,4,-1
EndSplineSet
EndChar

StartChar: semicolon
Encoding: 59 59 30
AltUni2: 00037e.ffffffff.0
Width: 277
GlyphClass: 2
Flags: W
HStem: 0 100<89 139> 418 101<89 189>
VStem: 89 100<0 100 418 519> 139 50<-77.8623 0>
LayerCount: 2
Fore
SplineSet
89 418 m 1,0,-1
 89 519 l 1,1,-1
 189 519 l 1,2,-1
 189 418 l 1,3,-1
 89 418 l 1,0,-1
89 0 m 1,4,-1
 89 100 l 1,5,-1
 189 100 l 1,6,-1
 189 0 l 2,7,8
 189 -55 189 -55 169.5 -89 c 128,-1,9
 150 -123 150 -123 107 -142 c 1,10,-1
 83 -104 l 1,11,12
 111 -92 111 -92 124 -68 c 128,-1,13
 137 -44 137 -44 139 0 c 1,14,-1
 89 0 l 1,4,-1
EndSplineSet
EndChar

StartChar: less
Encoding: 60 60 31
Width: 583
GlyphClass: 2
Flags: W
LayerCount: 2
Fore
SplineSet
55 313 m 1,0,-1
 55 395 l 1,1,-1
 529 595 l 1,2,-1
 529 508 l 1,3,-1
 153 354 l 1,4,-1
 529 198 l 1,5,-1
 529 110 l 1,6,-1
 55 313 l 1,0,-1
EndSplineSet
EndChar

StartChar: equal
Encoding: 61 61 32
Width: 583
GlyphClass: 2
Flags: W
HStem: 204 82<56 528> 421 82<56 528>
LayerCount: 2
Fore
SplineSet
528 421 m 1,0,-1
 56 421 l 1,1,-1
 56 503 l 1,2,-1
 528 503 l 1,3,-1
 528 421 l 1,0,-1
528 204 m 1,4,-1
 56 204 l 1,5,-1
 56 286 l 1,6,-1
 528 286 l 1,7,-1
 528 204 l 1,4,-1
EndSplineSet
EndChar

StartChar: greater
Encoding: 62 62 33
Width: 583
GlyphClass: 2
Flags: W
LayerCount: 2
Fore
SplineSet
529 313 m 1,0,-1
 55 110 l 1,1,-1
 55 198 l 1,2,-1
 430 354 l 1,3,-1
 55 508 l 1,4,-1
 55 595 l 1,5,-1
 529 395 l 1,6,-1
 529 313 l 1,0,-1
EndSplineSet
EndChar

StartChar: question
Encoding: 63 63 34
Width: 556
GlyphClass: 2
Flags: W
HStem: 0 100<225 325> 656 72<201.354 352.851>
VStem: 44 90<520.222 581.619> 225 100<0 100> 230 85<176 286.127> 416 90<463.925 595.143>
LayerCount: 2
Fore
SplineSet
230 176 m 1,0,1
 230 194 230 194 230 203 c 0,2,3
 230 255 230 255 245 292 c 0,4,5
 256 320 256 320 279 349 c 0,6,7
 297 370 297 370 342.5 410.5 c 128,-1,8
 388 451 388 451 402 475 c 128,-1,9
 416 499 416 499 416 527 c 0,10,11
 416 578 416 578 375.5 617 c 128,-1,12
 335 656 335 656 277 656 c 0,13,14
 221 656 221 656 183.5 620.5 c 128,-1,15
 146 585 146 585 134 511 c 1,16,-1
 44 521 l 1,17,18
 56 621 56 621 116.5 674.5 c 128,-1,19
 177 728 177 728 276 728 c 0,20,21
 381 728 381 728 443.5 671 c 128,-1,22
 506 614 506 614 506 533 c 0,23,24
 506 486 506 486 484 446.5 c 128,-1,25
 462 407 462 407 398 350 c 0,26,27
 355 312 355 312 342 294 c 128,-1,28
 329 276 329 276 322.5 252.5 c 128,-1,29
 316 229 316 229 315 176 c 1,30,-1
 230 176 l 1,0,1
225 0 m 1,31,-1
 225 100 l 1,32,-1
 325 100 l 1,33,-1
 325 0 l 1,34,-1
 225 0 l 1,31,-1
EndSplineSet
EndChar

StartChar: at
Encoding: 64 64 35
Width: 1015
GlyphClass: 2
Flags: W
HStem: -210 72<384.5 707.474> -2 82<644 750.158> -1 72<378.115 495.672> 457 72<433.298 563.682> 658 71<396.76 667.541>
VStem: 54 72<97.5303 377.136> 240 91<121.916 322.414> 613 47<112 317> 883 72<238.481 461.522>
LayerCount: 2
Fore
SplineSet
567 80 m 1,0,1
 535 43 535 43 496 21 c 128,-1,2
 457 -1 457 -1 417 -1 c 0,3,4
 374 -1 374 -1 333 24 c 128,-1,5
 292 49 292 49 266 102 c 128,-1,6
 240 155 240 155 240 218 c 0,7,8
 240 296 240 296 280 373.5 c 128,-1,9
 320 451 320 451 379 490 c 128,-1,10
 438 529 438 529 494 529 c 0,11,12
 536 529 536 529 574.5 507 c 128,-1,13
 613 485 613 485 641 439 c 1,14,-1
 658 515 l 1,15,-1
 745 515 l 1,16,-1
 675 188 l 2,17,18
 660 120 660 120 660 112 c 0,19,20
 660 99 660 99 670 89.5 c 128,-1,21
 680 80 680 80 694 80 c 0,22,23
 720 80 720 80 762 109 c 0,24,25
 818 148 818 148 850.5 214 c 128,-1,26
 883 280 883 280 883 350 c 0,27,28
 883 432 883 432 841 502.5 c 128,-1,29
 799 573 799 573 716.5 615.5 c 128,-1,30
 634 658 634 658 534 658 c 0,31,32
 420 658 420 658 325 604.5 c 128,-1,33
 230 551 230 551 178 451 c 128,-1,34
 126 351 126 351 126 237 c 0,35,36
 126 117 126 117 178 30.5 c 128,-1,37
 230 -56 230 -56 328.5 -97 c 128,-1,38
 427 -138 427 -138 547 -138 c 0,39,40
 675 -138 675 -138 761.5 -95 c 128,-1,41
 848 -52 848 -52 891 9 c 1,42,-1
 979 9 l 1,43,44
 954 -42 954 -42 893.5 -95 c 128,-1,45
 833 -148 833 -148 749.5 -179 c 128,-1,46
 666 -210 666 -210 548 -210 c 0,47,48
 440 -210 440 -210 348.5 -182.5 c 128,-1,49
 257 -155 257 -155 192.5 -99 c 128,-1,50
 128 -43 128 -43 95 30 c 0,51,52
 54 122 54 122 54 229 c 0,53,54
 54 348 54 348 103 456 c 0,55,56
 163 588 163 588 272.5 658.5 c 128,-1,57
 382 729 382 729 538 729 c 0,58,59
 659 729 659 729 755.5 679.5 c 128,-1,60
 852 630 852 630 908 532 c 0,61,62
 955 448 955 448 955 348 c 0,63,64
 955 206 955 206 855 97 c 0,65,66
 766 -2 766 -2 661 -2 c 0,67,68
 627 -2 627 -2 606.5 8.5 c 128,-1,69
 586 19 586 19 576 38 c 0,70,71
 570 50 570 50 567 80 c 1,0,1
331 212 m 0,72,73
 331 145 331 145 362.5 108 c 128,-1,74
 394 71 394 71 435 71 c 0,75,76
 462 71 462 71 492.5 87.5 c 128,-1,77
 523 104 523 104 550.5 136 c 128,-1,78
 578 168 578 168 595.5 217.5 c 128,-1,79
 613 267 613 267 613 317 c 0,80,81
 613 383 613 383 580 420 c 128,-1,82
 547 457 547 457 500 457 c 0,83,84
 469 457 469 457 441.5 441 c 128,-1,85
 414 425 414 425 388 389.5 c 128,-1,86
 362 354 362 354 346.5 304 c 128,-1,87
 331 254 331 254 331 212 c 0,72,73
EndSplineSet
EndChar

StartChar: A
Encoding: 65 65 36
Width: 666
GlyphClass: 2
Flags: W
HStem: 0 21G<-1 106.281 553.258 668> 217 77<205 448> 696 20G<265.346 383.184>
AnchorPoint: "Anchor-20" 0 1025 basechar 0
AnchorPoint: "Anchor-19" 667 1025 basechar 0
AnchorPoint: "Anchor-16" 593 0 basechar 0
AnchorPoint: "Anchor-15" 327 -24 basechar 0
AnchorPoint: "Anchor-14" 330 713 basechar 0
AnchorPoint: "Anchor-13" 333 -212 basechar 0
AnchorPoint: "Anchor-12" 667 928 basechar 0
AnchorPoint: "Anchor-11" 327 366 basechar 0
AnchorPoint: "Anchor-10" 391 715 basechar 0
AnchorPoint: "Anchor-8" 327 -59 basechar 0
AnchorPoint: "Anchor-7" 488 760 basechar 0
AnchorPoint: "Anchor-6" 322 760 basechar 0
LayerCount: 2
Fore
SplineSet
-1 0 m 1,0,-1
 273 716 l 1,1,-1
 375 716 l 1,2,-1
 668 0 l 1,3,-1
 561 0 l 1,4,-1
 477 217 l 1,5,-1
 178 217 l 1,6,-1
 99 0 l 1,7,-1
 -1 0 l 1,0,-1
205 294 m 1,8,-1
 448 294 l 1,9,-1
 373 492 l 2,10,11
 339 582 339 582 322 641 c 1,12,13
 308 572 308 572 284 504 c 2,14,-1
 205 294 l 1,8,-1
EndSplineSet
EndChar

StartChar: B
Encoding: 66 66 37
Width: 666
GlyphClass: 2
Flags: W
HStem: 0 84<168 461.991> 331 84<168 443> 631 85<168 444.33>
VStem: 73 95<84 331 415 631> 486 93<455.302 590.131> 516 98<135.373 279.288>
AnchorPoint: "Anchor-20" 0 1025 basechar 0
AnchorPoint: "Anchor-19" 667 1025 basechar 0
AnchorPoint: "Anchor-16" 391 0 basechar 0
AnchorPoint: "Anchor-14" 396 713 basechar 0
AnchorPoint: "Anchor-13" 333 -212 basechar 0
AnchorPoint: "Anchor-12" 667 928 basechar 0
AnchorPoint: "Anchor-11" 315 410 basechar 0
AnchorPoint: "Anchor-10" 569 584 basechar 0
AnchorPoint: "Anchor-8" 305 -59 basechar 0
AnchorPoint: "Anchor-7" 537 760 basechar 0
AnchorPoint: "Anchor-6" 305 760 basechar 0
LayerCount: 2
Fore
SplineSet
73 0 m 1,0,-1
 73 716 l 1,1,-1
 342 716 l 2,2,3
 424 716 424 716 473.5 694 c 128,-1,4
 523 672 523 672 551 627 c 128,-1,5
 579 582 579 582 579 533 c 0,6,7
 579 487 579 487 554 446.5 c 128,-1,8
 529 406 529 406 479 381 c 1,9,10
 544 362 544 362 579 316 c 128,-1,11
 614 270 614 270 614 208 c 0,12,13
 614 158 614 158 592.5 114.5 c 128,-1,14
 571 71 571 71 540 47.5 c 128,-1,15
 509 24 509 24 462 12 c 128,-1,16
 415 0 415 0 346 0 c 2,17,-1
 73 0 l 1,0,-1
168 415 m 1,18,-1
 323 415 l 2,19,20
 386 415 386 415 413 423 c 0,21,22
 449 434 449 434 467.5 459 c 128,-1,23
 486 484 486 484 486 521 c 0,24,25
 486 557 486 557 469 584 c 128,-1,26
 452 611 452 611 420 621 c 128,-1,27
 388 631 388 631 311 631 c 2,28,-1
 168 631 l 1,29,-1
 168 415 l 1,18,-1
168 84 m 1,30,-1
 346 84 l 2,31,32
 392 84 392 84 411 88 c 0,33,34
 444 94 444 94 465.5 107.5 c 128,-1,35
 487 121 487 121 501.5 147 c 128,-1,36
 516 173 516 173 516 208 c 0,37,38
 516 248 516 248 495.5 277.5 c 128,-1,39
 475 307 475 307 438.5 319 c 128,-1,40
 402 331 402 331 333 331 c 2,41,-1
 168 331 l 1,42,-1
 168 84 l 1,30,-1
EndSplineSet
EndChar

StartChar: C
Encoding: 67 67 38
Width: 722
GlyphClass: 2
Flags: W
HStem: -12 81<280.498 475.272> 647 81<278.542 483.519>
VStem: 50 97<219.841 498.573>
AnchorPoint: "Anchor-20" 0 1025 basechar 0
AnchorPoint: "Anchor-19" 722 1025 basechar 0
AnchorPoint: "Anchor-16" 464 0 basechar 0
AnchorPoint: "Anchor-15" 386 -7 basechar 0
AnchorPoint: "Anchor-14" 513 679 basechar 0
AnchorPoint: "Anchor-13" 361 -212 basechar 0
AnchorPoint: "Anchor-12" 722 928 basechar 0
AnchorPoint: "Anchor-11" 381 366 basechar 0
AnchorPoint: "Anchor-10" 646 591 basechar 0
AnchorPoint: "Anchor-8" 386 -59 basechar 0
AnchorPoint: "Anchor-7" 610 760 basechar 0
AnchorPoint: "Anchor-6" 366 760 basechar 0
LayerCount: 2
Fore
SplineSet
588 251 m 1,0,-1
 683 227 l 1,1,2
 653 110 653 110 575.5 49 c 128,-1,3
 498 -12 498 -12 386 -12 c 0,4,5
 270 -12 270 -12 197.5 35 c 128,-1,6
 125 82 125 82 87.5 171.5 c 128,-1,7
 50 261 50 261 50 363 c 0,8,9
 50 475 50 475 92.5 558.5 c 128,-1,10
 135 642 135 642 214 685 c 128,-1,11
 293 728 293 728 388 728 c 0,12,13
 495 728 495 728 568.5 673.5 c 128,-1,14
 642 619 642 619 670 520 c 1,15,-1
 577 498 l 1,16,17
 552 576 552 576 505 611.5 c 128,-1,18
 458 647 458 647 386 647 c 0,19,20
 303 647 303 647 247.5 607.5 c 128,-1,21
 192 568 192 568 169.5 501.5 c 128,-1,22
 147 435 147 435 147 364 c 0,23,24
 147 273 147 273 174 204.5 c 128,-1,25
 201 136 201 136 257 102.5 c 128,-1,26
 313 69 313 69 378 69 c 0,27,28
 458 69 458 69 513 115 c 128,-1,29
 568 161 568 161 588 251 c 1,0,-1
EndSplineSet
EndChar

StartChar: D
Encoding: 68 68 39
Width: 722
GlyphClass: 2
Flags: W
HStem: 0 84<172 456.193> 631 85<172 460.572>
VStem: 77 95<84 631> 571 98<216.911 503.894>
AnchorPoint: "Anchor-20" 0 1025 basechar 0
AnchorPoint: "Anchor-19" 722 1025 basechar 0
AnchorPoint: "Anchor-16" 371 0 basechar 0
AnchorPoint: "Anchor-14" 488 679 basechar 0
AnchorPoint: "Anchor-13" 361 -212 basechar 0
AnchorPoint: "Anchor-12" 722 928 basechar 0
AnchorPoint: "Anchor-11" 366 366 basechar 0
AnchorPoint: "Anchor-10" 616 584 basechar 0
AnchorPoint: "Anchor-8" 317 -59 basechar 0
AnchorPoint: "Anchor-7" 635 760 basechar 0
AnchorPoint: "Anchor-6" 317 760 basechar 0
LayerCount: 2
Fore
SplineSet
77 0 m 1,0,-1
 77 716 l 1,1,-1
 324 716 l 2,2,3
 407 716 407 716 451 706 c 0,4,5
 513 692 513 692 556 654 c 0,6,7
 613 606 613 606 641 532 c 128,-1,8
 669 458 669 458 669 362 c 0,9,10
 669 280 669 280 650 217 c 128,-1,11
 631 154 631 154 601 113 c 128,-1,12
 571 72 571 72 535.5 48 c 128,-1,13
 500 24 500 24 450 12 c 128,-1,14
 400 0 400 0 335 0 c 2,15,-1
 77 0 l 1,0,-1
172 84 m 1,16,-1
 325 84 l 2,17,18
 396 84 396 84 436 97.5 c 128,-1,19
 476 111 476 111 500 135 c 0,20,21
 534 169 534 169 552.5 225.5 c 128,-1,22
 571 282 571 282 571 363 c 0,23,24
 571 475 571 475 534.5 535.5 c 128,-1,25
 498 596 498 596 445 617 c 0,26,27
 407 632 407 632 322 631 c 2,28,-1
 172 631 l 1,29,-1
 172 84 l 1,16,-1
EndSplineSet
EndChar

StartChar: E
Encoding: 69 69 40
Width: 666
GlyphClass: 2
Flags: W
HStem: 0 84<174 613> 328 84<174 570> 631 85<174 597>
VStem: 79 95<84 328 412 631>
AnchorPoint: "Anchor-20" 0 1025 basechar 0
AnchorPoint: "Anchor-19" 667 1025 basechar 0
AnchorPoint: "Anchor-16" 542 0 basechar 0
AnchorPoint: "Anchor-15" 342 0 basechar 0
AnchorPoint: "Anchor-14" 557 713 basechar 0
AnchorPoint: "Anchor-13" 333 -212 basechar 0
AnchorPoint: "Anchor-12" 667 928 basechar 0
AnchorPoint: "Anchor-11" 359 410 basechar 0
AnchorPoint: "Anchor-10" 593 715 basechar 0
AnchorPoint: "Anchor-8" 342 -59 basechar 0
AnchorPoint: "Anchor-7" 586 760 basechar 0
AnchorPoint: "Anchor-6" 330 760 basechar 0
LayerCount: 2
Fore
SplineSet
79 0 m 1,0,-1
 79 716 l 1,1,-1
 597 716 l 1,2,-1
 597 631 l 1,3,-1
 174 631 l 1,4,-1
 174 412 l 1,5,-1
 570 412 l 1,6,-1
 570 328 l 1,7,-1
 174 328 l 1,8,-1
 174 84 l 1,9,-1
 613 84 l 1,10,-1
 613 0 l 1,11,-1
 79 0 l 1,0,-1
EndSplineSet
EndChar

StartChar: F
Encoding: 70 70 41
Width: 610
GlyphClass: 2
Flags: W
HStem: 0 21G<82 177> 325 85<177 513> 631 85<177 565>
VStem: 82 95<0 325 410 631>
AnchorPoint: "Anchor-20" 0 1025 basechar 0
AnchorPoint: "Anchor-19" 611 1025 basechar 0
AnchorPoint: "Anchor-16" 117 0 basechar 0
AnchorPoint: "Anchor-14" 513 713 basechar 0
AnchorPoint: "Anchor-13" 305 -212 basechar 0
AnchorPoint: "Anchor-12" 611 928 basechar 0
AnchorPoint: "Anchor-11" 330 410 basechar 0
AnchorPoint: "Anchor-10" 558 715 basechar 0
AnchorPoint: "Anchor-8" 327 -59 basechar 0
AnchorPoint: "Anchor-7" 562 760 basechar 0
AnchorPoint: "Anchor-6" 317 760 basechar 0
LayerCount: 2
Fore
SplineSet
82 0 m 1,0,-1
 82 716 l 1,1,-1
 565 716 l 1,2,-1
 565 631 l 1,3,-1
 177 631 l 1,4,-1
 177 410 l 1,5,-1
 513 410 l 1,6,-1
 513 325 l 1,7,-1
 177 325 l 1,8,-1
 177 0 l 1,9,-1
 82 0 l 1,0,-1
EndSplineSet
EndChar

StartChar: G
Encoding: 71 71 42
Width: 777
GlyphClass: 2
Flags: W
HStem: -12 85<302.835 527.632> 281 84<412 623> 647 81<295.862 516.05>
VStem: 53 98<224.855 490.137> 623 92<131.739 281>
AnchorPoint: "Anchor-20" 0 1025 basechar 0
AnchorPoint: "Anchor-19" 778 1025 basechar 0
AnchorPoint: "Anchor-16" 503 0 basechar 0
AnchorPoint: "Anchor-15" 391 -7 basechar 0
AnchorPoint: "Anchor-14" 586 679 basechar 0
AnchorPoint: "Anchor-13" 389 -212 basechar 0
AnchorPoint: "Anchor-12" 778 928 basechar 0
AnchorPoint: "Anchor-11" 352 366 basechar 0
AnchorPoint: "Anchor-10" 669 583 basechar 0
AnchorPoint: "Anchor-8" 403 -59 basechar 0
AnchorPoint: "Anchor-7" 635 760 basechar 0
AnchorPoint: "Anchor-6" 391 760 basechar 0
LayerCount: 2
Fore
SplineSet
412 281 m 1,0,-1
 412 365 l 1,1,-1
 715 365 l 1,2,-1
 715 100 l 1,3,4
 645 44 645 44 571 16 c 128,-1,5
 497 -12 497 -12 419 -12 c 0,6,7
 314 -12 314 -12 227.5 33 c 128,-1,8
 141 78 141 78 97 163.5 c 128,-1,9
 53 249 53 249 53 354 c 0,10,11
 53 458 53 458 97 549 c 128,-1,12
 141 640 141 640 223 684 c 128,-1,13
 305 728 305 728 412 728 c 0,14,15
 490 728 490 728 552.5 703 c 128,-1,16
 615 678 615 678 650.5 633 c 128,-1,17
 686 588 686 588 705 516 c 1,18,-1
 619 492 l 1,19,20
 603 547 603 547 579 578 c 128,-1,21
 555 609 555 609 510.5 628 c 128,-1,22
 466 647 466 647 412 647 c 0,23,24
 347 647 347 647 299.5 627 c 128,-1,25
 252 607 252 607 223 575 c 128,-1,26
 194 543 194 543 178 504 c 0,27,28
 151 438 151 438 151 360 c 0,29,30
 151 264 151 264 184 200 c 128,-1,31
 217 136 217 136 280 104.5 c 128,-1,32
 343 73 343 73 414 73 c 0,33,34
 476 73 476 73 534 97 c 128,-1,35
 592 121 592 121 623 147 c 1,36,-1
 623 281 l 1,37,-1
 412 281 l 1,0,-1
EndSplineSet
EndChar

StartChar: H
Encoding: 72 72 43
Width: 722
GlyphClass: 2
Flags: W
HStem: 0 21G<80 175 547 642> 337 85<175 547> 696 20G<80 175 547 642>
VStem: 80 95<0 337 422 716> 547 95<0 337 422 716>
AnchorPoint: "Anchor-20" 0 1025 basechar 0
AnchorPoint: "Anchor-19" 722 1025 basechar 0
AnchorPoint: "Anchor-16" 576 0 basechar 0
AnchorPoint: "Anchor-14" 579 713 basechar 0
AnchorPoint: "Anchor-13" 361 -212 basechar 0
AnchorPoint: "Anchor-12" 722 928 basechar 0
AnchorPoint: "Anchor-11" 359 410 basechar 0
AnchorPoint: "Anchor-10" 624 715 basechar 0
AnchorPoint: "Anchor-8" 354 -59 basechar 0
AnchorPoint: "Anchor-7" 635 760 basechar 0
AnchorPoint: "Anchor-6" 354 760 basechar 0
LayerCount: 2
Fore
SplineSet
80 0 m 1,0,-1
 80 716 l 1,1,-1
 175 716 l 1,2,-1
 175 422 l 1,3,-1
 547 422 l 1,4,-1
 547 716 l 1,5,-1
 642 716 l 1,6,-1
 642 0 l 1,7,-1
 547 0 l 1,8,-1
 547 337 l 1,9,-1
 175 337 l 1,10,-1
 175 0 l 1,11,-1
 80 0 l 1,0,-1
EndSplineSet
EndChar

StartChar: I
Encoding: 73 73 44
Width: 277
GlyphClass: 2
Flags: W
HStem: 0 21G<93 188> 696 20G<93 188>
VStem: 93 95<0 716>
AnchorPoint: "Anchor-20" 0 1025 basechar 0
AnchorPoint: "Anchor-19" 278 1025 basechar 0
AnchorPoint: "Anchor-16" 127 0 basechar 0
AnchorPoint: "Anchor-15" 139 0 basechar 0
AnchorPoint: "Anchor-14" 139 713 basechar 0
AnchorPoint: "Anchor-13" 139 -212 basechar 0
AnchorPoint: "Anchor-12" 278 928 basechar 0
AnchorPoint: "Anchor-11" 139 366 basechar 0
AnchorPoint: "Anchor-10" 185 715 basechar 0
AnchorPoint: "Anchor-8" 142 -59 basechar 0
AnchorPoint: "Anchor-7" 183 760 basechar 0
AnchorPoint: "Anchor-6" 142 760 basechar 0
LayerCount: 2
Fore
SplineSet
93 0 m 1,0,-1
 93 716 l 1,1,-1
 188 716 l 1,2,-1
 188 0 l 1,3,-1
 93 0 l 1,0,-1
EndSplineSet
EndChar

StartChar: J
Encoding: 74 74 45
Width: 500
GlyphClass: 2
Flags: W
HStem: -12 84<153.948 289.704> 696 20G<328 422>
VStem: 29 85<116.004 203> 328 94<110.701 716>
AnchorPoint: "Anchor-20" 0 1025 basechar 0
AnchorPoint: "Anchor-19" 500 1025 basechar 0
AnchorPoint: "Anchor-16" 278 0 basechar 0
AnchorPoint: "Anchor-14" 381 713 basechar 0
AnchorPoint: "Anchor-13" 250 -212 basechar 0
AnchorPoint: "Anchor-12" 500 928 basechar 0
AnchorPoint: "Anchor-11" 371 366 basechar 0
AnchorPoint: "Anchor-10" 413 715 basechar 0
AnchorPoint: "Anchor-8" 225 -59 basechar 0
AnchorPoint: "Anchor-7" 415 760 basechar 0
AnchorPoint: "Anchor-6" 373 760 basechar 0
LayerCount: 2
Fore
SplineSet
29 203 m 1,0,-1
 114 215 l 1,1,2
 117 133 117 133 144.5 102.5 c 128,-1,3
 172 72 172 72 221 72 c 0,4,5
 257 72 257 72 282.5 88.5 c 128,-1,6
 308 105 308 105 318 133 c 128,-1,7
 328 161 328 161 328 223 c 2,8,-1
 328 716 l 1,9,-1
 422 716 l 1,10,-1
 422 228 l 2,11,12
 422 138 422 138 400.5 89 c 128,-1,13
 379 40 379 40 332 14 c 128,-1,14
 285 -12 285 -12 221 -12 c 0,15,16
 127 -12 127 -12 77 42 c 0,17,18
 29 94 29 94 29 195 c 2,19,-1
 29 203 l 1,0,-1
EndSplineSet
EndChar

StartChar: K
Encoding: 75 75 46
Width: 666
GlyphClass: 2
Flags: W
HStem: 0 21G<73 168 525.912 665> 696 20G<73 168 503 652>
VStem: 73 95<0 248 361 716>
AnchorPoint: "Anchor-20" 0 1025 basechar 0
AnchorPoint: "Anchor-19" 667 1025 basechar 0
AnchorPoint: "Anchor-16" 576 0 basechar 0
AnchorPoint: "Anchor-15" 330 -24 basechar 0
AnchorPoint: "Anchor-14" 564 713 basechar 0
AnchorPoint: "Anchor-13" 333 -212 basechar 0
AnchorPoint: "Anchor-12" 667 928 basechar 0
AnchorPoint: "Anchor-11" 122 391 basechar 0
AnchorPoint: "Anchor-10" 576 715 basechar 0
AnchorPoint: "Anchor-8" 342 -59 basechar 0
AnchorPoint: "Anchor-7" 635 760 basechar 0
AnchorPoint: "Anchor-6" 354 760 basechar 0
LayerCount: 2
Fore
SplineSet
73 0 m 1,0,-1
 73 716 l 1,1,-1
 168 716 l 1,2,-1
 168 361 l 1,3,-1
 523 716 l 1,4,-1
 652 716 l 1,5,-1
 352 426 l 1,6,-1
 665 0 l 1,7,-1
 540 0 l 1,8,-1
 285 362 l 1,9,-1
 168 248 l 1,10,-1
 168 0 l 1,11,-1
 73 0 l 1,0,-1
EndSplineSet
EndChar

StartChar: L
Encoding: 76 76 47
Width: 556
GlyphClass: 2
Flags: W
HStem: 0 84<168 521> 696 20G<73 168>
VStem: 73 95<84 716>
AnchorPoint: "Anchor-20" 0 1025 basechar 0
AnchorPoint: "Anchor-19" 556 1025 basechar 0
AnchorPoint: "Anchor-16" 459 0 basechar 0
AnchorPoint: "Anchor-15" 293 0 basechar 0
AnchorPoint: "Anchor-14" 139 713 basechar 0
AnchorPoint: "Anchor-13" 278 -212 basechar 0
AnchorPoint: "Anchor-12" 556 928 basechar 0
AnchorPoint: "Anchor-11" 122 366 basechar 0
AnchorPoint: "Anchor-10" 163 716 basechar 0
AnchorPoint: "Anchor-8" 293 -59 basechar 0
AnchorPoint: "Anchor-7" 474 760 basechar 0
AnchorPoint: "Anchor-6" 308 760 basechar 0
LayerCount: 2
Fore
SplineSet
73 0 m 1,0,-1
 73 716 l 1,1,-1
 168 716 l 1,2,-1
 168 84 l 1,3,-1
 521 84 l 1,4,-1
 521 0 l 1,5,-1
 73 0 l 1,0,-1
EndSplineSet
EndChar

StartChar: M
Encoding: 77 77 48
Width: 833
GlyphClass: 2
Flags: W
HStem: 0 21G<74 166 366.202 464.945 666 757> 696 20G<74 223.667 623.092 757>
VStem: 74 92<0 609> 666 91<0 599>
AnchorPoint: "Anchor-20" 0 1025 basechar 0
AnchorPoint: "Anchor-19" 833 1025 basechar 0
AnchorPoint: "Anchor-16" 708 0 basechar 0
AnchorPoint: "Anchor-14" 681 713 basechar 0
AnchorPoint: "Anchor-13" 417 -212 basechar 0
AnchorPoint: "Anchor-12" 833 928 basechar 0
AnchorPoint: "Anchor-11" 425 366 basechar 0
AnchorPoint: "Anchor-10" 759 715 basechar 0
AnchorPoint: "Anchor-8" 415 -59 basechar 0
AnchorPoint: "Anchor-7" 757 760 basechar 0
AnchorPoint: "Anchor-6" 415 760 basechar 0
LayerCount: 2
Fore
SplineSet
74 0 m 1,0,-1
 74 716 l 1,1,-1
 217 716 l 1,2,-1
 386 209 l 2,3,4
 409 138 409 138 420 103 c 1,5,6
 432 142 432 142 458 218 c 2,7,-1
 630 716 l 1,8,-1
 757 716 l 1,9,-1
 757 0 l 1,10,-1
 666 0 l 1,11,-1
 666 599 l 1,12,-1
 458 0 l 1,13,-1
 373 0 l 1,14,-1
 166 609 l 1,15,-1
 166 0 l 1,16,-1
 74 0 l 1,0,-1
EndSplineSet
EndChar

StartChar: N
Encoding: 78 78 49
Width: 722
GlyphClass: 2
Flags: W
HStem: 0 21G<76 167 529.619 640> 696 20G<76 186.381 549 640>
VStem: 76 91<0 562> 549 91<154 716>
AnchorPoint: "Anchor-20" 0 1025 basechar 0
AnchorPoint: "Anchor-19" 722 1025 basechar 0
AnchorPoint: "Anchor-16" 566 0 basechar 0
AnchorPoint: "Anchor-15" 354 -24 basechar 0
AnchorPoint: "Anchor-14" 579 713 basechar 0
AnchorPoint: "Anchor-13" 361 -212 basechar 0
AnchorPoint: "Anchor-12" 722 928 basechar 0
AnchorPoint: "Anchor-11" 366 366 basechar 0
AnchorPoint: "Anchor-10" 625 715 basechar 0
AnchorPoint: "Anchor-8" 354 -59 basechar 0
AnchorPoint: "Anchor-7" 623 760 basechar 0
AnchorPoint: "Anchor-6" 354 760 basechar 0
LayerCount: 2
Fore
SplineSet
76 0 m 1,0,-1
 76 716 l 1,1,-1
 173 716 l 1,2,-1
 549 154 l 1,3,-1
 549 716 l 1,4,-1
 640 716 l 1,5,-1
 640 0 l 1,6,-1
 543 0 l 1,7,-1
 167 562 l 1,8,-1
 167 0 l 1,9,-1
 76 0 l 1,0,-1
EndSplineSet
EndChar

StartChar: O
Encoding: 79 79 50
Width: 777
GlyphClass: 2
Flags: W
HStem: -12 81<287.634 493.658> 647 82<288.482 493.445>
VStem: 48 98<220.191 495.438> 635 98<222.763 490.752>
AnchorPoint: "Anchor-20" 0 1025 basechar 0
AnchorPoint: "Anchor-19" 778 1025 basechar 0
AnchorPoint: "Anchor-16" 464 0 basechar 0
AnchorPoint: "Anchor-15" 391 -7 basechar 0
AnchorPoint: "Anchor-14" 537 679 basechar 0
AnchorPoint: "Anchor-13" 389 -212 basechar 0
AnchorPoint: "Anchor-12" 778 928 basechar 0
AnchorPoint: "Anchor-11" 396 366 basechar 0
AnchorPoint: "Anchor-10" 678 584 basechar 0
AnchorPoint: "Anchor-8" 391 -59 basechar 0
AnchorPoint: "Anchor-7" 635 760 basechar 0
AnchorPoint: "Anchor-6" 391 760 basechar 0
LayerCount: 2
Fore
SplineSet
48 349 m 0,0,1
 48 527 48 527 144 628 c 128,-1,2
 240 729 240 729 391 729 c 0,3,4
 490 729 490 729 569.5 681.5 c 128,-1,5
 649 634 649 634 691 549 c 128,-1,6
 733 464 733 464 733 357 c 0,7,8
 733 248 733 248 689 162 c 128,-1,9
 645 76 645 76 564.5 32 c 128,-1,10
 484 -12 484 -12 391 -12 c 0,11,12
 290 -12 290 -12 210 36.5 c 128,-1,13
 130 85 130 85 89 170 c 128,-1,14
 48 255 48 255 48 349 c 0,0,1
146 347 m 0,15,16
 146 218 146 218 215.5 143.5 c 128,-1,17
 285 69 285 69 390 69 c 0,18,19
 497 69 497 69 566 144 c 128,-1,20
 635 219 635 219 635 357 c 0,21,22
 635 444 635 444 605.5 509.5 c 128,-1,23
 576 575 576 575 519 611 c 128,-1,24
 462 647 462 647 392 647 c 0,25,26
 291 647 291 647 218.5 578 c 128,-1,27
 146 509 146 509 146 347 c 0,15,16
EndSplineSet
EndChar

StartChar: P
Encoding: 80 80 51
Width: 666
GlyphClass: 2
Flags: W
HStem: 0 21G<77 172> 291 84<172 466.609> 631 85<172 476.5>
VStem: 77 95<0 291 375 631> 526 98<429.099 580.892>
AnchorPoint: "Anchor-20" 0 1025 basechar 0
AnchorPoint: "Anchor-19" 667 1025 basechar 0
AnchorPoint: "Anchor-16" 112 0 basechar 0
AnchorPoint: "Anchor-14" 527 679 basechar 0
AnchorPoint: "Anchor-13" 333 -212 basechar 0
AnchorPoint: "Anchor-12" 667 928 basechar 0
AnchorPoint: "Anchor-11" 352 513 basechar 0
AnchorPoint: "Anchor-10" 595 584 basechar 0
AnchorPoint: "Anchor-8" 322 -59 basechar 0
AnchorPoint: "Anchor-7" 586 760 basechar 0
AnchorPoint: "Anchor-6" 317 760 basechar 0
LayerCount: 2
Fore
SplineSet
77 0 m 1,0,-1
 77 716 l 1,1,-1
 347 716 l 2,2,3
 418 716 418 716 456 709 c 1,4,5
 509 700 509 700 544.5 675.5 c 128,-1,6
 580 651 580 651 602 606.5 c 128,-1,7
 624 562 624 562 624 509 c 0,8,9
 624 418 624 418 565.5 354.5 c 128,-1,10
 507 291 507 291 355 291 c 2,11,-1
 172 291 l 1,12,-1
 172 0 l 1,13,-1
 77 0 l 1,0,-1
172 375 m 1,14,-1
 357 375 l 2,15,16
 449 375 449 375 487.5 409.5 c 128,-1,17
 526 444 526 444 526 506 c 0,18,19
 526 551 526 551 503 583 c 128,-1,20
 480 615 480 615 443 625 c 0,21,22
 419 631 419 631 355 631 c 2,23,-1
 172 631 l 1,24,-1
 172 375 l 1,14,-1
EndSplineSet
EndChar

StartChar: Q
Encoding: 81 81 52
Width: 777
GlyphClass: 2
Flags: W
HStem: -12 81<283.089 481.038> 647 82<281.291 488.421>
VStem: 43 98<221.367 496.073> 630 98<224.251 491.454>
AnchorPoint: "Anchor-20" 0 1025 basechar 0
AnchorPoint: "Anchor-19" 778 1025 basechar 0
AnchorPoint: "Anchor-16" 459 0 basechar 0
AnchorPoint: "Anchor-14" 571 679 basechar 0
AnchorPoint: "Anchor-13" 389 -212 basechar 0
AnchorPoint: "Anchor-12" 778 928 basechar 0
AnchorPoint: "Anchor-11" 391 366 basechar 0
AnchorPoint: "Anchor-10" 668 584 basechar 0
AnchorPoint: "Anchor-8" 381 -59 basechar 0
AnchorPoint: "Anchor-7" 635 760 basechar 0
AnchorPoint: "Anchor-6" 378 760 basechar 0
LayerCount: 2
Fore
SplineSet
620 77 m 1,0,1
 686 32 686 32 741 10 c 1,2,-1
 713 -56 l 1,3,4
 636 -28 636 -28 560 32 c 1,5,6
 480 -12 480 -12 384 -12 c 0,7,8
 287 -12 287 -12 207.5 35 c 128,-1,9
 128 82 128 82 85.5 166.5 c 128,-1,10
 43 251 43 251 43 358 c 0,11,12
 43 464 43 464 86 551 c 128,-1,13
 129 638 129 638 208.5 683.5 c 128,-1,14
 288 729 288 729 386 729 c 0,15,16
 485 729 485 729 564.5 681.5 c 128,-1,17
 644 634 644 634 686 549.5 c 128,-1,18
 728 465 728 465 728 358 c 0,19,20
 728 270 728 270 701 199.5 c 128,-1,21
 674 129 674 129 620 77 c 1,0,1
411 198 m 1,22,23
 493 175 493 175 546 129 c 1,24,25
 629 205 629 205 630 358 c 0,26,27
 630 445 630 445 600.5 510 c 128,-1,28
 571 575 571 575 514 611 c 128,-1,29
 457 647 457 647 386 647 c 0,30,31
 280 647 280 647 210.5 574.5 c 128,-1,32
 141 502 141 502 141 358 c 0,33,34
 141 218 141 218 210 143.5 c 128,-1,35
 279 69 279 69 386 69 c 0,36,37
 437 69 437 69 482 88 c 1,38,39
 438 117 438 117 388 129 c 1,40,-1
 411 198 l 1,22,23
EndSplineSet
EndChar

StartChar: R
Encoding: 82 82 53
Width: 722
GlyphClass: 2
Flags: W
HStem: 0 21G<79 173 577.383 709> 318 82<173 377.687> 637 79<173 499.916>
VStem: 79 94<0 318 400 637> 553 98<452.882 587.805>
AnchorPoint: "Anchor-20" 0 1025 basechar 0
AnchorPoint: "Anchor-19" 722 1025 basechar 0
AnchorPoint: "Anchor-16" 625 0 basechar 0
AnchorPoint: "Anchor-15" 337 -24 basechar 0
AnchorPoint: "Anchor-14" 542 679 basechar 0
AnchorPoint: "Anchor-13" 361 -212 basechar 0
AnchorPoint: "Anchor-12" 722 928 basechar 0
AnchorPoint: "Anchor-11" 366 513 basechar 0
AnchorPoint: "Anchor-10" 631 584 basechar 0
AnchorPoint: "Anchor-8" 366 -59 basechar 0
AnchorPoint: "Anchor-7" 586 760 basechar 0
AnchorPoint: "Anchor-6" 330 760 basechar 0
LayerCount: 2
Fore
SplineSet
79 0 m 1,0,-1
 79 716 l 1,1,-1
 396 716 l 2,2,3
 492 716 492 716 541.5 696.5 c 128,-1,4
 591 677 591 677 621 628.5 c 128,-1,5
 651 580 651 580 651 521 c 0,6,7
 651 445 651 445 601.5 392.5 c 128,-1,8
 552 340 552 340 449 326 c 1,9,10
 487 308 487 308 506 290 c 0,11,12
 548 252 548 252 585 195 c 1,13,-1
 709 0 l 1,14,-1
 590 0 l 1,15,-1
 496 149 l 2,16,17
 454 213 454 213 427 247.5 c 128,-1,18
 400 282 400 282 379 295.5 c 128,-1,19
 358 309 358 309 336 314 c 1,20,21
 320 317 320 317 283 318 c 2,22,-1
 173 318 l 1,23,-1
 173 0 l 1,24,-1
 79 0 l 1,0,-1
173 400 m 1,25,-1
 377 400 l 2,26,27
 442 400 442 400 478.5 413.5 c 128,-1,28
 515 427 515 427 534 456.5 c 128,-1,29
 553 486 553 486 553 521 c 0,30,31
 553 572 553 572 516 604.5 c 128,-1,32
 479 637 479 637 400 637 c 2,33,-1
 173 637 l 1,34,-1
 173 400 l 1,25,-1
EndSplineSet
EndChar

StartChar: S
Encoding: 83 83 54
Width: 666
GlyphClass: 2
Flags: W
HStem: -12 85<234.175 454.798> 645 83<217.65 432.847>
VStem: 45 89<163.769 230> 72 92<479.441 596.336> 502 91<514 577.269> 523 92<131.019 255.115>
AnchorPoint: "Anchor-20" 0 1025 basechar 0
AnchorPoint: "Anchor-19" 667 1025 basechar 0
AnchorPoint: "Anchor-16" 420 0 basechar 0
AnchorPoint: "Anchor-15" 317 -7 basechar 0
AnchorPoint: "Anchor-14" 469 679 basechar 0
AnchorPoint: "Anchor-13" 333 -212 basechar 0
AnchorPoint: "Anchor-12" 667 928 basechar 0
AnchorPoint: "Anchor-11" 332 366 basechar 0
AnchorPoint: "Anchor-10" 560 583 basechar 0
AnchorPoint: "Anchor-8" 322 -59 basechar 0
AnchorPoint: "Anchor-7" 537 760 basechar 0
AnchorPoint: "Anchor-6" 330 760 basechar 0
LayerCount: 2
Fore
SplineSet
45 230 m 1,0,-1
 134 238 l 1,1,2
 140 184 140 184 163.5 149.5 c 128,-1,3
 187 115 187 115 236 94 c 128,-1,4
 285 73 285 73 346 73 c 0,5,6
 400 73 400 73 441.5 89 c 128,-1,7
 483 105 483 105 503 133 c 128,-1,8
 523 161 523 161 523 194 c 0,9,10
 523 228 523 228 503.5 253 c 128,-1,11
 484 278 484 278 439 295 c 0,12,13
 410 306 410 306 311.5 330 c 128,-1,14
 213 354 213 354 174 375 c 0,15,16
 123 402 123 402 97.5 441.5 c 128,-1,17
 72 481 72 481 72 531 c 0,18,19
 72 585 72 585 103 632 c 128,-1,20
 134 679 134 679 193 703.5 c 128,-1,21
 252 728 252 728 324 728 c 0,22,23
 404 728 404 728 464.5 702.5 c 128,-1,24
 525 677 525 677 558 627 c 128,-1,25
 591 577 591 577 593 514 c 1,26,-1
 502 507 l 1,27,28
 495 575 495 575 453 610 c 128,-1,29
 411 645 411 645 328 645 c 0,30,31
 242 645 242 645 203 613.5 c 128,-1,32
 164 582 164 582 164 537 c 0,33,34
 164 498 164 498 191 474 c 0,35,36
 218 449 218 449 334 422.5 c 128,-1,37
 450 396 450 396 493 377 c 0,38,39
 555 348 555 348 585 304 c 128,-1,40
 615 260 615 260 615 202 c 0,41,42
 615 145 615 145 582 94.5 c 128,-1,43
 549 44 549 44 488 16 c 128,-1,44
 427 -12 427 -12 350 -12 c 0,45,46
 253 -12 253 -12 187.5 16 c 128,-1,47
 122 44 122 44 84.5 101 c 128,-1,48
 47 158 47 158 45 230 c 1,0,-1
EndSplineSet
EndChar

StartChar: T
Encoding: 84 84 55
Width: 610
GlyphClass: 2
Flags: W
HStem: 0 21G<259 354> 631 85<23 259 354 591>
VStem: 259 95<0 631>
AnchorPoint: "Anchor-20" 0 1025 basechar 0
AnchorPoint: "Anchor-19" 611 1025 basechar 0
AnchorPoint: "Anchor-16" 293 0 basechar 0
AnchorPoint: "Anchor-15" 303 0 basechar 0
AnchorPoint: "Anchor-14" 552 713 basechar 0
AnchorPoint: "Anchor-13" 305 -212 basechar 0
AnchorPoint: "Anchor-12" 611 928 basechar 0
AnchorPoint: "Anchor-11" 300 366 basechar 0
AnchorPoint: "Anchor-10" 579 715 basechar 0
AnchorPoint: "Anchor-8" 308 -59 basechar 0
AnchorPoint: "Anchor-7" 586 760 basechar 0
AnchorPoint: "Anchor-6" 305 760 basechar 0
LayerCount: 2
Fore
SplineSet
259 0 m 1,0,-1
 259 631 l 1,1,-1
 23 631 l 1,2,-1
 23 716 l 1,3,-1
 591 716 l 1,4,-1
 591 631 l 1,5,-1
 354 631 l 1,6,-1
 354 0 l 1,7,-1
 259 0 l 1,0,-1
EndSplineSet
EndChar

StartChar: U
Encoding: 85 85 56
Width: 722
GlyphClass: 2
Flags: W
HStem: -12 85<254.544 466.213> 696 20G<79 173 547 642>
VStem: 79 94<156.011 716> 547 95<158.732 716>
AnchorPoint: "Anchor-20" 0 1025 basechar 0
AnchorPoint: "Anchor-19" 722 1025 basechar 0
AnchorPoint: "Anchor-16" 420 0 basechar 0
AnchorPoint: "Anchor-15" 354 -7 basechar 0
AnchorPoint: "Anchor-14" 586 713 basechar 0
AnchorPoint: "Anchor-13" 361 -212 basechar 0
AnchorPoint: "Anchor-12" 722 928 basechar 0
AnchorPoint: "Anchor-11" 356 366 basechar 0
AnchorPoint: "Anchor-10" 630 715 basechar 0
AnchorPoint: "Anchor-8" 354 -59 basechar 0
AnchorPoint: "Anchor-7" 625 760 basechar 0
AnchorPoint: "Anchor-6" 354 760 basechar 0
LayerCount: 2
Fore
SplineSet
547 716 m 1,0,-1
 642 716 l 1,1,-1
 642 302 l 2,2,3
 642 194 642 194 617.5 130.5 c 128,-1,4
 593 67 593 67 529 27.5 c 128,-1,5
 465 -12 465 -12 362 -12 c 0,6,7
 261 -12 261 -12 197 22.5 c 128,-1,8
 133 57 133 57 106 122.5 c 128,-1,9
 79 188 79 188 79 302 c 2,10,-1
 79 716 l 1,11,-1
 173 716 l 1,12,-1
 173 303 l 2,13,14
 173 210 173 210 190.5 165.5 c 128,-1,15
 208 121 208 121 250 97 c 128,-1,16
 292 73 292 73 354 73 c 0,17,18
 458 73 458 73 502.5 120.5 c 128,-1,19
 547 168 547 168 547 303 c 2,20,-1
 547 716 l 1,0,-1
EndSplineSet
EndChar

StartChar: V
Encoding: 86 86 57
Width: 666
GlyphClass: 2
Flags: W
HStem: 0 21G<274.235 386.821> 696 20G<4 114.154 554.577 659>
AnchorPoint: "Anchor-20" 0 1025 basechar 0
AnchorPoint: "Anchor-19" 667 1025 basechar 0
AnchorPoint: "Anchor-16" 322 0 basechar 0
AnchorPoint: "Anchor-14" 593 713 basechar 0
AnchorPoint: "Anchor-13" 333 -212 basechar 0
AnchorPoint: "Anchor-12" 667 928 basechar 0
AnchorPoint: "Anchor-11" 332 366 basechar 0
AnchorPoint: "Anchor-10" 634 715 basechar 0
AnchorPoint: "Anchor-8" 332 -59 basechar 0
AnchorPoint: "Anchor-7" 647 760 basechar 0
AnchorPoint: "Anchor-6" 330 760 basechar 0
LayerCount: 2
Fore
SplineSet
282 0 m 1,0,-1
 4 716 l 1,1,-1
 107 716 l 1,2,-1
 293 196 l 2,3,4
 315 134 315 134 331 79 c 1,5,6
 348 138 348 138 369 196 c 2,7,-1
 562 716 l 1,8,-1
 659 716 l 1,9,-1
 379 0 l 1,10,-1
 282 0 l 1,0,-1
EndSplineSet
EndChar

StartChar: W
Encoding: 87 87 58
Width: 943
GlyphClass: 2
Flags: W
HStem: 0 21G<196.693 304.578 639.459 741.503> 696 20G<12 113.648 411.38 536.691 832.13 933>
AnchorPoint: "Anchor-20" 0 1025 basechar 0
AnchorPoint: "Anchor-19" 944 1025 basechar 0
AnchorPoint: "Anchor-16" 679 0 basechar 0
AnchorPoint: "Anchor-14" 886 713 basechar 0
AnchorPoint: "Anchor-13" 472 -212 basechar 0
AnchorPoint: "Anchor-12" 944 928 basechar 0
AnchorPoint: "Anchor-11" 474 366 basechar 0
AnchorPoint: "Anchor-10" 911 715 basechar 0
AnchorPoint: "Anchor-8" 476 -59 basechar 0
AnchorPoint: "Anchor-7" 928 760 basechar 0
AnchorPoint: "Anchor-6" 469 760 basechar 0
LayerCount: 2
Fore
SplineSet
202 0 m 1,0,-1
 12 716 l 1,1,-1
 109 716 l 1,2,-1
 218 247 l 2,3,4
 236 173 236 173 249 100 c 1,5,6
 276 215 276 215 281 232 c 2,7,-1
 417 716 l 1,8,-1
 531 716 l 1,9,-1
 634 354 l 2,10,11
 673 219 673 219 689 100 c 1,12,13
 703 168 703 168 725 256 c 1,14,-1
 837 716 l 1,15,-1
 933 716 l 1,16,-1
 736 0 l 1,17,-1
 645 0 l 1,18,-1
 494 545 l 2,19,20
 475 613 475 613 472 629 c 1,21,22
 461 580 461 580 451 545 c 2,23,-1
 299 0 l 1,24,-1
 202 0 l 1,0,-1
EndSplineSet
EndChar

StartChar: X
Encoding: 88 88 59
Width: 666
GlyphClass: 2
Flags: W
HStem: 0 21G<4 132.4 528.882 661> 696 20G<37 164.13 522.842 641>
AnchorPoint: "Anchor-20" 0 1025 basechar 0
AnchorPoint: "Anchor-19" 667 1025 basechar 0
AnchorPoint: "Anchor-16" 581 0 basechar 0
AnchorPoint: "Anchor-14" 564 713 basechar 0
AnchorPoint: "Anchor-13" 333 -212 basechar 0
AnchorPoint: "Anchor-12" 667 928 basechar 0
AnchorPoint: "Anchor-11" 332 366 basechar 0
AnchorPoint: "Anchor-10" 579 715 basechar 0
AnchorPoint: "Anchor-8" 330 -59 basechar 0
AnchorPoint: "Anchor-7" 635 760 basechar 0
AnchorPoint: "Anchor-6" 332 760 basechar 0
LayerCount: 2
Fore
SplineSet
4 0 m 1,0,-1
 281 373 l 1,1,-1
 37 716 l 1,2,-1
 150 716 l 1,3,-1
 280 532 l 2,4,5
 321 475 321 475 337 444 c 1,6,7
 361 483 361 483 394 526 c 2,8,-1
 538 716 l 1,9,-1
 641 716 l 1,10,-1
 390 378 l 1,11,-1
 661 0 l 1,12,-1
 543 0 l 1,13,-1
 363 255 l 2,14,15
 348 277 348 277 332 303 c 1,16,17
 308 264 308 264 298 250 c 2,18,-1
 118 0 l 1,19,-1
 4 0 l 1,0,-1
EndSplineSet
EndChar

StartChar: Y
Encoding: 89 89 60
Width: 666
GlyphClass: 2
Flags: W
HStem: 0 21G<279 374> 696 20G<3 131.056 535.825 659>
VStem: 279 95<0 303>
AnchorPoint: "Anchor-20" 0 1025 basechar 0
AnchorPoint: "Anchor-19" 667 1025 basechar 0
AnchorPoint: "Anchor-16" 317 0 basechar 0
AnchorPoint: "Anchor-14" 571 713 basechar 0
AnchorPoint: "Anchor-13" 333 -212 basechar 0
AnchorPoint: "Anchor-12" 667 928 basechar 0
AnchorPoint: "Anchor-11" 330 366 basechar 0
AnchorPoint: "Anchor-10" 611 715 basechar 0
AnchorPoint: "Anchor-8" 325 -59 basechar 0
AnchorPoint: "Anchor-7" 647 760 basechar 0
AnchorPoint: "Anchor-6" 330 760 basechar 0
LayerCount: 2
Fore
SplineSet
279 0 m 1,0,-1
 279 303 l 1,1,-1
 3 716 l 1,2,-1
 118 716 l 1,3,-1
 259 500 l 2,4,5
 298 439 298 439 332 379 c 1,6,7
 364 435 364 435 410 505 c 2,8,-1
 549 716 l 1,9,-1
 659 716 l 1,10,-1
 374 303 l 1,11,-1
 374 0 l 1,12,-1
 279 0 l 1,0,-1
EndSplineSet
EndChar

StartChar: Z
Encoding: 90 90 61
Width: 610
GlyphClass: 2
Flags: W
HStem: 0 84<129 586> 631 85<62 461>
AnchorPoint: "Anchor-20" 0 1025 basechar 0
AnchorPoint: "Anchor-19" 611 1025 basechar 0
AnchorPoint: "Anchor-16" 513 0 basechar 0
AnchorPoint: "Anchor-14" 520 713 basechar 0
AnchorPoint: "Anchor-13" 305 -212 basechar 0
AnchorPoint: "Anchor-12" 611 928 basechar 0
AnchorPoint: "Anchor-11" 293 366 basechar 0
AnchorPoint: "Anchor-10" 560 715 basechar 0
AnchorPoint: "Anchor-8" 305 -59 basechar 0
AnchorPoint: "Anchor-7" 574 760 basechar 0
AnchorPoint: "Anchor-6" 305 764 basechar 0
LayerCount: 2
Fore
SplineSet
20 0 m 1,0,-1
 20 88 l 1,1,-1
 387 546 l 2,2,3
 426 595 426 595 461 631 c 1,4,-1
 62 631 l 1,5,-1
 62 716 l 1,6,-1
 574 716 l 1,7,-1
 574 631 l 1,8,-1
 172 135 l 1,9,-1
 129 84 l 1,10,-1
 586 84 l 1,11,-1
 586 0 l 1,12,-1
 20 0 l 1,0,-1
EndSplineSet
EndChar

StartChar: bracketleft
Encoding: 91 91 62
Width: 277
GlyphClass: 2
Flags: W
HStem: -199 73<156 262> 643 73<156 262>
VStem: 68 194<-199 -126 643 716> 68 88<-126 643>
LayerCount: 2
Fore
SplineSet
68 -199 m 1,0,-1
 68 716 l 1,1,-1
 262 716 l 1,2,-1
 262 643 l 1,3,-1
 156 643 l 1,4,-1
 156 -126 l 1,5,-1
 262 -126 l 1,6,-1
 262 -199 l 1,7,-1
 68 -199 l 1,0,-1
EndSplineSet
EndChar

StartChar: backslash
Encoding: 92 92 63
Width: 277
GlyphClass: 2
Flags: W
HStem: -12 21G<202.378 278> 708 20G<0 76.5946>
VStem: 0 278
LayerCount: 2
Fore
SplineSet
208 -12 m 1,0,-1
 0 728 l 1,1,-1
 71 728 l 1,2,-1
 278 -12 l 1,3,-1
 208 -12 l 1,0,-1
EndSplineSet
EndChar

StartChar: bracketright
Encoding: 93 93 64
Width: 277
GlyphClass: 2
Flags: W
HStem: -199 73<19 125> 643 73<19 125>
VStem: 19 194<-199 -126 643 716> 125 88<-126 643>
LayerCount: 2
Fore
SplineSet
213 -199 m 1,0,-1
 19 -199 l 1,1,-1
 19 -126 l 1,2,-1
 125 -126 l 1,3,-1
 125 643 l 1,4,-1
 19 643 l 1,5,-1
 19 716 l 1,6,-1
 213 716 l 1,7,-1
 213 -199 l 1,0,-1
EndSplineSet
EndChar

StartChar: asciicircum
Encoding: 94 94 65
Width: 469
GlyphClass: 2
Flags: W
HStem: 708 20G<190.151 278.849>
LayerCount: 2
Fore
SplineSet
117 337 m 1,0,-1
 26 337 l 1,1,-1
 199 728 l 1,2,-1
 270 728 l 1,3,-1
 443 337 l 1,4,-1
 354 337 l 1,5,-1
 234 628 l 1,6,-1
 117 337 l 1,0,-1
EndSplineSet
EndChar

StartChar: underscore
Encoding: 95 95 66
Width: 556
GlyphClass: 2
Flags: W
HStem: -199 64<-15 567>
LayerCount: 2
Fore
SplineSet
-15 -199 m 1,0,-1
 -15 -135 l 1,1,-1
 567 -135 l 1,2,-1
 567 -199 l 1,3,-1
 -15 -199 l 1,0,-1
EndSplineSet
EndChar

StartChar: grave
Encoding: 0 96 67
Width: 333
GlyphClass: 2
Flags: W
HStem: 583 137<156 161>
VStem: 43 184
LayerCount: 2
Fore
SplineSet
227 583 m 1,0,-1
 156 583 l 1,1,-1
 43 720 l 1,2,-1
 161 720 l 1,3,-1
 227 583 l 1,0,-1
EndSplineSet
EndChar

StartChar: a
Encoding: 97 97 68
Width: 556
GlyphClass: 2
Flags: W
HStem: -12 69<159.105 321.666> 0 21G<415 514> 260 69<320.676 397> 458 72<181.73 361.429>
VStem: 36 94<85.6285 193.432> 397 89<126.295 260 322.766 425.867>
AnchorPoint: "Anchor-20" 0 1025 basechar 0
AnchorPoint: "Anchor-19" 556 1025 basechar 0
AnchorPoint: "Anchor-16" 459 0 basechar 0
AnchorPoint: "Anchor-15" 244 -7 basechar 0
AnchorPoint: "Anchor-14" 427 454 basechar 0
AnchorPoint: "Anchor-13" 278 -212 basechar 0
AnchorPoint: "Anchor-12" 556 928 basechar 0
AnchorPoint: "Anchor-11" 271 159 basechar 0
AnchorPoint: "Anchor-10" 454 454 basechar 0
AnchorPoint: "Anchor-8" 273 -59 basechar 0
AnchorPoint: "Anchor-7" 454 595 basechar 0
AnchorPoint: "Anchor-6" 266 595 basechar 0
LayerCount: 2
Fore
SplineSet
404 64 m 1,0,1
 355 22 355 22 310 5 c 128,-1,2
 265 -12 265 -12 213 -12 c 0,3,4
 128 -12 128 -12 82 30 c 128,-1,5
 36 72 36 72 36 137 c 0,6,7
 36 175 36 175 53.5 206.5 c 128,-1,8
 71 238 71 238 99 257 c 128,-1,9
 127 276 127 276 162 286 c 0,10,11
 188 293 188 293 240 299 c 0,12,13
 346 312 346 312 397 329 c 1,14,15
 397 347 397 347 397 352 c 0,16,17
 397 406 397 406 373 428 c 0,18,19
 339 458 339 458 272 458 c 0,20,21
 210 458 210 458 180.5 436 c 128,-1,22
 151 414 151 414 137 359 c 1,23,-1
 51 371 l 1,24,25
 63 426 63 426 90 460 c 128,-1,26
 117 494 117 494 167.5 512 c 128,-1,27
 218 530 218 530 285 530 c 0,28,29
 351 530 351 530 393 514.5 c 128,-1,30
 435 499 435 499 454.5 475.5 c 128,-1,31
 474 452 474 452 481 416 c 0,32,33
 485 394 485 394 486 334 c 2,34,-1
 486 217 l 2,35,36
 486 94 486 94 491.5 62 c 128,-1,37
 497 30 497 30 514 0 c 1,38,-1
 422 0 l 1,39,40
 408 27 408 27 404 64 c 1,0,1
397 260 m 1,41,42
 349 240 349 240 253 227 c 0,43,44
 199 219 199 219 176.5 209.5 c 128,-1,45
 154 200 154 200 142 181 c 128,-1,46
 130 162 130 162 130 139 c 0,47,48
 130 104 130 104 156.5 80.5 c 128,-1,49
 183 57 183 57 234 57 c 128,-1,50
 285 57 285 57 324.5 79.5 c 128,-1,51
 364 102 364 102 383 140 c 0,52,53
 397 170 397 170 397 228 c 2,54,-1
 397 260 l 1,41,42
EndSplineSet
EndChar

StartChar: b
Encoding: 98 98 69
Width: 556
GlyphClass: 2
Flags: W
HStem: -12 73<213.539 351.178> 0 21G<65 147> 458 72<218.746 357.081> 696 20G<65 153>
VStem: 65 88<0 65 123.817 389.483> 425 90<142.811 380.418>
AnchorPoint: "Anchor-20" 0 1025 basechar 0
AnchorPoint: "Anchor-19" 556 1025 basechar 0
AnchorPoint: "Anchor-18" 415 59 basechar 0
AnchorPoint: "Anchor-17" 415 59 basechar 0
AnchorPoint: "Anchor-16" 347 0 basechar 0
AnchorPoint: "Anchor-14" 427 454 basechar 0
AnchorPoint: "Anchor-13" 278 -212 basechar 0
AnchorPoint: "Anchor-12" 556 928 basechar 0
AnchorPoint: "Anchor-11" 288 269 basechar 0
AnchorPoint: "Anchor-10" 476 454 basechar 0
AnchorPoint: "Anchor-8" 273 -59 basechar 0
AnchorPoint: "Anchor-7" 474 760 basechar 0
AnchorPoint: "Anchor-6" 266 760 basechar 0
LayerCount: 2
Fore
SplineSet
147 0 m 1,0,-1
 65 0 l 1,1,-1
 65 716 l 1,2,-1
 153 716 l 1,3,-1
 153 460 l 1,4,5
 209 530 209 530 295 530 c 0,6,7
 343 530 343 530 386 511 c 128,-1,8
 429 492 429 492 456.5 457 c 128,-1,9
 484 422 484 422 499.5 372.5 c 128,-1,10
 515 323 515 323 515 267 c 0,11,12
 515 134 515 134 449 61 c 128,-1,13
 383 -12 383 -12 291 -12 c 128,-1,14
 199 -12 199 -12 147 65 c 1,15,-1
 147 0 l 1,0,-1
146 263 m 0,16,17
 146 170 146 170 171 128 c 0,18,19
 213 60 213 60 284 61 c 0,20,21
 342 61 342 61 383.5 111 c 128,-1,22
 425 161 425 161 425 260 c 0,23,24
 425 362 425 362 385 410 c 128,-1,25
 345 458 345 458 288 458 c 0,26,27
 230 458 230 458 188 408 c 128,-1,28
 146 358 146 358 146 263 c 0,16,17
EndSplineSet
EndChar

StartChar: c
Encoding: 99 99 70
Width: 500
GlyphClass: 2
Flags: W
HStem: -12 73<198.193 347.357> 458 72<201.094 347.616>
VStem: 39 90<138.372 379.514> 404 87<119.939 179.885>
AnchorPoint: "Anchor-20" 0 1025 basechar 0
AnchorPoint: "Anchor-19" 500 1025 basechar 0
AnchorPoint: "Anchor-18" 391 51 basechar 0
AnchorPoint: "Anchor-17" 391 51 basechar 0
AnchorPoint: "Anchor-16" 332 0 basechar 0
AnchorPoint: "Anchor-15" 273 -7 basechar 0
AnchorPoint: "Anchor-14" 427 454 basechar 0
AnchorPoint: "Anchor-13" 250 -212 basechar 0
AnchorPoint: "Anchor-12" 500 928 basechar 0
AnchorPoint: "Anchor-11" 271 269 basechar 0
AnchorPoint: "Anchor-10" 453 442 basechar 0
AnchorPoint: "Anchor-8" 273 -59 basechar 0
AnchorPoint: "Anchor-7" 439 595 basechar 0
AnchorPoint: "Anchor-6" 269 595 basechar 0
LayerCount: 2
Fore
SplineSet
404 190 m 1,0,-1
 491 179 l 1,1,2
 477 90 477 90 418.5 39 c 128,-1,3
 360 -12 360 -12 275 -12 c 0,4,5
 169 -12 169 -12 104 57.5 c 128,-1,6
 39 127 39 127 39 257 c 0,7,8
 39 341 39 341 67 404 c 128,-1,9
 95 467 95 467 151.5 498.5 c 128,-1,10
 208 530 208 530 275 530 c 0,11,12
 359 530 359 530 413 487.5 c 128,-1,13
 467 445 467 445 482 366 c 1,14,-1
 397 353 l 1,15,16
 385 405 385 405 354 431.5 c 128,-1,17
 323 458 323 458 279 458 c 0,18,19
 213 458 213 458 171 410.5 c 128,-1,20
 129 363 129 363 129 260 c 0,21,22
 129 156 129 156 169 108.5 c 128,-1,23
 209 61 209 61 274 61 c 0,24,25
 326 61 326 61 360.5 92.5 c 128,-1,26
 395 124 395 124 404 190 c 1,0,-1
EndSplineSet
EndChar

StartChar: d
Encoding: 100 100 71
Width: 556
GlyphClass: 2
Flags: W
HStem: -12 73<196.351 336.242> 0 21G<402 484> 458 72<191.936 332.452> 696 20G<396 484>
VStem: 34 91<141.57 382.274> 396 88<-nan 716>
AnchorPoint: "Anchor-20" 0 1025 basechar 0
AnchorPoint: "Anchor-19" 556 1025 basechar 0
AnchorPoint: "Anchor-18" 444 0 basechar 0
AnchorPoint: "Anchor-17" 444 0 basechar 0
AnchorPoint: "Anchor-16" 439 0 basechar 0
AnchorPoint: "Anchor-14" 447 713 basechar 0
AnchorPoint: "Anchor-13" 278 -212 basechar 0
AnchorPoint: "Anchor-12" 556 928 basechar 0
AnchorPoint: "Anchor-11" 271 269 basechar 0
AnchorPoint: "Anchor-10" 479 712 basechar 0
AnchorPoint: "Anchor-8" 269 -59 basechar 0
AnchorPoint: "Anchor-7" 537 760 basechar 0
AnchorPoint: "Anchor-6" 259 760 basechar 0
LayerCount: 2
Fore
SplineSet
402 0 m 1,0,-1
 402 65 l 1,1,2
 353 -12 353 -12 257 -12 c 0,3,4
 195 -12 195 -12 143 22.5 c 128,-1,5
 91 57 91 57 62.5 118 c 128,-1,6
 34 179 34 179 34 259 c 0,7,8
 34 337 34 337 60 400 c 128,-1,9
 86 463 86 463 137.5 496.5 c 128,-1,10
 189 530 189 530 253 530 c 0,11,12
 300 530 300 530 337 510.5 c 128,-1,13
 374 491 374 491 396 459 c 1,14,-1
 396 716 l 1,15,-1
 484 716 l 1,16,-1
 484 0 l 1,17,-1
 402 0 l 1,0,-1
125 259 m 0,18,19
 125 159 125 159 166.5 110 c 128,-1,20
 208 61 208 61 266 61 c 128,-1,21
 324 61 324 61 364 108 c 128,-1,22
 404 155 404 155 404 251 c 0,23,24
 404 357 404 357 363 407.5 c 128,-1,25
 322 458 322 458 262 458 c 0,26,27
 203 458 203 458 164 410 c 128,-1,28
 125 362 125 362 125 259 c 0,18,19
EndSplineSet
EndChar

StartChar: e
Encoding: 101 101 72
Width: 556
GlyphClass: 2
Flags: W
HStem: -12 73<204.983 361.794> 237 72<132 422> 458 72<200.902 355.811>
VStem: 37 90<146.18 237 309 376.799>
AnchorPoint: "Anchor-20" 0 1025 basechar 0
AnchorPoint: "Anchor-19" 556 1025 basechar 0
AnchorPoint: "Anchor-16" 352 0 basechar 0
AnchorPoint: "Anchor-15" 283 -7 basechar 0
AnchorPoint: "Anchor-14" 427 454 basechar 0
AnchorPoint: "Anchor-13" 278 -212 basechar 0
AnchorPoint: "Anchor-12" 556 928 basechar 0
AnchorPoint: "Anchor-11" 278 269 basechar 0
AnchorPoint: "Anchor-10" 469 454 basechar 0
AnchorPoint: "Anchor-8" 283 -59 basechar 0
AnchorPoint: "Anchor-7" 476 595 basechar 0
AnchorPoint: "Anchor-6" 283 595 basechar 0
LayerCount: 2
Fore
SplineSet
421 167 m 1,0,-1
 512 156 l 1,1,2
 491 76 491 76 432.5 32 c 128,-1,3
 374 -12 374 -12 284 -12 c 0,4,5
 170 -12 170 -12 103.5 58 c 128,-1,6
 37 128 37 128 37 255 c 0,7,8
 37 386 37 386 104 458 c 128,-1,9
 171 530 171 530 279 530 c 0,10,11
 383 530 383 530 449 459.5 c 128,-1,12
 515 389 515 389 515 260 c 0,13,14
 515 252 515 252 514 237 c 1,15,-1
 127 237 l 1,16,17
 132 152 132 152 175.5 106.5 c 128,-1,18
 219 61 219 61 284 61 c 0,19,20
 332 61 332 61 366.5 86 c 128,-1,21
 401 111 401 111 421 167 c 1,0,-1
132 309 m 1,22,-1
 422 309 l 1,23,24
 416 374 416 374 389 407 c 0,25,26
 347 458 347 458 280 458 c 0,27,28
 219 458 219 458 177.5 417.5 c 128,-1,29
 136 377 136 377 132 309 c 1,22,-1
EndSplineSet
EndChar

StartChar: f
Encoding: 102 102 73
Width: 277
GlyphClass: 2
Flags: W
HStem: 0 21G<87 174> 450 69<9 87 174 275> 647 81<191.537 298.157>
VStem: 87 87<0 450 519 629.461>
AnchorPoint: "Anchor-20" 0 1025 basechar 0
AnchorPoint: "Anchor-19" 278 1025 basechar 0
AnchorPoint: "Anchor-18" 127 0 basechar 0
AnchorPoint: "Anchor-17" 127 0 basechar 0
AnchorPoint: "Anchor-16" 122 0 basechar 0
AnchorPoint: "Anchor-14" 249 713 basechar 0
AnchorPoint: "Anchor-13" 139 -212 basechar 0
AnchorPoint: "Anchor-12" 278 928 basechar 0
AnchorPoint: "Anchor-11" 127 269 basechar 0
AnchorPoint: "Anchor-10" 290 724 basechar 0
AnchorPoint: "Anchor-8" 129 -59 basechar 0
AnchorPoint: "Anchor-7" 342 760 basechar 0
AnchorPoint: "Anchor-6" 195 760 basechar 0
LayerCount: 2
Fore
SplineSet
87 0 m 1,0,-1
 87 450 l 1,1,-1
 9 450 l 1,2,-1
 9 519 l 1,3,-1
 87 519 l 1,4,-1
 87 574 l 2,5,6
 87 626 87 626 96 651 c 0,7,8
 109 685 109 685 141 706.5 c 128,-1,9
 173 728 173 728 230 728 c 0,10,11
 266 728 266 728 312 719 c 1,12,-1
 299 643 l 1,13,14
 272 648 272 648 248 647 c 0,15,16
 208 647 208 647 191 630 c 128,-1,17
 174 613 174 613 174 566 c 2,18,-1
 174 519 l 1,19,-1
 275 519 l 1,20,-1
 275 450 l 1,21,-1
 174 450 l 1,22,-1
 174 0 l 1,23,-1
 87 0 l 1,0,-1
EndSplineSet
EndChar

StartChar: g
Encoding: 103 103 74
Width: 556
GlyphClass: 2
Flags: W
HStem: -210 72<170.648 344.544> 0 73<193.073 338.214> 458 72<192.285 334.549> 499 20G<408 489>
VStem: 32 91<149.579 381.524> 408 81<149.888 376.605 456 519>
AnchorPoint: "Anchor-20" 0 1025 basechar 0
AnchorPoint: "Anchor-19" 556 1025 basechar 0
AnchorPoint: "Anchor-18" 366 -161 basechar 0
AnchorPoint: "Anchor-17" 366 -161 basechar 0
AnchorPoint: "Anchor-16" 342 -195 basechar 0
AnchorPoint: "Anchor-15" 259 -205 basechar 0
AnchorPoint: "Anchor-14" 447 513 basechar 0
AnchorPoint: "Anchor-13" 278 -212 basechar 0
AnchorPoint: "Anchor-12" 556 928 basechar 0
AnchorPoint: "Anchor-11" 269 269 basechar 0
AnchorPoint: "Anchor-10" 486 517 basechar 0
AnchorPoint: "Anchor-8" 269 -269 basechar 0
AnchorPoint: "Anchor-7" 513 595 basechar 0
AnchorPoint: "Anchor-6" 269 595 basechar 0
LayerCount: 2
Fore
SplineSet
50 -43 m 1,0,-1
 135 -56 l 1,1,2
 140 -96 140 -96 165 -113 c 0,3,4
 198 -137 198 -137 254 -138 c 0,5,6
 315 -138 315 -138 348.5 -113.5 c 128,-1,7
 382 -89 382 -89 394 -45 c 0,8,9
 400 -20 400 -20 400 57 c 2,10,-1
 400 68 l 1,11,12
 342 0 342 0 256 0 c 0,13,14
 149 0 149 0 90.5 77 c 128,-1,15
 32 154 32 154 32 262 c 0,16,17
 32 336 32 336 59 399 c 128,-1,18
 86 462 86 462 137 496 c 128,-1,19
 188 530 188 530 257 530 c 0,20,21
 349 530 349 530 408 456 c 1,22,-1
 408 519 l 1,23,-1
 489 519 l 1,24,-1
 489 70 l 2,25,26
 489 -51 489 -51 464.5 -101.5 c 128,-1,27
 440 -152 440 -152 386.5 -181 c 128,-1,28
 333 -210 333 -210 255 -210 c 0,29,30
 162 -210 162 -210 105 -168 c 0,31,32
 50 -128 50 -128 50 -48 c 2,33,-1
 50 -43 l 1,0,-1
123 269 m 0,34,35
 123 167 123 167 163.5 120 c 128,-1,36
 204 73 204 73 265 73 c 128,-1,37
 326 73 326 73 366.5 119.5 c 128,-1,38
 407 166 407 166 407 266 c 0,39,40
 407 361 407 361 365 409.5 c 128,-1,41
 323 458 323 458 263 458 c 0,42,43
 204 458 204 458 163.5 410.5 c 128,-1,44
 123 363 123 363 123 269 c 0,34,35
EndSplineSet
EndChar

StartChar: h
Encoding: 104 104 75
Width: 556
GlyphClass: 2
Flags: W
HStem: 0 21G<66 154 400 488> 455 75<215.958 361.785> 696 20G<66 154>
VStem: 66 88<0 393.924 459 716> 400 88<0 416.484>
AnchorPoint: "Anchor-20" 0 1025 basechar 0
AnchorPoint: "Anchor-19" 556 1025 basechar 0
AnchorPoint: "Anchor-18" 435 51 basechar 0
AnchorPoint: "Anchor-17" 435 0 basechar 0
AnchorPoint: "Anchor-16" 425 0 basechar 0
AnchorPoint: "Anchor-14" 427 454 basechar 0
AnchorPoint: "Anchor-13" 278 -212 basechar 0
AnchorPoint: "Anchor-12" 556 928 basechar 0
AnchorPoint: "Anchor-11" 112 586 basechar 0
AnchorPoint: "Anchor-10" 464 454 basechar 0
AnchorPoint: "Anchor-8" 269 -59 basechar 0
AnchorPoint: "Anchor-7" 474 760 basechar 0
AnchorPoint: "Anchor-6" 283 760 basechar 0
LayerCount: 2
Fore
SplineSet
66 0 m 1,0,-1
 66 716 l 1,1,-1
 154 716 l 1,2,-1
 154 459 l 1,3,4
 216 530 216 530 309 530 c 0,5,6
 367 530 367 530 409.5 507.5 c 128,-1,7
 452 485 452 485 470 445 c 128,-1,8
 488 405 488 405 488 329 c 2,9,-1
 488 0 l 1,10,-1
 400 0 l 1,11,-1
 400 329 l 2,12,13
 400 395 400 395 371.5 425 c 128,-1,14
 343 455 343 455 291 455 c 0,15,16
 252 455 252 455 217.5 434.5 c 128,-1,17
 183 414 183 414 168.5 379.5 c 128,-1,18
 154 345 154 345 154 284 c 2,19,-1
 154 0 l 1,20,-1
 66 0 l 1,0,-1
EndSplineSet
EndChar

StartChar: i
Encoding: 105 105 76
Width: 222
GlyphClass: 2
Flags: W
HStem: 0 21G<66 154> 499 20G<66 154> 615 101<66 154>
VStem: 66 88<0 519 615 716>
AnchorPoint: "Anchor-20" 0 1025 basechar 0
AnchorPoint: "Anchor-19" 222 1025 basechar 0
AnchorPoint: "Anchor-16" 103 0 basechar 0
AnchorPoint: "Anchor-15" 107 0 basechar 0
AnchorPoint: "Anchor-14" 125 513 basechar 0
AnchorPoint: "Anchor-13" 111 -212 basechar 0
AnchorPoint: "Anchor-12" 222 928 basechar 0
AnchorPoint: "Anchor-11" 112 269 basechar 0
AnchorPoint: "Anchor-10" 146 519 basechar 0
AnchorPoint: "Anchor-8" 115 -59 basechar 0
AnchorPoint: "Anchor-7" 171 760 basechar 0
AnchorPoint: "Anchor-6" 115 760 basechar 0
LayerCount: 2
Fore
SplineSet
66 615 m 1,0,-1
 66 716 l 1,1,-1
 154 716 l 1,2,-1
 154 615 l 1,3,-1
 66 615 l 1,0,-1
66 0 m 1,4,-1
 66 519 l 1,5,-1
 154 519 l 1,6,-1
 154 0 l 1,7,-1
 66 0 l 1,4,-1
EndSplineSet
Substitution2: "Single Substitution lookup 15 subtable" dotlessi
EndChar

StartChar: j
Encoding: 106 106 77
Width: 222
GlyphClass: 2
Flags: W
HStem: -210 77<-28.1902 51.5903> 499 20G<65 153> 614 102<65 153>
VStem: 65 88<-114.94 519 614 716>
AnchorPoint: "Anchor-20" 0 1025 basechar 0
AnchorPoint: "Anchor-19" 222 1025 basechar 0
AnchorPoint: "Anchor-18" 107 -122 basechar 0
AnchorPoint: "Anchor-17" 107 -122 basechar 0
AnchorPoint: "Anchor-16" 81 -190 basechar 0
AnchorPoint: "Anchor-14" 125 513 basechar 0
AnchorPoint: "Anchor-13" 111 -212 basechar 0
AnchorPoint: "Anchor-12" 222 928 basechar 0
AnchorPoint: "Anchor-11" 110 269 basechar 0
AnchorPoint: "Anchor-10" 148 519 basechar 0
AnchorPoint: "Anchor-8" 59 -269 basechar 0
AnchorPoint: "Anchor-7" 171 760 basechar 0
AnchorPoint: "Anchor-6" 110 760 basechar 0
LayerCount: 2
Fore
SplineSet
65 614 m 1,0,-1
 65 716 l 1,1,-1
 153 716 l 1,2,-1
 153 614 l 1,3,-1
 65 614 l 1,0,-1
-46 -201 m 1,4,-1
 -29 -126 l 1,5,6
 -3 -133 -3 -133 12 -133 c 0,7,8
 39 -133 39 -133 52 -115.5 c 128,-1,9
 65 -98 65 -98 65 -26 c 2,10,-1
 65 519 l 1,11,-1
 153 519 l 1,12,-1
 153 -28 l 2,13,14
 153 -124 153 -124 128 -162 c 0,15,16
 96 -211 96 -211 23 -210 c 0,17,18
 -13 -210 -13 -210 -46 -201 c 1,4,-1
EndSplineSet
Substitution2: "Single Substitution lookup 15 subtable" j.dotless
EndChar

StartChar: k
Encoding: 107 107 78
Width: 500
GlyphClass: 2
Flags: W
HStem: 0 21G<66 154 375.019 496> 499 20G<342.284 476> 696 20G<66 154>
VStem: 66 88<0 206 308 716>
AnchorPoint: "Anchor-20" 0 1025 basechar 0
AnchorPoint: "Anchor-19" 500 1025 basechar 0
AnchorPoint: "Anchor-18" 430 0 basechar 0
AnchorPoint: "Anchor-17" 430 0 basechar 0
AnchorPoint: "Anchor-16" 425 0 basechar 0
AnchorPoint: "Anchor-15" 244 -24 basechar 0
AnchorPoint: "Anchor-14" 381 513 basechar 0
AnchorPoint: "Anchor-13" 250 -212 basechar 0
AnchorPoint: "Anchor-12" 500 928 basechar 0
AnchorPoint: "Anchor-11" 112 586 basechar 0
AnchorPoint: "Anchor-10" 401 519 basechar 0
AnchorPoint: "Anchor-8" 269 -59 basechar 0
AnchorPoint: "Anchor-7" 474 760 basechar 0
AnchorPoint: "Anchor-6" 269 760 basechar 0
LayerCount: 2
Fore
SplineSet
66 0 m 1,0,-1
 66 716 l 1,1,-1
 154 716 l 1,2,-1
 154 308 l 1,3,-1
 362 519 l 1,4,-1
 476 519 l 1,5,-1
 278 326 l 1,6,-1
 496 0 l 1,7,-1
 388 0 l 1,8,-1
 216 265 l 1,9,-1
 154 206 l 1,10,-1
 154 0 l 1,11,-1
 66 0 l 1,0,-1
EndSplineSet
EndChar

StartChar: l
Encoding: 108 108 79
Width: 222
GlyphClass: 2
Flags: W
HStem: 0 21G<64 152> 696 20G<64 152>
VStem: 64 88<0 716>
AnchorPoint: "Anchor-20" 0 1025 basechar 0
AnchorPoint: "Anchor-19" 222 1025 basechar 0
AnchorPoint: "Anchor-18" 107 0 basechar 0
AnchorPoint: "Anchor-17" 107 0 basechar 0
AnchorPoint: "Anchor-16" 103 0 basechar 0
AnchorPoint: "Anchor-15" 103 0 basechar 0
AnchorPoint: "Anchor-14" 110 713 basechar 0
AnchorPoint: "Anchor-13" 111 -212 basechar 0
AnchorPoint: "Anchor-12" 222 928 basechar 0
AnchorPoint: "Anchor-11" 112 391 basechar 0
AnchorPoint: "Anchor-10" 144 712 basechar 0
AnchorPoint: "Anchor-8" 110 -59 basechar 0
AnchorPoint: "Anchor-7" 186 760 basechar 0
AnchorPoint: "Anchor-6" 107 760 basechar 0
LayerCount: 2
Fore
SplineSet
64 0 m 1,0,-1
 64 716 l 1,1,-1
 152 716 l 1,2,-1
 152 0 l 1,3,-1
 64 0 l 1,0,-1
EndSplineSet
EndChar

StartChar: m
Encoding: 109 109 80
Width: 833
GlyphClass: 2
Flags: W
HStem: 0 21G<66 154 374 462 681 769> 454 76<211.795 345.743 521.279 651.255> 499 20G<66 145>
VStem: 66 88<0 394.089> 66 79<446 519> 374 88<0 399.031> 681 88<0 424.975>
AnchorPoint: "Anchor-20" 0 1025 basechar 0
AnchorPoint: "Anchor-19" 833 1025 basechar 0
AnchorPoint: "Anchor-18" 728 0 basechar 0
AnchorPoint: "Anchor-17" 728 0 basechar 0
AnchorPoint: "Anchor-16" 728 0 basechar 0
AnchorPoint: "Anchor-14" 720 454 basechar 0
AnchorPoint: "Anchor-13" 417 -212 basechar 0
AnchorPoint: "Anchor-12" 833 928 basechar 0
AnchorPoint: "Anchor-11" 425 269 basechar 0
AnchorPoint: "Anchor-10" 759 454 basechar 0
AnchorPoint: "Anchor-8" 425 -59 basechar 0
AnchorPoint: "Anchor-7" 747 595 basechar 0
AnchorPoint: "Anchor-6" 425 595 basechar 0
LayerCount: 2
Fore
SplineSet
66 0 m 1,0,-1
 66 519 l 1,1,-1
 145 519 l 1,2,-1
 145 446 l 1,3,4
 169 484 169 484 209.5 507 c 128,-1,5
 250 530 250 530 302 530 c 0,6,7
 360 530 360 530 396.5 506 c 128,-1,8
 433 482 433 482 448 439 c 1,9,10
 510 530 510 530 608 530 c 0,11,12
 685 530 685 530 727 487.5 c 128,-1,13
 769 445 769 445 769 356 c 2,14,-1
 769 0 l 1,15,-1
 681 0 l 1,16,-1
 681 327 l 2,17,18
 681 380 681 380 672.5 403 c 128,-1,19
 664 426 664 426 641.5 440 c 128,-1,20
 619 454 619 454 589 454 c 0,21,22
 534 454 534 454 498 417.5 c 128,-1,23
 462 381 462 381 462 301 c 2,24,-1
 462 0 l 1,25,-1
 374 0 l 1,26,-1
 374 337 l 2,27,28
 374 396 374 396 352.5 425 c 128,-1,29
 331 454 331 454 282 454 c 0,30,31
 245 454 245 454 213.5 434.5 c 128,-1,32
 182 415 182 415 168 377.5 c 128,-1,33
 154 340 154 340 154 269 c 2,34,-1
 154 0 l 1,35,-1
 66 0 l 1,0,-1
EndSplineSet
EndChar

StartChar: n
Encoding: 110 110 81
Width: 556
GlyphClass: 2
Flags: W
HStem: 0 21G<66 154 399 487> 454 76<214.203 360.983> 499 20G<66 145>
VStem: 66 88<0 393.429> 66 79<445 519> 399 88<0 416.678>
AnchorPoint: "Anchor-20" 0 1025 basechar 0
AnchorPoint: "Anchor-19" 556 1025 basechar 0
AnchorPoint: "Anchor-18" 435 0 basechar 0
AnchorPoint: "Anchor-17" 435 0 basechar 0
AnchorPoint: "Anchor-16" 430 0 basechar 0
AnchorPoint: "Anchor-15" 269 -24 basechar 0
AnchorPoint: "Anchor-14" 435 454 basechar 0
AnchorPoint: "Anchor-13" 278 -212 basechar 0
AnchorPoint: "Anchor-12" 556 928 basechar 0
AnchorPoint: "Anchor-11" 281 269 basechar 0
AnchorPoint: "Anchor-10" 453 458 basechar 0
AnchorPoint: "Anchor-8" 269 -59 basechar 0
AnchorPoint: "Anchor-7" 483 595 basechar 0
AnchorPoint: "Anchor-6" 278 595 basechar 0
LayerCount: 2
Fore
SplineSet
66 0 m 1,0,-1
 66 519 l 1,1,-1
 145 519 l 1,2,-1
 145 445 l 1,3,4
 202 530 202 530 310 530 c 0,5,6
 357 530 357 530 396.5 513.5 c 128,-1,7
 436 497 436 497 455.5 469.5 c 128,-1,8
 475 442 475 442 482 404 c 0,9,10
 487 380 487 380 487 319 c 2,11,-1
 487 0 l 1,12,-1
 399 0 l 1,13,-1
 399 315 l 2,14,15
 399 369 399 369 389 395.5 c 128,-1,16
 379 422 379 422 353 438 c 128,-1,17
 327 454 327 454 292 454 c 0,18,19
 236 454 236 454 195 418.5 c 128,-1,20
 154 383 154 383 154 283 c 2,21,-1
 154 0 l 1,22,-1
 66 0 l 1,0,-1
EndSplineSet
EndChar

StartChar: o
Encoding: 111 111 82
Width: 556
GlyphClass: 2
Flags: W
HStem: -12 73<199.718 352.658> 458 72<200.161 350.766>
VStem: 33 91<143.419 374.482> 429 90<144.862 373.99>
AnchorPoint: "Anchor-20" 0 1025 basechar 0
AnchorPoint: "Anchor-19" 556 1025 basechar 0
AnchorPoint: "Anchor-16" 332 0 basechar 0
AnchorPoint: "Anchor-15" 269 -7 basechar 0
AnchorPoint: "Anchor-14" 427 454 basechar 0
AnchorPoint: "Anchor-13" 278 -212 basechar 0
AnchorPoint: "Anchor-12" 556 928 basechar 0
AnchorPoint: "Anchor-11" 278 269 basechar 0
AnchorPoint: "Anchor-10" 469 454 basechar 0
AnchorPoint: "Anchor-8" 273 -59 basechar 0
AnchorPoint: "Anchor-7" 483 595 basechar 0
AnchorPoint: "Anchor-6" 273 595 basechar 0
LayerCount: 2
Fore
SplineSet
33 259 m 0,0,1
 33 403 33 403 113 473 c 0,2,3
 180 531 180 531 276 530 c 0,4,5
 383 530 383 530 451 460 c 128,-1,6
 519 390 519 390 519 267 c 0,7,8
 519 167 519 167 489 109.5 c 128,-1,9
 459 52 459 52 401.5 20 c 128,-1,10
 344 -12 344 -12 276 -12 c 0,11,12
 167 -12 167 -12 100 58 c 128,-1,13
 33 128 33 128 33 259 c 0,0,1
124 259 m 256,14,15
 124 159 124 159 167 110 c 128,-1,16
 210 61 210 61 276 61 c 0,17,18
 341 61 341 61 385 110.5 c 128,-1,19
 429 160 429 160 429 262 c 0,20,21
 429 358 429 358 385 408 c 128,-1,22
 341 458 341 458 276 458 c 0,23,24
 210 458 210 458 167 408.5 c 128,-1,25
 124 359 124 359 124 259 c 256,14,15
EndSplineSet
EndChar

StartChar: p
Encoding: 112 112 83
Width: 556
GlyphClass: 2
Flags: W
HStem: -199 21G<66 154> -12 73<214.578 353.94> 461 69<221.589 356.062> 499 20G<66 146>
VStem: 66 88<-199 54> 66 80<137.439 373.142 451 519> 426 90<142.235 382.068>
AnchorPoint: "Anchor-20" 0 1025 basechar 0
AnchorPoint: "Anchor-19" 556 1025 basechar 0
AnchorPoint: "Anchor-18" 415 51 basechar 0
AnchorPoint: "Anchor-17" 415 51 basechar 0
AnchorPoint: "Anchor-16" 103 -195 basechar 0
AnchorPoint: "Anchor-14" 439 454 basechar 0
AnchorPoint: "Anchor-13" 278 -212 basechar 0
AnchorPoint: "Anchor-12" 556 928 basechar 0
AnchorPoint: "Anchor-11" 293 269 basechar 0
AnchorPoint: "Anchor-10" 469 454 basechar 0
AnchorPoint: "Anchor-8" 269 -269 basechar 0
AnchorPoint: "Anchor-7" 505 595 basechar 0
AnchorPoint: "Anchor-6" 283 595 basechar 0
LayerCount: 2
Fore
SplineSet
66 -199 m 1,0,-1
 66 519 l 1,1,-1
 146 519 l 1,2,-1
 146 451 l 1,3,4
 174 491 174 491 210 510.5 c 128,-1,5
 246 530 246 530 296 530 c 0,6,7
 362 530 362 530 413 496 c 128,-1,8
 464 462 464 462 490 399.5 c 128,-1,9
 516 337 516 337 516 263 c 0,10,11
 516 183 516 183 487.5 119.5 c 128,-1,12
 459 56 459 56 404.5 22 c 128,-1,13
 350 -12 350 -12 290 -12 c 0,14,15
 246 -12 246 -12 211 6.5 c 128,-1,16
 176 25 176 25 154 54 c 1,17,-1
 154 -199 l 1,18,-1
 66 -199 l 1,0,-1
146 256 m 256,19,20
 146 156 146 156 186.5 108.5 c 128,-1,21
 227 61 227 61 284 61 c 0,22,23
 343 61 343 61 384.5 110.5 c 128,-1,24
 426 160 426 160 426 264 c 0,25,26
 426 363 426 363 385.5 412 c 128,-1,27
 345 461 345 461 288 461 c 0,28,29
 232 461 232 461 189 408.5 c 128,-1,30
 146 356 146 356 146 256 c 256,19,20
EndSplineSet
EndChar

StartChar: q
Encoding: 113 113 84
Width: 556
GlyphClass: 2
Flags: W
HStem: -199 21G<396 484> -12 73<197.994 336.234> 461 69<193.853 330.052> 499 20G<405 484>
VStem: 35 90<143.16 382.552> 396 88<-199 55> 405 79<137.227 375.637 449 519>
AnchorPoint: "Anchor-20" 0 1025 basechar 0
AnchorPoint: "Anchor-19" 556 1025 basechar 0
AnchorPoint: "Anchor-18" 439 -171 basechar 0
AnchorPoint: "Anchor-17" 439 -171 basechar 0
AnchorPoint: "Anchor-16" 430 -195 basechar 0
AnchorPoint: "Anchor-14" 439 513 basechar 0
AnchorPoint: "Anchor-13" 278 -212 basechar 0
AnchorPoint: "Anchor-12" 556 928 basechar 0
AnchorPoint: "Anchor-11" 269 269 basechar 0
AnchorPoint: "Anchor-10" 470 519 basechar 0
AnchorPoint: "Anchor-8" 281 -269 basechar 0
AnchorPoint: "Anchor-7" 527 595 basechar 0
AnchorPoint: "Anchor-6" 269 595 basechar 0
LayerCount: 2
Fore
SplineSet
396 -199 m 1,0,-1
 396 55 l 1,1,2
 375 26 375 26 338.5 7 c 128,-1,3
 302 -12 302 -12 261 -12 c 0,4,5
 169 -12 169 -12 102 62 c 128,-1,6
 35 136 35 136 35 264 c 0,7,8
 35 342 35 342 62 404 c 128,-1,9
 89 466 89 466 140.5 498 c 128,-1,10
 192 530 192 530 254 530 c 0,11,12
 350 530 350 530 405 449 c 1,13,-1
 405 519 l 1,14,-1
 484 519 l 1,15,-1
 484 -199 l 1,16,-1
 396 -199 l 1,0,-1
125 261 m 0,17,18
 125 161 125 161 167 111 c 128,-1,19
 209 61 209 61 268 61 c 0,20,21
 324 61 324 61 364.5 108.5 c 128,-1,22
 405 156 405 156 405 253 c 0,23,24
 405 357 405 357 362.5 409 c 128,-1,25
 320 461 320 461 262 461 c 0,26,27
 205 461 205 461 165 412.5 c 128,-1,28
 125 364 125 364 125 261 c 0,17,18
EndSplineSet
EndChar

StartChar: r
Encoding: 114 114 85
Width: 333
GlyphClass: 2
Flags: W
HStem: 0 21G<65 153> 439 91<194.359 322.966> 499 20G<65 144>
VStem: 65 88<0 392.836> 65 79<440 519>
AnchorPoint: "Anchor-20" 0 1025 basechar 0
AnchorPoint: "Anchor-19" 333 1025 basechar 0
AnchorPoint: "Anchor-18" 107 0 basechar 0
AnchorPoint: "Anchor-17" 107 0 basechar 0
AnchorPoint: "Anchor-16" 103 0 basechar 0
AnchorPoint: "Anchor-15" 103 0 basechar 0
AnchorPoint: "Anchor-14" 300 525 basechar 0
AnchorPoint: "Anchor-13" 167 -212 basechar 0
AnchorPoint: "Anchor-12" 333 928 basechar 0
AnchorPoint: "Anchor-11" 117 269 basechar 0
AnchorPoint: "Anchor-10" 312 514 basechar 0
AnchorPoint: "Anchor-8" 115 -59 basechar 0
AnchorPoint: "Anchor-7" 388 595 basechar 0
AnchorPoint: "Anchor-6" 205 595 basechar 0
LayerCount: 2
Fore
SplineSet
65 0 m 1,0,-1
 65 519 l 1,1,-1
 144 519 l 1,2,-1
 144 440 l 1,3,4
 174 495 174 495 200 512.5 c 128,-1,5
 226 530 226 530 256 530 c 0,6,7
 300 530 300 530 347 502 c 1,8,-1
 316 420 l 1,9,10
 284 439 284 439 252 439 c 0,11,12
 223 439 223 439 200 422 c 128,-1,13
 177 405 177 405 167 374 c 0,14,15
 152 327 152 327 153 271 c 2,16,-1
 153 0 l 1,17,-1
 65 0 l 1,0,-1
EndSplineSet
EndChar

StartChar: s
Encoding: 115 115 86
Width: 500
GlyphClass: 2
Flags: W
HStem: -12 73<167.057 338.164> 458 72<155.396 321.013>
VStem: 31 87<109.332 156.046> 45 85<349.772 434.216> 356 86<384.023 423.156> 371 90<92.7014 186.434>
AnchorPoint: "Anchor-20" 0 1025 basechar 0
AnchorPoint: "Anchor-19" 500 1025 basechar 0
AnchorPoint: "Anchor-18" 330 24 basechar 0
AnchorPoint: "Anchor-17" 330 24 basechar 0
AnchorPoint: "Anchor-16" 317 0 basechar 0
AnchorPoint: "Anchor-15" 239 -7 basechar 0
AnchorPoint: "Anchor-14" 378 454 basechar 0
AnchorPoint: "Anchor-13" 250 -212 basechar 0
AnchorPoint: "Anchor-12" 500 928 basechar 0
AnchorPoint: "Anchor-11" 244 269 basechar 0
AnchorPoint: "Anchor-10" 420 459 basechar 0
AnchorPoint: "Anchor-8" 239 -59 basechar 0
AnchorPoint: "Anchor-7" 432 595 basechar 0
AnchorPoint: "Anchor-6" 239 595 basechar 0
LayerCount: 2
Fore
SplineSet
31 155 m 1,0,-1
 118 168 l 1,1,2
 125 116 125 116 158.5 88.5 c 128,-1,3
 192 61 192 61 252 61 c 0,4,5
 313 61 313 61 342 85.5 c 128,-1,6
 371 110 371 110 371 143 c 0,7,8
 371 173 371 173 345 190 c 0,9,10
 327 202 327 202 255 220 c 0,11,12
 158 244 158 244 121 262 c 128,-1,13
 84 280 84 280 64.5 311.5 c 128,-1,14
 45 343 45 343 45 381 c 0,15,16
 45 416 45 416 61 445.5 c 128,-1,17
 77 475 77 475 104 494 c 0,18,19
 125 509 125 509 160.5 519.5 c 128,-1,20
 196 530 196 530 236 530 c 0,21,22
 297 530 297 530 343.5 512.5 c 128,-1,23
 390 495 390 495 412 465 c 128,-1,24
 434 435 434 435 442 385 c 1,25,-1
 356 373 l 1,26,27
 350 413 350 413 322 435.5 c 128,-1,28
 294 458 294 458 243 458 c 0,29,30
 182 458 182 458 156 438 c 128,-1,31
 130 418 130 418 130 391 c 0,32,33
 130 374 130 374 141 360 c 128,-1,34
 152 346 152 346 175 337 c 0,35,36
 188 332 188 332 252 314 c 0,37,38
 345 289 345 289 382 273.5 c 128,-1,39
 419 258 419 258 440 227.5 c 128,-1,40
 461 197 461 197 461 152 c 0,41,42
 461 108 461 108 435.5 69.5 c 128,-1,43
 410 31 410 31 361.5 9.5 c 128,-1,44
 313 -12 313 -12 252 -12 c 0,45,46
 151 -12 151 -12 98.5 30 c 128,-1,47
 46 72 46 72 31 155 c 1,0,-1
EndSplineSet
EndChar

StartChar: t
Encoding: 116 116 87
Width: 277
GlyphClass: 2
Flags: W
HStem: -7 82<174.842 259.556> 450 69<18 82 169 258>
VStem: 82 87<98.8348 450 519 647>
AnchorPoint: "Anchor-20" 0 1025 basechar 0
AnchorPoint: "Anchor-19" 278 1025 basechar 0
AnchorPoint: "Anchor-18" 220 0 basechar 0
AnchorPoint: "Anchor-17" 220 0 basechar 0
AnchorPoint: "Anchor-16" 171 0 basechar 0
AnchorPoint: "Anchor-15" 183 0 basechar 0
AnchorPoint: "Anchor-14" 134 671 basechar 0
AnchorPoint: "Anchor-13" 139 -212 basechar 0
AnchorPoint: "Anchor-12" 278 928 basechar 0
AnchorPoint: "Anchor-11" 127 269 basechar 0
AnchorPoint: "Anchor-10" 245 526 basechar 0
AnchorPoint: "Anchor-8" 171 -59 basechar 0
AnchorPoint: "Anchor-7" 220 744 basechar 0
AnchorPoint: "Anchor-6" 134 760 basechar 0
LayerCount: 2
Fore
SplineSet
258 79 m 1,0,-1
 271 1 l 1,1,2
 234 -7 234 -7 204 -7 c 0,3,4
 156 -7 156 -7 130 8 c 128,-1,5
 104 23 104 23 93 48 c 128,-1,6
 82 73 82 73 82 152 c 2,7,-1
 82 450 l 1,8,-1
 18 450 l 1,9,-1
 18 519 l 1,10,-1
 82 519 l 1,11,-1
 82 647 l 1,12,-1
 169 700 l 1,13,-1
 169 519 l 1,14,-1
 258 519 l 1,15,-1
 258 450 l 1,16,-1
 169 450 l 1,17,-1
 169 147 l 2,18,19
 169 109 169 109 174 98.5 c 128,-1,20
 179 88 179 88 189.5 81.5 c 128,-1,21
 200 75 200 75 219 75 c 0,22,23
 234 76 234 76 258 79 c 1,0,-1
EndSplineSet
EndChar

StartChar: u
Encoding: 117 117 88
Width: 556
GlyphClass: 2
Flags: W
HStem: -12 76<189.342 332.577> 0 21G<406 484> 499 20G<64 152 396 484>
VStem: 64 88<101.137 519> 396 88<123.418 519> 406 78<0 76>
AnchorPoint: "Anchor-20" 0 1025 basechar 0
AnchorPoint: "Anchor-19" 556 1025 basechar 0
AnchorPoint: "Anchor-18" 439 0 basechar 0
AnchorPoint: "Anchor-17" 439 0 basechar 0
AnchorPoint: "Anchor-16" 430 0 basechar 0
AnchorPoint: "Anchor-15" 249 0 basechar 0
AnchorPoint: "Anchor-14" 432 513 basechar 0
AnchorPoint: "Anchor-13" 278 -212 basechar 0
AnchorPoint: "Anchor-12" 556 928 basechar 0
AnchorPoint: "Anchor-11" 273 269 basechar 0
AnchorPoint: "Anchor-10" 467 519 basechar 0
AnchorPoint: "Anchor-8" 269 -59 basechar 0
AnchorPoint: "Anchor-7" 505 595 basechar 0
AnchorPoint: "Anchor-6" 269 595 basechar 0
LayerCount: 2
Fore
SplineSet
406 0 m 1,0,-1
 406 76 l 1,1,2
 345 -12 345 -12 241 -12 c 0,3,4
 195 -12 195 -12 155.5 5.5 c 128,-1,5
 116 23 116 23 96.5 50 c 128,-1,6
 77 77 77 77 69 115 c 0,7,8
 64 141 64 141 64 197 c 2,9,-1
 64 519 l 1,10,-1
 152 519 l 1,11,-1
 152 231 l 2,12,13
 152 162 152 162 157 138 c 0,14,15
 165 103 165 103 192 83.5 c 128,-1,16
 219 64 219 64 259 64 c 256,17,18
 299 64 299 64 333.5 84 c 128,-1,19
 368 104 368 104 382 139 c 128,-1,20
 396 174 396 174 396 241 c 2,21,-1
 396 519 l 1,22,-1
 484 519 l 1,23,-1
 484 0 l 1,24,-1
 406 0 l 1,0,-1
EndSplineSet
EndChar

StartChar: v
Encoding: 118 118 89
Width: 500
GlyphClass: 2
Flags: W
HStem: 0 21G<202.408 299.553> 499 20G<13 112.203 390.744 488>
AnchorPoint: "Anchor-20" 0 1025 basechar 0
AnchorPoint: "Anchor-19" 500 1025 basechar 0
AnchorPoint: "Anchor-18" 249 0 basechar 0
AnchorPoint: "Anchor-17" 249 0 basechar 0
AnchorPoint: "Anchor-16" 234 0 basechar 0
AnchorPoint: "Anchor-14" 432 513 basechar 0
AnchorPoint: "Anchor-13" 250 -212 basechar 0
AnchorPoint: "Anchor-12" 500 928 basechar 0
AnchorPoint: "Anchor-11" 249 269 basechar 0
AnchorPoint: "Anchor-10" 447 519 basechar 0
AnchorPoint: "Anchor-8" 249 -59 basechar 0
AnchorPoint: "Anchor-7" 491 595 basechar 0
AnchorPoint: "Anchor-6" 244 595 basechar 0
LayerCount: 2
Fore
SplineSet
210 0 m 1,0,-1
 13 519 l 1,1,-1
 105 519 l 1,2,-1
 217 208 l 2,3,4
 235 158 235 158 250 104 c 1,5,6
 262 145 262 145 283 202 c 2,7,-1
 398 519 l 1,8,-1
 488 519 l 1,9,-1
 292 0 l 1,10,-1
 210 0 l 1,0,-1
EndSplineSet
EndChar

StartChar: w
Encoding: 119 119 90
Width: 722
GlyphClass: 2
Flags: W
HStem: 0 21G<155.873 258.263 455.662 558.243> 499 20G<3 99.4667 310.605 412.116 623.067 714>
AnchorPoint: "Anchor-20" 0 1025 basechar 0
AnchorPoint: "Anchor-19" 722 1025 basechar 0
AnchorPoint: "Anchor-18" 515 0 basechar 0
AnchorPoint: "Anchor-17" 515 0 basechar 0
AnchorPoint: "Anchor-16" 503 0 basechar 0
AnchorPoint: "Anchor-14" 652 513 basechar 0
AnchorPoint: "Anchor-13" 361 -212 basechar 0
AnchorPoint: "Anchor-12" 722 928 basechar 0
AnchorPoint: "Anchor-11" 359 269 basechar 0
AnchorPoint: "Anchor-10" 681 519 basechar 0
AnchorPoint: "Anchor-8" 359 -59 basechar 0
AnchorPoint: "Anchor-7" 747 595 basechar 0
AnchorPoint: "Anchor-6" 359 595 basechar 0
LayerCount: 2
Fore
SplineSet
162 0 m 1,0,-1
 3 519 l 1,1,-1
 94 519 l 1,2,-1
 176 219 l 1,3,-1
 207 108 l 1,4,5
 209 116 209 116 234 215 c 1,6,-1
 316 519 l 1,7,-1
 407 519 l 1,8,-1
 484 218 l 1,9,-1
 510 119 l 1,10,-1
 540 219 l 1,11,-1
 629 519 l 1,12,-1
 714 519 l 1,13,-1
 552 0 l 1,14,-1
 461 0 l 1,15,-1
 378 311 l 1,16,-1
 358 399 l 1,17,-1
 253 0 l 1,18,-1
 162 0 l 1,0,-1
EndSplineSet
EndChar

StartChar: x
Encoding: 120 120 91
Width: 500
GlyphClass: 2
Flags: W
HStem: 0 21G<7 127.268 371.708 493> 499 20G<21 144.115 359.854 479>
AnchorPoint: "Anchor-20" 0 1025 basechar 0
AnchorPoint: "Anchor-19" 500 1025 basechar 0
AnchorPoint: "Anchor-16" 415 0 basechar 0
AnchorPoint: "Anchor-14" 403 513 basechar 0
AnchorPoint: "Anchor-13" 250 -212 basechar 0
AnchorPoint: "Anchor-12" 500 928 basechar 0
AnchorPoint: "Anchor-11" 249 269 basechar 0
AnchorPoint: "Anchor-10" 425 519 basechar 0
AnchorPoint: "Anchor-8" 249 -59 basechar 0
AnchorPoint: "Anchor-7" 505 595 basechar 0
AnchorPoint: "Anchor-6" 244 595 basechar 0
LayerCount: 2
Fore
SplineSet
7 0 m 1,0,-1
 197 270 l 1,1,-1
 21 519 l 1,2,-1
 131 519 l 1,3,-1
 211 397 l 2,4,5
 233 362 233 362 247 339 c 1,6,7
 268 371 268 371 287 396 c 2,8,-1
 374 519 l 1,9,-1
 479 519 l 1,10,-1
 300 274 l 1,11,-1
 493 0 l 1,12,-1
 385 0 l 1,13,-1
 278 161 l 1,14,-1
 250 205 l 1,15,-1
 114 0 l 1,16,-1
 7 0 l 1,0,-1
EndSplineSet
EndChar

StartChar: y
Encoding: 121 121 92
Width: 500
GlyphClass: 2
Flags: W
HStem: -210 85<62.9675 164.821> 499 20G<16 118.176 395.673 491>
AnchorPoint: "Anchor-20" 0 1025 basechar 0
AnchorPoint: "Anchor-19" 500 1025 basechar 0
AnchorPoint: "Anchor-16" 161 -195 basechar 0
AnchorPoint: "Anchor-14" 425 513 basechar 0
AnchorPoint: "Anchor-13" 250 -212 basechar 0
AnchorPoint: "Anchor-12" 500 928 basechar 0
AnchorPoint: "Anchor-11" 249 269 basechar 0
AnchorPoint: "Anchor-10" 451 519 basechar 0
AnchorPoint: "Anchor-8" 234 -269 basechar 0
AnchorPoint: "Anchor-7" 488 595 basechar 0
AnchorPoint: "Anchor-6" 244 595 basechar 0
LayerCount: 2
Fore
SplineSet
62 -200 m 1,0,-1
 52 -117 l 1,1,2
 81 -125 81 -125 103 -125 c 0,3,4
 132 -125 132 -125 149.5 -115 c 128,-1,5
 167 -105 167 -105 178 -88 c 0,6,7
 186 -75 186 -75 205 -22 c 0,8,9
 207 -15 207 -15 213 -1 c 1,10,-1
 16 519 l 1,11,-1
 111 519 l 1,12,-1
 219 218 l 2,13,14
 240 161 240 161 256 98 c 1,15,16
 271 159 271 159 292 216 c 2,17,-1
 403 519 l 1,18,-1
 491 519 l 1,19,-1
 294 -9 l 2,20,21
 262 -94 262 -94 245 -126 c 0,22,23
 222 -169 222 -169 191.5 -189.5 c 128,-1,24
 161 -210 161 -210 119 -210 c 0,25,26
 93 -211 93 -211 62 -200 c 1,0,-1
EndSplineSet
EndChar

StartChar: z
Encoding: 122 122 93
Width: 500
GlyphClass: 2
Flags: W
HStem: 0 76<129.842 479> 447 72<39 350>
AnchorPoint: "Anchor-20" 0 1025 basechar 0
AnchorPoint: "Anchor-19" 500 1025 basechar 0
AnchorPoint: "Anchor-18" 432 0 basechar 0
AnchorPoint: "Anchor-17" 432 0 basechar 0
AnchorPoint: "Anchor-16" 405 0 basechar 0
AnchorPoint: "Anchor-14" 410 513 basechar 0
AnchorPoint: "Anchor-13" 250 -212 basechar 0
AnchorPoint: "Anchor-12" 500 928 basechar 0
AnchorPoint: "Anchor-11" 234 269 basechar 0
AnchorPoint: "Anchor-10" 461 519 basechar 0
AnchorPoint: "Anchor-8" 256 -59 basechar 0
AnchorPoint: "Anchor-7" 493 595 basechar 0
AnchorPoint: "Anchor-6" 249 595 basechar 0
LayerCount: 2
Fore
SplineSet
20 0 m 1,0,-1
 20 71 l 1,1,-1
 350 450 l 1,2,3
 294 447 294 447 250 447 c 2,4,-1
 39 447 l 1,5,-1
 39 519 l 1,6,-1
 463 519 l 1,7,-1
 463 460 l 1,8,-1
 182 131 l 1,9,-1
 128 71 l 1,10,11
 187 75 187 75 239 76 c 2,12,-1
 479 76 l 1,13,-1
 479 0 l 1,14,-1
 20 0 l 1,0,-1
EndSplineSet
EndChar

StartChar: braceleft
Encoding: 123 123 94
Width: 333
GlyphClass: 2
Flags: W
HStem: -210 76<233.507 311> 219 80<28 88.7621> 651 77<228.024 311>
VStem: 128.5 82.5<-119.833 177.961 338.936 632.426>
LayerCount: 2
Fore
SplineSet
28 299 m 1,0,1
 66 300 66 300 89.5 319 c 128,-1,2
 113 338 113 338 120.5 372 c 128,-1,3
 128 406 128 406 128.5 487.5 c 128,-1,4
 129 569 129 569 132 595 c 0,5,6
 136 636 136 636 148 661 c 128,-1,7
 160 686 160 686 177.5 700.5 c 128,-1,8
 195 715 195 715 223 723 c 0,9,10
 242 728 242 728 283 728 c 2,11,-1
 311 728 l 1,12,-1
 311 651 l 1,13,-1
 295 651 l 2,14,15
 244 651 244 651 227.5 633 c 128,-1,16
 211 615 211 615 211 551 c 0,17,18
 211 423 211 423 206 390 c 0,19,20
 197 338 197 338 176 309.5 c 128,-1,21
 155 281 155 281 109 259 c 1,22,23
 163 237 163 237 187 190.5 c 128,-1,24
 211 144 211 144 211 39 c 0,25,26
 211 -56 211 -56 213 -74 c 0,27,28
 217 -107 217 -107 233 -120.5 c 128,-1,29
 249 -134 249 -134 295 -134 c 2,30,-1
 311 -134 l 1,31,-1
 311 -210 l 1,32,-1
 283 -210 l 2,33,34
 235 -210 235 -210 214 -203 c 0,35,36
 183 -192 183 -192 162.5 -166.5 c 128,-1,37
 142 -141 142 -141 135.5 -102.5 c 128,-1,38
 129 -64 129 -64 128.5 24 c 128,-1,39
 128 112 128 112 120.5 145.5 c 128,-1,40
 113 179 113 179 89 198.5 c 128,-1,41
 65 218 65 218 28 219 c 1,42,-1
 28 299 l 1,0,1
EndSplineSet
EndChar

StartChar: bar
Encoding: 124 124 95
Width: 489
GlyphClass: 2
Flags: WO
HStem: -1 21G<285.5 397> 498 61<14.0972 220 358 466> 640 61<14.0972 174.036 318 466>
VStem: 230 128<435.91 498>
LayerCount: 2
Fore
SplineSet
34 701 m 2,0,-1
 446 701 l 1,1,2
 466 698 466 698 466 681 c 2,3,-1
 466 660 l 2,4,5
 466 640 466 640 446 640 c 2,6,-1
 318 640 l 1,7,8
 348 558 348 558 397 559 c 0,9,10
 466 559 466 559 466 538 c 2,11,-1
 466 518 l 2,12,13
 466 497 466 497 446 498 c 2,14,-1
 358 498 l 1,15,16
 358 371 358 371 171 314 c 1,17,-1
 397 9 l 1,18,-1
 377 -1 l 1,19,-1
 299 -1 l 1,20,21
 272 14 272 14 24 355 c 1,22,23
 230 386 230 386 230 498 c 1,24,-1
 34 498 l 2,25,26
 14 498 14 498 14 518 c 2,27,-1
 14 538 l 1,28,29
 17 559 17 559 34 559 c 2,30,-1
 220 559 l 1,31,-1
 220 569 l 1,32,33
 172 640 172 640 112 640 c 2,34,-1
 34 640 l 2,35,36
 14 640 14 640 14 660 c 2,37,-1
 14 681 l 1,38,39
 17 701 17 701 34 701 c 2,0,-1
EndSplineSet
EndChar

StartChar: braceright
Encoding: 125 125 96
Width: 333
GlyphClass: 2
Flags: W
HStem: -210 76<23 104.976> 219 80<243.046 306> 651 77<23 99.9772>
VStem: 122 82.5<-114.911 177.252 340.355 637.805>
LayerCount: 2
Fore
SplineSet
306 299 m 1,0,-1
 306 219 l 1,1,2
 268 218 268 218 244.5 198.5 c 128,-1,3
 221 179 221 179 213 145.5 c 128,-1,4
 205 112 205 112 204.5 30.5 c 128,-1,5
 204 -51 204 -51 202 -77 c 0,6,7
 198 -119 198 -119 185.5 -143 c 128,-1,8
 173 -167 173 -167 155.5 -182 c 128,-1,9
 138 -197 138 -197 111 -205 c 0,10,11
 92 -210 92 -210 50 -210 c 2,12,-1
 23 -210 l 1,13,-1
 23 -134 l 1,14,-1
 38 -134 l 2,15,16
 89 -134 89 -134 105.5 -115.5 c 128,-1,17
 122 -97 122 -97 122 -33 c 0,18,19
 122 89 122 89 126 122 c 0,20,21
 134 176 134 176 157.5 208.5 c 128,-1,22
 181 241 181 241 224 259 c 1,23,24
 168 286 168 286 145 330 c 128,-1,25
 122 374 122 374 122 479 c 0,26,27
 122 574 122 574 120 593 c 1,28,29
 117 626 117 626 100.5 638.5 c 128,-1,30
 84 651 84 651 38 651 c 2,31,-1
 23 651 l 1,32,-1
 23 728 l 1,33,-1
 50 728 l 2,34,35
 98 728 98 728 120 720 c 0,36,37
 151 709 151 709 171.5 684 c 128,-1,38
 192 659 192 659 198 620.5 c 128,-1,39
 204 582 204 582 204.5 494 c 128,-1,40
 205 406 205 406 213 372.5 c 128,-1,41
 221 339 221 339 244.5 319.5 c 128,-1,42
 268 300 268 300 306 299 c 1,0,-1
EndSplineSet
EndChar

StartChar: asciitilde
Encoding: 126 126 97
Width: 583
GlyphClass: 2
Flags: W
HStem: 273 92<334.809 486.602> 338 93<95.4515 257.264>
LayerCount: 2
Fore
SplineSet
42 272 m 1,0,-1
 42 372 l 1,1,2
 94 431 94 431 178 431 c 0,3,4
 207 431 207 431 239.5 422.5 c 128,-1,5
 272 414 272 414 332 388 c 0,6,7
 366 374 366 374 382.5 369.5 c 128,-1,8
 399 365 399 365 416 365 c 0,9,10
 448 365 448 365 482 384 c 128,-1,11
 516 403 516 403 542 432 c 1,12,-1
 542 329 l 1,13,14
 511 300 511 300 479 286.5 c 128,-1,15
 447 273 447 273 407 273 c 0,16,17
 378 273 378 273 351 280 c 128,-1,18
 324 287 324 287 266 312.5 c 128,-1,19
 208 338 208 338 170 338 c 0,20,21
 139 338 139 338 111 325 c 128,-1,22
 83 312 83 312 42 272 c 1,0,-1
EndSplineSet
EndChar

StartChar: dagger
Encoding: 261 8224 130
Width: 556
GlyphClass: 2
Flags: W
HStem: 423 78<36 230 318 515>
VStem: 230 88<-169 423 501 699>
LayerCount: 2
Fore
SplineSet
230 -169 m 1,0,-1
 230 423 l 1,1,-1
 36 423 l 1,2,-1
 36 501 l 1,3,-1
 230 501 l 1,4,-1
 230 699 l 1,5,-1
 318 699 l 1,6,-1
 318 501 l 1,7,-1
 515 501 l 1,8,-1
 515 423 l 1,9,-1
 318 423 l 1,10,-1
 318 -169 l 1,11,-1
 230 -169 l 1,0,-1
EndSplineSet
EndChar

StartChar: degree
Encoding: 262 176 131
Width: 399
GlyphClass: 2
Flags: W
HStem: 457 53<143.027 252.902> 675 53<142.644 253.605>
VStem: 62 54<537.097 648.286> 280 53<537.417 648.286>
LayerCount: 2
Fore
SplineSet
62 593 m 0,0,1
 62 649 62 649 102 688.5 c 128,-1,2
 142 728 142 728 198 728 c 0,3,4
 255 728 255 728 294 688.5 c 128,-1,5
 333 649 333 649 333 593 c 256,6,7
 333 537 333 537 293.5 497 c 128,-1,8
 254 457 254 457 198 457 c 128,-1,9
 142 457 142 457 102 496.5 c 128,-1,10
 62 536 62 536 62 593 c 0,0,1
116 593 m 256,11,12
 116 559 116 559 140 534.5 c 128,-1,13
 164 510 164 510 198 510 c 128,-1,14
 232 510 232 510 256 534.5 c 128,-1,15
 280 559 280 559 280 593 c 256,16,17
 280 627 280 627 256 651 c 128,-1,18
 232 675 232 675 198 675 c 128,-1,19
 164 675 164 675 140 651 c 128,-1,20
 116 627 116 627 116 593 c 256,11,12
EndSplineSet
EndChar

StartChar: cent
Encoding: 263 162 132
Width: 556
GlyphClass: 2
Flags: W
HStem: -200 21G<124 184.01> -14 72<255.359 356.486> 460 71<212.325 312> 696 20G<380.18 440>
VStem: 52 91<137.247 380.262> 417 88<122.615 180.795>
LayerCount: 2
Fore
SplineSet
363 437 m 1,0,-1
 255 62 l 1,1,2
 271 58 271 58 285 58 c 0,3,4
 336 58 336 58 372.5 92.5 c 128,-1,5
 409 127 409 127 417 190 c 1,6,-1
 505 180 l 1,7,8
 489 90 489 90 428.5 38 c 128,-1,9
 368 -14 368 -14 286 -14 c 0,10,11
 262 -14 262 -14 236 -7 c 1,12,-1
 178 -200 l 1,13,-1
 124 -184 l 1,14,-1
 180 10 l 1,15,16
 124 37 124 37 88 100 c 128,-1,17
 52 163 52 163 52 257 c 0,18,19
 52 344 52 344 80.5 406 c 128,-1,20
 109 468 109 468 166 499.5 c 128,-1,21
 223 531 223 531 282 531 c 0,22,23
 300 531 300 531 331 527 c 1,24,-1
 386 716 l 1,25,-1
 440 700 l 1,26,-1
 385 511 l 1,27,28
 433 490 433 490 459 454.5 c 128,-1,29
 485 419 485 419 496 366 c 1,30,-1
 410 353 l 1,31,32
 397 408 397 408 363 437 c 1,0,-1
312 459 m 1,33,34
 296 460 296 460 287 460 c 0,35,36
 247 460 247 460 212 438 c 128,-1,37
 177 416 177 416 160 369.5 c 128,-1,38
 143 323 143 323 143 261 c 0,39,40
 143 197 143 197 158.5 152.5 c 128,-1,41
 174 108 174 108 203 86 c 1,42,-1
 312 459 l 1,33,34
EndSplineSet
EndChar

StartChar: sterling
Encoding: 191 163 133
Width: 556
GlyphClass: 2
Flags: W
HStem: -12 84<304.121 487.85> 32 72<131.975 302.099> 323 72<21 97 208 347> 530 21G<418.5 510> 656 72<218.599 362.513>
VStem: 72 94<413.648 604.637> 97 96<395 480.457> 125 93<187.497 322.188> 422 88<541.966 596.456>
LayerCount: 2
Fore
SplineSet
193 395 m 1,0,-1
 347 395 l 1,1,-1
 347 323 l 1,2,-1
 208 323 l 1,3,4
 217 302 217 302 218 280 c 0,5,6
 218 238 218 238 197.5 190.5 c 128,-1,7
 177 143 177 143 131 93 c 1,8,9
 170 104 170 104 201 104 c 0,10,11
 242 104 242 104 292 92 c 0,12,13
 376 72 376 72 406 72 c 0,14,15
 442 72 442 72 500 99 c 1,16,-1
 528 19 l 1,17,18
 483 0 483 0 458.5 -6 c 128,-1,19
 434 -12 434 -12 410 -12 c 0,20,21
 389 -12 389 -12 368 -8 c 0,22,23
 355 -6 355 -6 305 9.5 c 128,-1,24
 255 25 255 25 240 28 c 0,25,26
 217 32 217 32 194 32 c 0,27,28
 159 32 159 32 119.5 19.5 c 128,-1,29
 80 7 80 7 47 -14 c 1,30,-1
 13 71 l 1,31,32
 60 97 60 97 92.5 145 c 128,-1,33
 125 193 125 193 125 262 c 0,34,35
 125 292 125 292 117 323 c 1,36,-1
 21 323 l 1,37,-1
 21 395 l 1,38,-1
 97 395 l 1,39,40
 81 450 81 450 76.5 475 c 128,-1,41
 72 500 72 500 72 524 c 0,42,43
 72 626 72 626 147 683 c 0,44,45
 208 728 208 728 293 728 c 0,46,47
 381 728 381 728 439 679.5 c 128,-1,48
 497 631 497 631 510 543 c 1,49,-1
 422 530 l 1,50,51
 415 589 415 589 378.5 622.5 c 128,-1,52
 342 656 342 656 292 656 c 0,53,54
 238 656 238 656 202 621 c 128,-1,55
 166 586 166 586 166 537 c 0,56,57
 165 482 165 482 193 395 c 1,0,-1
EndSplineSet
EndChar

StartChar: section
Encoding: 159 167 134
Width: 556
GlyphClass: 2
Flags: W
HStem: -210 74<206.926 356.031> 656 72<203.737 339.162>
VStem: 40 79<267.758 380.902> 70 88<-81.4773 -32.9659> 86 86<527.03 625.637> 377 92<558.239 615.086> 389 88<-104.246 -1.1991> 427 83<158.21 265.083>
LayerCount: 2
Fore
SplineSet
70 -34 m 1,0,-1
 158 -21 l 1,1,2
 172 -84 172 -84 201.5 -110 c 128,-1,3
 231 -136 231 -136 283 -136 c 0,4,5
 333 -136 333 -136 361 -110.5 c 128,-1,6
 389 -85 389 -85 389 -51 c 0,7,8
 389 -26 389 -26 371 -5 c 0,9,10
 341 32 341 32 205 114 c 0,11,12
 133 158 133 158 104.5 183.5 c 128,-1,13
 76 209 76 209 58 243 c 128,-1,14
 40 277 40 277 40 314 c 0,15,16
 40 361 40 361 69 399.5 c 128,-1,17
 98 438 98 438 149 453 c 1,18,19
 114 486 114 486 100 514 c 128,-1,20
 86 542 86 542 86 574 c 0,21,22
 86 636 86 636 135 682 c 128,-1,23
 184 728 184 728 265 728 c 0,24,25
 356 728 356 728 407 684.5 c 128,-1,26
 458 641 458 641 469 559 c 1,27,-1
 377 549 l 1,28,29
 367 609 367 609 341.5 632.5 c 128,-1,30
 316 656 316 656 272 656 c 0,31,32
 227 656 227 656 199.5 631.5 c 128,-1,33
 172 607 172 607 172 578 c 0,34,35
 172 553 172 553 190 531 c 0,36,37
 217 498 217 498 339 424 c 0,38,39
 416 377 416 377 443 355 c 1,40,41
 478 326 478 326 494 294.5 c 128,-1,42
 510 263 510 263 510 227 c 0,43,44
 510 172 510 172 475 132 c 0,45,46
 454 110 454 110 399 87 c 1,47,48
 438 57 438 57 457.5 23 c 128,-1,49
 477 -11 477 -11 477 -50 c 0,50,51
 477 -93 477 -93 452.5 -131.5 c 128,-1,52
 428 -170 428 -170 382 -190 c 128,-1,53
 336 -210 336 -210 283 -210 c 0,54,55
 190 -210 190 -210 135.5 -163.5 c 128,-1,56
 81 -117 81 -117 70 -34 c 1,0,-1
355 119 m 1,57,58
 391 138 391 138 409 162.5 c 128,-1,59
 427 187 427 187 427 210 c 0,60,61
 427 238 427 238 402 269 c 0,62,63
 376 300 376 300 292 352 c 0,64,65
 225 393 225 393 192 419 c 1,66,67
 152 397 152 397 135.5 374.5 c 128,-1,68
 119 352 119 352 119 324 c 0,69,70
 119 293 119 293 142 266 c 256,71,72
 164 238 164 238 243 191 c 0,73,74
 308 153 308 153 355 119 c 1,57,58
EndSplineSet
EndChar

StartChar: bullet
Encoding: 264 8226 135
Width: 350
GlyphClass: 2
Flags: W
HStem: 227 247<107.406 246.594>
VStem: 53 248<281.406 420.301>
LayerCount: 2
Fore
SplineSet
53 351 m 256,0,1
 53 402 53 402 89.5 438 c 128,-1,2
 126 474 126 474 177 474 c 128,-1,3
 228 474 228 474 264.5 438 c 128,-1,4
 301 402 301 402 301 351 c 256,5,6
 301 300 301 300 264.5 263.5 c 128,-1,7
 228 227 228 227 177 227 c 128,-1,8
 126 227 126 227 89.5 263.5 c 128,-1,9
 53 300 53 300 53 351 c 256,0,1
EndSplineSet
EndChar

StartChar: paragraph
Encoding: 265 182 136
Width: 537
GlyphClass: 2
Flags: W
HStem: -199 21G<198 278 387 470> 631 85<278 387 470 541>
VStem: 0 278<413.816 610.452> 198 80<-199 313.68> 387 83<-199 631>
LayerCount: 2
Fore
SplineSet
198 -199 m 1,0,-1
 198 312 l 1,1,2
 107 317 107 317 53.5 371 c 128,-1,3
 0 425 0 425 0 510 c 0,4,5
 0 604 0 604 59 660 c 128,-1,6
 118 716 118 716 231 716 c 2,7,-1
 541 716 l 1,8,-1
 541 631 l 1,9,-1
 470 631 l 1,10,-1
 470 -199 l 1,11,-1
 387 -199 l 1,12,-1
 387 631 l 1,13,-1
 278 631 l 1,14,-1
 278 -199 l 1,15,-1
 198 -199 l 1,0,-1
EndSplineSet
EndChar

StartChar: germandbls
Encoding: 255 223 137
Width: 610
GlyphClass: 2
Flags: W
HStem: -12 72<344.301 458.518> 0 21G<75 163> 656 72<208.99 349.84>
VStem: 75 88<0 608.693> 300 90<346.25 447.936> 379 85<511.684 628.034> 490 90<90.5867 198.169>
AnchorPoint: "Anchor-20" 0 1025 basechar 0
AnchorPoint: "Anchor-19" 611 1025 basechar 0
AnchorPoint: "Anchor-16" 444 0 basechar 0
AnchorPoint: "Anchor-13" 305 -212 basechar 0
AnchorPoint: "Anchor-12" 611 928 basechar 0
AnchorPoint: "Anchor-8" 283 -59 basechar 0
AnchorPoint: "Anchor-7" 518 635 basechar 0
AnchorPoint: "Anchor-6" 283 760 basechar 0
LayerCount: 2
Fore
SplineSet
75 0 m 1,0,-1
 75 488 l 2,1,2
 75 577 75 577 96.5 625 c 128,-1,3
 118 673 118 673 169 700.5 c 128,-1,4
 220 728 220 728 283 728 c 0,5,6
 367 728 367 728 415.5 686 c 128,-1,7
 464 644 464 644 464 588 c 0,8,9
 464 563 464 563 455.5 536.5 c 128,-1,10
 447 510 447 510 424.5 471 c 128,-1,11
 402 432 402 432 396 416.5 c 128,-1,12
 390 401 390 401 390 389 c 0,13,14
 390 373 390 373 401 358 c 1,15,16
 411 342 411 342 460 311 c 0,17,18
 526 268 526 268 548 241 c 0,19,20
 579 203 579 203 580 152 c 0,21,22
 580 84 580 84 529.5 36 c 128,-1,23
 479 -12 479 -12 401 -12 c 0,24,25
 339 -12 339 -12 293 21 c 128,-1,26
 247 54 247 54 224 105 c 1,27,-1
 300 141 l 1,28,29
 324 96 324 96 348.5 78 c 128,-1,30
 373 60 373 60 400 60 c 0,31,32
 437 60 437 60 463.5 85.5 c 128,-1,33
 490 111 490 111 490 145 c 0,34,35
 490 172 490 172 474 192 c 0,36,37
 464 205 464 205 419 235 c 0,38,39
 338 291 338 291 319 318 c 0,40,41
 299 346 299 346 300 375 c 0,42,43
 300 394 300 394 306.5 414 c 128,-1,44
 313 434 313 434 338 477 c 128,-1,45
 363 520 363 520 371 541 c 128,-1,46
 379 562 379 562 379 579 c 0,47,48
 379 609 379 609 352.5 632.5 c 128,-1,49
 326 656 326 656 281 656 c 0,50,51
 229 656 229 656 196 623.5 c 128,-1,52
 163 591 163 591 163 484 c 2,53,-1
 163 0 l 1,54,-1
 75 0 l 1,0,-1
EndSplineSet
EndChar

StartChar: registered
Encoding: 266 174 138
Width: 736
GlyphClass: 2
Flags: W
HStem: -9 61<259.138 481.194> 324 55<272 360.434> 499 53<272 430.571> 667 61<258.323 481.574>
VStem: 1 61<248.265 470.716> 208 64<156 324 379 499> 446 68<395.117 483.932> 677 61<246.011 471.046>
LayerCount: 2
Fore
SplineSet
370 728 m 256,0,1
 463 728 463 728 551.5 680.5 c 128,-1,2
 640 633 640 633 689 544.5 c 128,-1,3
 738 456 738 456 738 359 c 0,4,5
 738 264 738 264 689.5 176 c 128,-1,6
 641 88 641 88 553.5 39.5 c 128,-1,7
 466 -9 466 -9 370 -9 c 256,8,9
 274 -9 274 -9 186.5 39.5 c 128,-1,10
 99 88 99 88 50 176 c 128,-1,11
 1 264 1 264 1 359 c 0,12,13
 1 455 1 455 51 544 c 128,-1,14
 101 633 101 633 189 680.5 c 128,-1,15
 277 728 277 728 370 728 c 256,0,1
370 667 m 0,16,17
 292 667 292 667 219 627 c 128,-1,18
 146 587 146 587 104 513 c 128,-1,19
 62 439 62 439 62 359 c 128,-1,20
 62 279 62 279 103 206.5 c 128,-1,21
 144 134 144 134 217.5 93 c 128,-1,22
 291 52 291 52 370 52 c 256,23,24
 450 52 450 52 523 93 c 128,-1,25
 596 134 596 134 636.5 207 c 128,-1,26
 677 280 677 280 677 359 c 0,27,28
 677 439 677 439 636 513 c 128,-1,29
 595 587 595 587 521 627 c 128,-1,30
 447 667 447 667 370 667 c 0,16,17
208 156 m 1,31,-1
 208 552 l 1,32,-1
 345 552 l 2,33,34
 415 552 415 552 446 541 c 128,-1,35
 477 530 477 530 495.5 503 c 128,-1,36
 514 476 514 476 514 445 c 0,37,38
 514 402 514 402 483 369.5 c 128,-1,39
 452 337 452 337 401 333 c 1,40,41
 422 324 422 324 435 312 c 0,42,43
 459 289 459 289 493 233 c 2,44,-1
 542 156 l 1,45,-1
 463 156 l 1,46,-1
 428 218 l 2,47,48
 386 292 386 292 361 311 c 1,49,50
 343 325 343 325 310 324 c 2,51,-1
 272 324 l 1,52,-1
 272 156 l 1,53,-1
 208 156 l 1,31,-1
272 379 m 1,54,-1
 350 379 l 2,55,56
 406 379 406 379 426 395.5 c 128,-1,57
 446 412 446 412 446 439 c 0,58,59
 446 457 446 457 436.5 471 c 128,-1,60
 427 485 427 485 409.5 492 c 128,-1,61
 392 499 392 499 345 499 c 2,62,-1
 272 499 l 1,63,-1
 272 379 l 1,54,-1
EndSplineSet
EndChar

StartChar: copyright
Encoding: 267 169 139
Width: 736
GlyphClass: 2
Flags: W
HStem: -9 61<259.138 481.194> 148 58<296.859 438.613> 512 54<301.653 442.389> 667 61<258.323 481.574>
VStem: 1 61<248.265 470.716> 177 67<261.002 451.382> 488 60<254.752 284.1> 677 61<246.011 471.046>
LayerCount: 2
Fore
SplineSet
370 728 m 256,0,1
 463 728 463 728 551.5 680.5 c 128,-1,2
 640 633 640 633 689 544.5 c 128,-1,3
 738 456 738 456 738 359 c 0,4,5
 738 264 738 264 689.5 176 c 128,-1,6
 641 88 641 88 553.5 39.5 c 128,-1,7
 466 -9 466 -9 370 -9 c 256,8,9
 274 -9 274 -9 186.5 39.5 c 128,-1,10
 99 88 99 88 50 176 c 128,-1,11
 1 264 1 264 1 359 c 0,12,13
 1 455 1 455 51 544 c 128,-1,14
 101 633 101 633 189 680.5 c 128,-1,15
 277 728 277 728 370 728 c 256,0,1
370 667 m 0,16,17
 292 667 292 667 219 627 c 128,-1,18
 146 587 146 587 104 513 c 128,-1,19
 62 439 62 439 62 359 c 128,-1,20
 62 279 62 279 103 206.5 c 128,-1,21
 144 134 144 134 217.5 93 c 128,-1,22
 291 52 291 52 370 52 c 256,23,24
 450 52 450 52 523 93 c 128,-1,25
 596 134 596 134 636.5 207 c 128,-1,26
 677 280 677 280 677 359 c 0,27,28
 677 439 677 439 636 513 c 128,-1,29
 595 587 595 587 521 627 c 128,-1,30
 447 667 447 667 370 667 c 0,16,17
488 300 m 1,31,-1
 548 282 l 1,32,33
 533 221 533 221 485.5 184.5 c 128,-1,34
 438 148 438 148 371 148 c 0,35,36
 285 148 285 148 231 204 c 128,-1,37
 177 260 177 260 177 358 c 0,38,39
 177 422 177 422 201.5 470 c 128,-1,40
 226 518 226 518 271 542 c 128,-1,41
 316 566 316 566 375 566 c 0,42,43
 440 566 440 566 482.5 535 c 128,-1,44
 525 504 525 504 541 451 c 1,45,-1
 483 437 l 1,46,47
 468 473 468 473 439.5 492.5 c 128,-1,48
 411 512 411 512 373 512 c 0,49,50
 317 512 317 512 280.5 472 c 128,-1,51
 244 432 244 432 244 357 c 256,52,53
 244 282 244 282 278 244 c 128,-1,54
 312 206 312 206 367 206 c 0,55,56
 411 206 411 206 444 231.5 c 128,-1,57
 477 257 477 257 488 300 c 1,31,-1
EndSplineSet
EndChar

StartChar: trademark
Encoding: 268 8482 140
Width: 1000
GlyphClass: 2
Flags: W
HStem: 657 59<110 239 305 435>
VStem: 239 66<318 657> 479 62<318 657> 810 61<318 652>
LayerCount: 2
Fore
SplineSet
239 318 m 1,0,-1
 239 657 l 1,1,-1
 110 657 l 1,2,-1
 110 716 l 1,3,-1
 435 716 l 1,4,-1
 435 657 l 1,5,-1
 305 657 l 1,6,-1
 305 318 l 1,7,-1
 239 318 l 1,0,-1
479 318 m 1,8,-1
 479 716 l 1,9,-1
 577 716 l 1,10,-1
 678 398 l 1,11,-1
 775 716 l 1,12,-1
 871 716 l 1,13,-1
 871 318 l 1,14,-1
 810 318 l 1,15,-1
 810 652 l 1,16,-1
 708 318 l 1,17,-1
 647 318 l 1,18,-1
 541 657 l 1,19,-1
 541 318 l 1,20,-1
 479 318 l 1,8,-1
EndSplineSet
EndChar

StartChar: acute
Encoding: 1 180 141
Width: 333
GlyphClass: 2
Flags: W
HStem: 583 137<173 181>
VStem: 108 181
LayerCount: 2
Fore
SplineSet
108 583 m 1,0,-1
 173 720 l 1,1,-1
 289 720 l 1,2,-1
 181 583 l 1,3,-1
 108 583 l 1,0,-1
EndSplineSet
EndChar

StartChar: dieresis
Encoding: 4 168 142
Width: 333
GlyphClass: 2
Flags: W
HStem: 620 100<30 122 212 304>
VStem: 30 92<620 720> 212 92<620 720>
LayerCount: 2
Fore
SplineSet
30 620 m 1,0,-1
 30 720 l 1,1,-1
 122 720 l 1,2,-1
 122 620 l 1,3,-1
 30 620 l 1,0,-1
212 620 m 1,4,-1
 212 720 l 1,5,-1
 304 720 l 1,6,-1
 304 620 l 1,7,-1
 212 620 l 1,4,-1
EndSplineSet
EndChar

StartChar: notequal
Encoding: 269 8800 143
Width: 548
GlyphClass: 2
Flags: W
HStem: 204 82<38 176 278 511> 421 82<38 271 373 511> 700 20G<394.152 468>
LayerCount: 2
Fore
SplineSet
242 204 m 1,0,-1
 147 -14 l 1,1,-1
 81 -14 l 1,2,-1
 176 204 l 1,3,-1
 38 204 l 1,4,-1
 38 286 l 1,5,-1
 212 286 l 1,6,-1
 271 421 l 1,7,-1
 38 421 l 1,8,-1
 38 503 l 1,9,-1
 307 503 l 1,10,-1
 403 720 l 1,11,-1
 468 720 l 1,12,-1
 373 503 l 1,13,-1
 511 503 l 1,14,-1
 511 421 l 1,15,-1
 337 421 l 1,16,-1
 278 286 l 1,17,-1
 511 286 l 1,18,-1
 511 204 l 1,19,-1
 242 204 l 1,0,-1
EndSplineSet
EndChar

StartChar: AE
Encoding: 198 198 144
Width: 1000
GlyphClass: 2
Flags: W
HStem: 0 84<572 945> 207 84<241 477> 327 84<572 907> 631 85<406 477 572 932>
VStem: 477 95<84 207 291 327 411 631>
AnchorPoint: "Anchor-20" 0 1025 basechar 0
AnchorPoint: "Anchor-19" 1000 1025 basechar 0
AnchorPoint: "Anchor-16" 879 0 basechar 0
AnchorPoint: "Anchor-13" 500 -212 basechar 0
AnchorPoint: "Anchor-12" 1000 928 basechar 0
AnchorPoint: "Anchor-8" 525 -59 basechar 0
AnchorPoint: "Anchor-7" 930 760 basechar 0
AnchorPoint: "Anchor-6" 635 760 basechar 0
LayerCount: 2
Fore
SplineSet
0 0 m 1,0,-1
 345 716 l 1,1,-1
 932 716 l 1,2,-1
 932 631 l 1,3,-1
 572 631 l 1,4,-1
 572 411 l 1,5,-1
 907 411 l 1,6,-1
 907 327 l 1,7,-1
 572 327 l 1,8,-1
 572 84 l 1,9,-1
 945 84 l 1,10,-1
 945 0 l 1,11,-1
 477 0 l 1,12,-1
 477 207 l 1,13,-1
 201 207 l 1,14,-1
 103 0 l 1,15,-1
 0 0 l 1,0,-1
241 291 m 1,16,-1
 477 291 l 1,17,-1
 477 631 l 1,18,-1
 406 631 l 1,19,-1
 241 291 l 1,16,-1
EndSplineSet
EndChar

StartChar: Oslash
Encoding: 216 216 145
Width: 777
GlyphClass: 2
Flags: W
HStem: -12 81<284.912 491.106> 647 81<285.723 489.686>
VStem: 46 98<225.712 495.129> 633 98<223.176 490.94>
AnchorPoint: "Anchor-20" 0 1025 basechar 0
AnchorPoint: "Anchor-19" 778 1025 basechar 0
AnchorPoint: "Anchor-16" 464 0 basechar 0
AnchorPoint: "Anchor-13" 389 -212 basechar 0
AnchorPoint: "Anchor-12" 778 928 basechar 0
AnchorPoint: "Anchor-8" 391 -59 basechar 0
AnchorPoint: "Anchor-7" 684 760 basechar 0
AnchorPoint: "Anchor-6" 391 760 basechar 0
LayerCount: 2
Fore
SplineSet
610 650 m 1,0,-1
 692 742 l 1,1,-1
 741 701 l 1,2,-1
 655 604 l 1,3,4
 697 542 697 542 711 495 c 0,5,6
 731 433 731 433 731 357 c 0,7,8
 731 247 731 247 686.5 161.5 c 128,-1,9
 642 76 642 76 561.5 32 c 128,-1,10
 481 -12 481 -12 391 -12 c 0,11,12
 324 -12 324 -12 269 7 c 0,13,14
 227 22 227 22 171 63 c 1,15,-1
 89 -29 l 1,16,-1
 41 12 l 1,17,-1
 126 108 l 1,18,19
 78 181 78 181 62 232.5 c 128,-1,20
 46 284 46 284 46 356 c 0,21,22
 46 466 46 466 90 552.5 c 128,-1,23
 134 639 134 639 213.5 683.5 c 128,-1,24
 293 728 293 728 390 728 c 0,25,26
 455 728 455 728 504 710.5 c 128,-1,27
 553 693 553 693 610 650 c 1,0,-1
552 584 m 1,28,29
 506 620 506 620 471.5 633.5 c 128,-1,30
 437 647 437 647 391 647 c 0,31,32
 284 647 284 647 214 574.5 c 128,-1,33
 144 502 144 502 144 358 c 0,34,35
 144 301 144 301 155 257 c 0,36,37
 164 224 164 224 188 177 c 1,38,-1
 552 584 l 1,28,29
592 534 m 1,39,-1
 229 128 l 1,40,41
 267 97 267 97 298 85 c 0,42,43
 340 69 340 69 388 69 c 0,44,45
 494 69 494 69 563.5 144 c 128,-1,46
 633 219 633 219 633 355 c 0,47,48
 634 456 634 456 592 534 c 1,39,-1
EndSplineSet
EndChar

StartChar: infinity
Encoding: 270 8734 146
Width: 712
GlyphClass: 2
Flags: W
HStem: 189 55<440.281 554.436> 219 56<148.585 250.542> 426 54<147.672 252.294> 455 55<441.703 553.38>
VStem: 75 54<295.214 406.558> 585 55<274.859 422.834>
LayerCount: 2
Fore
SplineSet
336 396 m 1,0,1
 387 460 387 460 417 481 c 0,2,3
 456 509 456 509 499 510 c 0,4,5
 550 510 550 510 595 473 c 128,-1,6
 640 436 640 436 640 353 c 0,7,8
 640 295 640 295 623 262 c 128,-1,9
 606 229 606 229 571 209 c 128,-1,10
 536 189 536 189 499 189 c 0,11,12
 456 189 456 189 417 217 c 0,13,14
 388 238 388 238 336 303 c 1,15,16
 270 220 270 220 195 219 c 0,17,18
 146 219 146 219 110.5 256.5 c 128,-1,19
 75 294 75 294 75 350 c 0,20,21
 75 405 75 405 110.5 442.5 c 128,-1,22
 146 480 146 480 195 480 c 0,23,24
 270 479 270 479 336 396 c 1,0,1
370 350 m 1,25,26
 412 284 412 284 448 260 c 0,27,28
 470 244 470 244 498 244 c 0,29,30
 535 244 535 244 560 271 c 128,-1,31
 585 298 585 298 585 348 c 0,32,33
 585 400 585 400 559.5 427.5 c 128,-1,34
 534 455 534 455 496 455 c 0,35,36
 472 455 472 455 451 441 c 0,37,38
 423 422 423 422 370 350 c 1,25,26
303 350 m 1,39,40
 264 399 264 399 240.5 412.5 c 128,-1,41
 217 426 217 426 195 426 c 0,42,43
 167 426 167 426 148 406 c 128,-1,44
 129 386 129 386 129 351 c 128,-1,45
 129 316 129 316 148.5 295.5 c 128,-1,46
 168 275 168 275 196 275 c 0,47,48
 246 275 246 275 303 350 c 1,39,40
EndSplineSet
EndChar

StartChar: plusminus
Encoding: 271 177 147
Width: 548
GlyphClass: 2
Flags: W
HStem: 0 82<38 511> 324 81<38 233 316 511>
VStem: 233 83<127 324 405 600>
LayerCount: 2
Fore
SplineSet
233 127 m 1,0,-1
 233 324 l 1,1,-1
 38 324 l 1,2,-1
 38 405 l 1,3,-1
 233 405 l 1,4,-1
 233 600 l 1,5,-1
 316 600 l 1,6,-1
 316 405 l 1,7,-1
 511 405 l 1,8,-1
 511 324 l 1,9,-1
 316 324 l 1,10,-1
 316 127 l 1,11,-1
 233 127 l 1,0,-1
511 0 m 1,12,-1
 38 0 l 1,13,-1
 38 82 l 1,14,-1
 511 82 l 1,15,-1
 511 0 l 1,12,-1
EndSplineSet
EndChar

StartChar: lessequal
Encoding: 272 8804 148
Width: 548
GlyphClass: 2
Flags: W
HStem: 52 81<38 511>
LayerCount: 2
Fore
SplineSet
38 372 m 1,0,-1
 38 454 l 1,1,-1
 512 654 l 1,2,-1
 512 566 l 1,3,-1
 136 413 l 1,4,-1
 512 257 l 1,5,-1
 512 169 l 1,6,-1
 38 372 l 1,0,-1
511 52 m 1,7,-1
 38 52 l 1,8,-1
 38 133 l 1,9,-1
 511 133 l 1,10,-1
 511 52 l 1,7,-1
EndSplineSet
EndChar

StartChar: greaterequal
Encoding: 273 8805 149
Width: 548
GlyphClass: 2
Flags: W
HStem: 52 81<38 511>
LayerCount: 2
Fore
SplineSet
512 372 m 1,0,-1
 38 169 l 1,1,-1
 38 257 l 1,2,-1
 413 413 l 1,3,-1
 38 566 l 1,4,-1
 38 654 l 1,5,-1
 512 454 l 1,6,-1
 512 372 l 1,0,-1
511 52 m 1,7,-1
 38 52 l 1,8,-1
 38 133 l 1,9,-1
 511 133 l 1,10,-1
 511 52 l 1,7,-1
EndSplineSet
EndChar

StartChar: yen
Encoding: 274 165 150
Width: 556
GlyphClass: 2
Flags: W
HStem: 0 21G<233 321> 159 68<30 233 321 522> 296 73<30 197 355 522> 696 20G<-1 107.27 438.194 553>
VStem: 233 88<0 159 227 296>
LayerCount: 2
Fore
SplineSet
233 0 m 1,0,-1
 233 159 l 1,1,-1
 30 159 l 1,2,-1
 30 227 l 1,3,-1
 233 227 l 1,4,-1
 233 296 l 1,5,-1
 30 296 l 1,6,-1
 30 369 l 1,7,-1
 197 369 l 1,8,-1
 -1 716 l 1,9,-1
 96 716 l 1,10,-1
 238 464 l 2,11,12
 262 421 262 421 275 389 c 1,13,14
 286 415 286 415 315 468 c 2,15,-1
 449 716 l 1,16,-1
 553 716 l 1,17,-1
 355 369 l 1,18,-1
 522 369 l 1,19,-1
 522 296 l 1,20,-1
 321 296 l 1,21,-1
 321 227 l 1,22,-1
 522 227 l 1,23,-1
 522 159 l 1,24,-1
 321 159 l 1,25,-1
 321 0 l 1,26,-1
 233 0 l 1,0,-1
EndSplineSet
EndChar

StartChar: mu1
Encoding: 275 181 151
Width: 576
GlyphClass: 2
Flags: W
HStem: -199 21G<78 165> -12 79<217.105 354.679> 0 21G<418 497> 499 20G<78 165 411 497>
VStem: 78 87<-199 52 122.777 519> 411 86<125.864 519> 418 79<0 62>
LayerCount: 2
Fore
SplineSet
497 519 m 1,0,-1
 497 0 l 1,1,-1
 418 0 l 1,2,-1
 418 62 l 1,3,4
 393 23 393 23 368 8 c 0,5,6
 334 -12 334 -12 289 -12 c 0,7,8
 248 -12 248 -12 217 4 c 0,9,10
 194 16 194 16 165 52 c 1,11,-1
 165 -199 l 1,12,-1
 78 -199 l 1,13,-1
 78 519 l 1,14,-1
 165 519 l 1,15,-1
 165 299 l 2,16,17
 165 179 165 179 177.5 143.5 c 128,-1,18
 190 108 190 108 219 87.5 c 128,-1,19
 248 67 248 67 285 67 c 0,20,21
 324 67 324 67 354.5 88.5 c 128,-1,22
 385 110 385 110 398 144 c 128,-1,23
 411 178 411 178 411 297 c 2,24,-1
 411 519 l 1,25,-1
 497 519 l 1,0,-1
EndSplineSet
EndChar

StartChar: partialdiff
Encoding: 276 8706 152
Width: 494
GlyphClass: 2
Flags: W
HStem: -12 67<144.464 267.358> 666 62<262.695 371.682>
VStem: 27 88<85.0918 241.98> 417 58<269.292 389 451 610.965>
LayerCount: 2
Fore
SplineSet
208 556 m 1,0,-1
 142 585 l 1,1,2
 176 662 176 662 224 695 c 128,-1,3
 272 728 272 728 318 728 c 0,4,5
 355 728 355 728 385 708.5 c 128,-1,6
 415 689 415 689 430 665 c 0,7,8
 453 626 453 626 464 573.5 c 128,-1,9
 475 521 475 521 475 452 c 0,10,11
 475 311 475 311 433 201.5 c 128,-1,12
 391 92 391 92 319 40 c 128,-1,13
 247 -12 247 -12 178 -12 c 0,14,15
 111 -12 111 -12 69 32.5 c 128,-1,16
 27 77 27 77 27 157 c 0,17,18
 27 267 27 267 102 346 c 0,19,20
 198 447 198 447 419 451 c 1,21,22
 417 533 417 533 407 576 c 128,-1,23
 397 619 397 619 374 642.5 c 128,-1,24
 351 666 351 666 319 666 c 0,25,26
 289 666 289 666 260 642 c 128,-1,27
 231 618 231 618 208 556 c 1,0,-1
417 389 m 1,28,29
 298 382 298 382 242.5 355.5 c 128,-1,30
 187 329 187 329 151 269 c 128,-1,31
 115 209 115 209 115 148 c 0,32,33
 115 107 115 107 140 81 c 128,-1,34
 165 55 165 55 198 55 c 0,35,36
 235 55 235 55 276 82 c 0,37,38
 333 119 333 119 369 196.5 c 128,-1,39
 405 274 405 274 417 389 c 1,28,29
EndSplineSet
EndChar

StartChar: summation
Encoding: 277 8721 153
Width: 712
GlyphClass: 2
Flags: W
HStem: -210 78<169 677> 648 80<189 672>
LayerCount: 2
Fore
SplineSet
68 728 m 1,0,-1
 672 728 l 1,1,-1
 672 648 l 1,2,-1
 189 648 l 1,3,-1
 486 270 l 1,4,-1
 169 -132 l 1,5,-1
 677 -132 l 1,6,-1
 677 -210 l 1,7,-1
 60 -210 l 1,8,-1
 60 -119 l 1,9,-1
 362 266 l 1,10,-1
 68 643 l 1,11,-1
 68 728 l 1,0,-1
EndSplineSet
EndChar

StartChar: product
Encoding: 278 8719 154
Width: 823
GlyphClass: 2
Flags: W
HStem: 643 85<173 650>
VStem: 79 94<-210 643> 650 94<-210 643>
LayerCount: 2
Fore
SplineSet
79 728 m 1,0,-1
 744 728 l 1,1,-1
 744 -210 l 1,2,-1
 650 -210 l 1,3,-1
 650 643 l 1,4,-1
 173 643 l 1,5,-1
 173 -210 l 1,6,-1
 79 -210 l 1,7,-1
 79 728 l 1,0,-1
EndSplineSet
EndChar

StartChar: pi1
Encoding: 279 -1 155
Width: 548
GlyphClass: 2
Flags: W
HStem: 0 21G<78 169 377 470> 442 77<0 78 169 377 470 549>
VStem: 78 91<0 442> 377 93<0 442>
LayerCount: 2
Fore
SplineSet
0 519 m 1,0,-1
 549 519 l 1,1,-1
 549 442 l 1,2,-1
 470 442 l 1,3,-1
 470 0 l 1,4,-1
 377 0 l 1,5,-1
 377 442 l 1,6,-1
 169 442 l 1,7,-1
 169 0 l 1,8,-1
 78 0 l 1,9,-1
 78 442 l 1,10,-1
 0 442 l 1,11,-1
 0 519 l 1,0,-1
EndSplineSet
EndChar

StartChar: integral
Encoding: 280 8747 156
Width: 273
GlyphClass: 2
Flags: W
HStem: -107 76<71.1079 113.678> 834 76<159.46 235.915>
VStem: 98 77<222.908 648.089> 106 46<592.547 826.779> 121 46<-24.2943 210.508>
LayerCount: 2
Fore
SplineSet
98 463 m 1,0,-1
 106 722 l 1,1,2
 110 797 110 797 131 846 c 0,3,4
 144 878 144 878 167 894 c 128,-1,5
 190 910 190 910 212 910 c 0,6,7
 236 910 236 910 254.5 893.5 c 128,-1,8
 273 877 273 877 273 857 c 0,9,10
 273 834 273 834 260.5 820.5 c 128,-1,11
 248 807 248 807 229 807 c 0,12,13
 212 807 212 807 191 824 c 0,14,15
 180 834 180 834 172 834 c 256,16,17
 164 834 164 834 158 827 c 128,-1,18
 152 820 152 820 152 803 c 0,19,20
 152 782 152 782 157 732 c 0,21,22
 175 532 175 532 175 407 c 0,23,24
 175 374 175 374 167 120 c 1,25,26
 163 -24 163 -24 123 -75 c 0,27,28
 97 -108 97 -108 58 -107 c 0,29,30
 33 -107 33 -107 16.5 -90.5 c 128,-1,31
 0 -74 0 -74 0 -48 c 0,32,33
 0 -26 0 -26 12.5 -13 c 128,-1,34
 25 0 25 0 44 0 c 0,35,36
 64 0 64 0 78 -15.5 c 128,-1,37
 92 -31 92 -31 102 -31 c 0,38,39
 110 -31 110 -31 115.5 -24.5 c 128,-1,40
 121 -18 121 -18 121 -1 c 0,41,42
 121 20 121 20 116 57 c 0,43,44
 98 211 98 211 98 463 c 1,0,-1
EndSplineSet
EndChar

StartChar: ordfeminine
Encoding: 281 170 157
Width: 370
GlyphClass: 2
Flags: W
HStem: 364 59<108.966 222.718> 671 57<123.659 248.607>
VStem: 23 73<437.439 501.593> 36 67<624.328 653.967> 260 71<456.819 539 591.027 641.62> 268 63<373.791 417>
LayerCount: 2
Fore
SplineSet
268 417 m 1,0,1
 208 365 208 365 143 364 c 0,2,3
 88 364 88 364 55.5 394 c 128,-1,4
 23 424 23 424 23 471 c 0,5,6
 23 494 23 494 31 512 c 128,-1,7
 39 530 39 530 54 543.5 c 128,-1,8
 69 557 69 557 94 565 c 0,9,10
 111 570 111 570 142 576 c 2,11,-1
 214 586 l 1,12,13
 249 593 249 593 261 596 c 1,14,15
 261 630 261 630 254.5 642 c 128,-1,16
 248 654 248 654 230.5 662.5 c 128,-1,17
 213 671 213 671 184 671 c 0,18,19
 145 671 145 671 126 655 c 128,-1,20
 107 639 107 639 103 610 c 1,21,-1
 36 626 l 1,22,23
 42 669 42 669 79 698.5 c 128,-1,24
 116 728 116 728 185 728 c 0,25,26
 265 728 265 728 298 698 c 129,-1,27
 331 668 331 668 331 610 c 2,28,-1
 331 493 l 1,29,-1
 331 463 l 1,30,31
 331 398 331 398 351 373 c 1,32,-1
 278 373 l 1,33,34
 269 393 269 393 268 417 c 1,0,1
260 539 m 1,35,36
 234 532 234 532 167 521 c 0,37,38
 123 514 123 514 109 502 c 0,39,40
 95 489 95 489 96 471 c 0,41,42
 96 451 96 451 112.5 437 c 128,-1,43
 129 423 129 423 159 423 c 0,44,45
 195 423 195 423 221.5 442 c 128,-1,46
 248 461 248 461 256 489 c 0,47,48
 260 498 260 498 260 539 c 1,35,36
EndSplineSet
EndChar

StartChar: ordmasculine
Encoding: 282 186 158
Width: 365
GlyphClass: 2
Flags: W
HStem: 361 65<125.652 238.965> 663 65<124.599 239.101>
VStem: 22 72<457.857 631.507> 270 72<457.976 631.223>
LayerCount: 2
Fore
SplineSet
182 728 m 256,0,1
 253 728 253 728 297.5 679 c 128,-1,2
 342 630 342 630 342 544 c 0,3,4
 342 459 342 459 297 410 c 128,-1,5
 252 361 252 361 183 361 c 0,6,7
 112 361 112 361 67 409 c 128,-1,8
 22 457 22 457 22 542 c 0,9,10
 22 630 22 630 66.5 679 c 128,-1,11
 111 728 111 728 182 728 c 256,0,1
182 663 m 0,12,13
 142 663 142 663 118 635 c 128,-1,14
 94 607 94 607 94 544 c 0,15,16
 94 482 94 482 119 454 c 128,-1,17
 144 426 144 426 182 426 c 0,18,19
 221 426 221 426 245.5 454.5 c 128,-1,20
 270 483 270 483 270 547 c 0,21,22
 270 607 270 607 245.5 635 c 128,-1,23
 221 663 221 663 182 663 c 0,12,13
EndSplineSet
EndChar

StartChar: Ohm
Encoding: 283 8486 159
Width: 768
GlyphClass: 2
Flags: W
HStem: 0 78<62 242 542 720> 654 80<295.73 487.25>
VStem: 73 104<257.718 510.915> 609 101<257.399 507.2>
LayerCount: 2
Fore
SplineSet
242 78 m 1,0,1
 189 111 189 111 162 142 c 0,2,3
 120 189 120 189 96.5 252 c 128,-1,4
 73 315 73 315 73 392 c 0,5,6
 73 488 73 488 112 568 c 128,-1,7
 151 648 151 648 225 691 c 128,-1,8
 299 734 299 734 395 734 c 0,9,10
 559 734 559 734 646 610 c 0,11,12
 710 519 710 519 710 391 c 0,13,14
 710 309 710 309 684 246 c 128,-1,15
 658 183 658 183 615 137 c 0,16,17
 589 109 589 109 542 78 c 1,18,-1
 720 81 l 1,19,-1
 720 0 l 1,20,-1
 439 0 l 1,21,-1
 439 86 l 1,22,23
 478 106 478 106 500 125 c 0,24,25
 535 155 535 155 559.5 195.5 c 128,-1,26
 584 236 584 236 596.5 282.5 c 128,-1,27
 609 329 609 329 609 379 c 0,28,29
 609 446 609 446 585 514.5 c 128,-1,30
 561 583 561 583 511.5 618.5 c 128,-1,31
 462 654 462 654 393 654 c 0,32,33
 300 654 300 654 248 596 c 1,34,35
 177 513 177 513 177 381 c 0,36,37
 177 275 177 275 221.5 199 c 128,-1,38
 266 123 266 123 344 88 c 1,39,-1
 344 0 l 1,40,-1
 62 0 l 1,41,-1
 62 82 l 1,42,-1
 242 78 l 1,0,1
EndSplineSet
EndChar

StartChar: ae
Encoding: 230 230 160
Width: 889
GlyphClass: 2
Flags: W
HStem: -12 73<152.546 318.289 541.782 698.008> 237 72<473 758> 260 67<307.391 386> 458 72<176.46 356.473 539.15 696.546>
VStem: 33 93<86.1492 193.299> 47 86<367.186 416.17> 386 87<127.838 237 321.478 389.294>
AnchorPoint: "Anchor-20" 0 1025 basechar 0
AnchorPoint: "Anchor-19" 889 1025 basechar 0
AnchorPoint: "Anchor-16" 684 0 basechar 0
AnchorPoint: "Anchor-13" 444 -212 basechar 0
AnchorPoint: "Anchor-12" 889 928 basechar 0
AnchorPoint: "Anchor-10" 796 454 basechar 0
AnchorPoint: "Anchor-8" 420 -59 basechar 0
AnchorPoint: "Anchor-7" 830 635 basechar 0
AnchorPoint: "Anchor-6" 439 595 basechar 0
LayerCount: 2
Fore
SplineSet
847 159 m 1,0,1
 823 77 823 77 764 32.5 c 128,-1,2
 705 -12 705 -12 618 -12 c 0,3,4
 556 -12 556 -12 509.5 11.5 c 128,-1,5
 463 35 463 35 425 85 c 1,6,7
 374 35 374 35 322.5 11.5 c 128,-1,8
 271 -12 271 -12 210 -12 c 0,9,10
 126 -12 126 -12 79.5 31.5 c 128,-1,11
 33 75 33 75 33 137 c 0,12,13
 33 179 33 179 57.5 215.5 c 128,-1,14
 82 252 82 252 125 271.5 c 128,-1,15
 168 291 168 291 263 303 c 0,16,17
 336 313 336 313 386 327 c 1,18,19
 386 339 386 339 386 347 c 0,20,21
 386 409 386 409 360.5 433.5 c 128,-1,22
 335 458 335 458 271 458 c 0,23,24
 229 458 229 458 199.5 447.5 c 128,-1,25
 170 437 170 437 156 418 c 128,-1,26
 142 399 142 399 133 358 c 1,27,-1
 47 368 l 1,28,29
 61 425 61 425 86.5 458.5 c 128,-1,30
 112 492 112 492 160 511 c 128,-1,31
 208 530 208 530 272 530 c 0,32,33
 354 530 354 530 403 506 c 0,34,35
 432 492 432 492 452 460 c 1,36,37
 483 494 483 494 522.5 512 c 128,-1,38
 562 530 562 530 618 530 c 0,39,40
 697 530 697 530 749 492 c 128,-1,41
 801 454 801 454 825 391 c 128,-1,42
 849 328 849 328 849 267 c 0,43,44
 849 258 849 258 848 237 c 1,45,-1
 473 237 l 1,46,47
 474 167 474 167 490.5 135 c 128,-1,48
 507 103 507 103 543 82 c 128,-1,49
 579 61 579 61 622 61 c 0,50,51
 672 61 672 61 707 89.5 c 128,-1,52
 742 118 742 118 755 170 c 1,53,-1
 847 159 l 1,0,1
473 309 m 1,54,-1
 758 309 l 1,55,56
 751 386 751 386 714 422 c 128,-1,57
 677 458 677 458 618 458 c 0,58,59
 556 458 556 458 516.5 418.5 c 128,-1,60
 477 379 477 379 473 309 c 1,54,-1
387 260 m 1,61,62
 348 243 348 243 230 225 c 0,63,64
 177 217 177 217 155 200 c 0,65,66
 126 177 126 177 126 140 c 0,67,68
 126 105 126 105 152 81.5 c 128,-1,69
 178 58 178 58 228 58 c 0,70,71
 284 58 284 58 325.5 85.5 c 128,-1,72
 367 113 367 113 380 155 c 0,73,74
 387 180 387 180 387 260 c 1,61,62
EndSplineSet
EndChar

StartChar: oslash
Encoding: 248 248 161
Width: 610
GlyphClass: 2
Flags: W
HStem: -12 73<229.614 381.914> 458 72<230.697 379.32>
VStem: 63 90<146.301 372.949> 459 90<145.069 373.054>
AnchorPoint: "Anchor-20" 0 1025 basechar 0
AnchorPoint: "Anchor-19" 611 1025 basechar 0
AnchorPoint: "Anchor-16" 332 0 basechar 0
AnchorPoint: "Anchor-13" 305 -212 basechar 0
AnchorPoint: "Anchor-12" 611 928 basechar 0
AnchorPoint: "Anchor-10" 498 454 basechar 0
AnchorPoint: "Anchor-8" 303 -59 basechar 0
AnchorPoint: "Anchor-7" 518 635 basechar 0
AnchorPoint: "Anchor-6" 303 595 basechar 0
LayerCount: 2
Fore
SplineSet
449 488 m 1,0,-1
 497 550 l 1,1,-1
 544 516 l 1,2,-1
 492 449 l 1,3,4
 523 407 523 407 534 373 c 1,5,6
 549 324 549 324 549 259 c 0,7,8
 549 113 549 113 466 43 c 0,9,10
 399 -12 399 -12 305 -12 c 0,11,12
 227 -12 227 -12 168 27 c 1,13,-1
 117 -39 l 1,14,-1
 71 -4 l 1,15,-1
 124 65 l 1,16,17
 95 98 95 98 83 131 c 0,18,19
 63 184 63 184 63 252 c 0,20,21
 63 399 63 399 135 464.5 c 128,-1,22
 207 530 207 530 303 530 c 0,23,24
 343 530 343 530 377 520 c 128,-1,25
 411 510 411 510 449 488 c 1,0,-1
399 423 m 1,26,27
 355 457 355 457 306 458 c 0,28,29
 241 458 241 458 197 408 c 128,-1,30
 153 358 153 358 153 259 c 0,31,32
 153 186 153 186 179 137 c 1,33,-1
 399 423 l 1,26,27
436 376 m 1,34,-1
 217 91 l 1,35,36
 255 60 255 60 303 61 c 0,37,38
 371 61 371 61 415 110.5 c 128,-1,39
 459 160 459 160 459 260 c 0,40,41
 459 297 459 297 453 325 c 0,42,43
 449 345 449 345 436 376 c 1,34,-1
EndSplineSet
EndChar

StartChar: questiondown
Encoding: 190 191 162
Width: 610
GlyphClass: 2
Flags: W
HStem: -209 72<228.773 381.646> 418 101<258 358>
VStem: 77 90<-76.473 55.9775> 258 100<418 519> 268 85<233.087 342> 449 90<-63.0699 -2.22222>
LayerCount: 2
Fore
SplineSet
358 519 m 1,0,-1
 358 418 l 1,1,-1
 258 418 l 1,2,-1
 258 519 l 1,3,-1
 358 519 l 1,0,-1
352 342 m 1,4,5
 352 325 352 325 353 317 c 0,6,7
 353 263 353 263 338 226 c 0,8,9
 327 198 327 198 303 169 c 0,10,11
 285 148 285 148 239.5 108 c 128,-1,12
 194 68 194 68 180.5 44 c 128,-1,13
 167 20 167 20 167 -8 c 0,14,15
 167 -60 167 -60 207.5 -98.5 c 128,-1,16
 248 -137 248 -137 306 -137 c 0,17,18
 362 -137 362 -137 399.5 -102 c 128,-1,19
 437 -67 437 -67 449 7 c 1,20,-1
 539 -3 l 1,21,22
 527 -102 527 -102 466.5 -155.5 c 128,-1,23
 406 -209 406 -209 307 -209 c 0,24,25
 202 -209 202 -209 139.5 -152 c 128,-1,26
 77 -95 77 -95 77 -14 c 0,27,28
 77 33 77 33 99 72 c 128,-1,29
 121 111 121 111 185 168 c 0,30,31
 228 207 228 207 241 225 c 128,-1,32
 254 243 254 243 260.5 266.5 c 128,-1,33
 267 290 267 290 268 342 c 1,34,-1
 352 342 l 1,4,5
EndSplineSet
EndChar

StartChar: exclamdown
Encoding: 189 161 163
Width: 333
GlyphClass: 2
Flags: W
HStem: 418 101<117 218>
VStem: 113 109<-197 59.2593 418 519>
LayerCount: 2
Fore
SplineSet
218 519 m 1,0,-1
 218 418 l 1,1,-1
 117 418 l 1,2,-1
 117 519 l 1,3,-1
 218 519 l 1,0,-1
195 340 m 1,4,-1
 222 -39 l 1,5,-1
 222 -197 l 1,6,-1
 113 -197 l 1,7,-1
 113 -39 l 1,8,-1
 139 340 l 1,9,-1
 195 340 l 1,4,-1
EndSplineSet
EndChar

StartChar: logicalnot
Encoding: 284 172 164
Width: 583
GlyphClass: 2
Flags: W
HStem: 421 82<56 445>
VStem: 445 83<207 421>
LayerCount: 2
Fore
SplineSet
528 207 m 1,0,-1
 445 207 l 1,1,-1
 445 421 l 1,2,-1
 56 421 l 1,3,-1
 56 503 l 1,4,-1
 528 503 l 1,5,-1
 528 207 l 1,0,-1
EndSplineSet
EndChar

StartChar: radical
Encoding: 285 8730 165
Width: 548
GlyphClass: 2
Flags: W
HStem: 501 20G<148.27 197.851>
LayerCount: 2
Fore
SplineSet
513 913 m 1,0,-1
 549 913 l 1,1,-1
 396 -38 l 1,2,-1
 154 460 l 1,3,-1
 58 416 l 1,4,-1
 41 447 l 1,5,-1
 188 521 l 1,6,-1
 386 119 l 1,7,-1
 513 913 l 1,0,-1
EndSplineSet
EndChar

StartChar: florin
Encoding: 286 402 166
Width: 556
GlyphClass: 2
Flags: W
HStem: -210 77<41.5254 153.56> 450 69<176 263 364 452> 647 82<394.625 515.663>
AnchorPoint: "Anchor-20" 0 1025 basechar 0
AnchorPoint: "Anchor-19" 556 1025 basechar 0
AnchorPoint: "Anchor-16" 210 -171 basechar 0
AnchorPoint: "Anchor-13" 278 -212 basechar 0
AnchorPoint: "Anchor-12" 556 928 basechar 0
AnchorPoint: "Anchor-8" 183 -269 basechar 0
AnchorPoint: "Anchor-7" 557 760 basechar 0
AnchorPoint: "Anchor-6" 415 760 basechar 0
LayerCount: 2
Fore
SplineSet
22 -198 m 1,0,-1
 40 -122 l 1,1,2
 89 -133 89 -133 114 -133 c 0,3,4
 140 -133 140 -133 154 -119 c 128,-1,5
 168 -105 168 -105 176 -59 c 2,6,-1
 263 450 l 1,7,-1
 165 450 l 1,8,-1
 176 519 l 1,9,-1
 274 519 l 1,10,-1
 286 583 l 2,11,12
 297 642 297 642 308 664 c 0,13,14
 323 694 323 694 351 711.5 c 128,-1,15
 379 729 379 729 425 729 c 0,16,17
 464 729 464 729 530 710 c 1,18,-1
 513 635 l 1,19,20
 464 647 464 647 438 647 c 0,21,22
 411 647 411 647 397 633.5 c 128,-1,23
 383 620 383 620 374 569 c 2,24,-1
 364 519 l 1,25,-1
 464 519 l 1,26,-1
 452 450 l 1,27,-1
 352 450 l 1,28,-1
 259 -83 l 2,29,30
 246 -155 246 -155 216.5 -182.5 c 128,-1,31
 187 -210 187 -210 132 -210 c 0,32,33
 85 -211 85 -211 22 -198 c 1,0,-1
EndSplineSet
EndChar

StartChar: approxequal
Encoding: 287 8776 167
Width: 548
GlyphClass: 2
Flags: W
HStem: 185 92<317.199 468.219> 250 92<78.6953 238.292> 361 93<317.174 468.602> 427 92<79.8438 239.021>
LayerCount: 2
Fore
SplineSet
25 360 m 1,0,-1
 25 460 l 1,1,2
 77 519 77 519 161 519 c 0,3,4
 190 519 190 519 222 510.5 c 128,-1,5
 254 502 254 502 314 477 c 0,6,7
 348 462 348 462 364.5 458 c 128,-1,8
 381 454 381 454 398 454 c 0,9,10
 430 454 430 454 464 473 c 128,-1,11
 498 492 498 492 524 521 c 1,12,-1
 524 417 l 1,13,14
 493 388 493 388 461 374.5 c 128,-1,15
 429 361 429 361 389 361 c 0,16,17
 360 361 360 361 333.5 368 c 128,-1,18
 307 375 307 375 249 401 c 128,-1,19
 191 427 191 427 152 427 c 0,20,21
 121 427 121 427 93.5 413.5 c 128,-1,22
 66 400 66 400 25 360 c 1,0,-1
25 184 m 1,23,-1
 25 284 l 1,24,25
 77 343 77 343 161 342 c 0,26,27
 190 342 190 342 222 334 c 128,-1,28
 254 326 254 326 314 300 c 0,29,30
 348 286 348 286 364.5 281.5 c 128,-1,31
 381 277 381 277 398 277 c 0,32,33
 430 277 430 277 464 296 c 128,-1,34
 498 315 498 315 524 344 c 1,35,-1
 524 240 l 1,36,37
 493 211 493 211 461 198 c 128,-1,38
 429 185 429 185 389 185 c 0,39,40
 360 185 360 185 333.5 191.5 c 128,-1,41
 307 198 307 198 249 224 c 128,-1,42
 191 250 191 250 152 250 c 0,43,44
 121 250 121 250 93.5 237 c 128,-1,45
 66 224 66 224 25 184 c 1,23,-1
EndSplineSet
EndChar

StartChar: uni2206
Encoding: 288 8710 168
Width: 611
GlyphClass: 2
Flags: W
HStem: 0 40<74 483>
LayerCount: 2
Fore
SplineSet
599 0 m 1,0,-1
 13 0 l 1,1,-1
 319 677 l 1,2,-1
 599 0 l 1,0,-1
483 40 m 1,3,-1
 289 512 l 1,4,-1
 74 40 l 1,5,-1
 483 40 l 1,3,-1
EndSplineSet
EndChar

StartChar: guillemotleft
Encoding: 19 171 169
Width: 556
GlyphClass: 2
Flags: W
LayerCount: 2
Fore
SplineSet
166 258 m 1,0,-1
 292 35 l 1,1,-1
 221 35 l 1,2,-1
 65 258 l 1,3,-1
 221 480 l 1,4,-1
 293 480 l 1,5,-1
 166 258 l 1,0,-1
355 258 m 1,6,-1
 484 35 l 1,7,-1
 410 35 l 1,8,-1
 257 258 l 1,9,-1
 410 480 l 1,10,-1
 484 480 l 1,11,-1
 355 258 l 1,6,-1
EndSplineSet
EndChar

StartChar: guillemotright
Encoding: 20 187 170
Width: 556
GlyphClass: 2
Flags: W
LayerCount: 2
Fore
SplineSet
386 258 m 1,0,-1
 259 480 l 1,1,-1
 331 480 l 1,2,-1
 487 258 l 1,3,-1
 331 35 l 1,4,-1
 259 35 l 1,5,-1
 386 258 l 1,0,-1
197 258 m 1,6,-1
 68 480 l 1,7,-1
 142 480 l 1,8,-1
 295 258 l 1,9,-1
 142 35 l 1,10,-1
 68 35 l 1,11,-1
 197 258 l 1,6,-1
EndSplineSet
EndChar

StartChar: elipsis
Encoding: 289 8230 171
Width: 1000
GlyphClass: 2
Flags: W
HStem: 0 100<117 217 450 550 783 884>
VStem: 117 100<0 100> 450 100<0 100> 783 101<0 100>
LayerCount: 2
Fore
SplineSet
117 0 m 1,0,-1
 117 100 l 1,1,-1
 217 100 l 1,2,-1
 217 0 l 1,3,-1
 117 0 l 1,0,-1
450 0 m 1,4,-1
 450 100 l 1,5,-1
 550 100 l 1,6,-1
 550 0 l 1,7,-1
 450 0 l 1,4,-1
783 0 m 1,8,-1
 783 100 l 1,9,-1
 884 100 l 1,10,-1
 884 0 l 1,11,-1
 783 0 l 1,8,-1
EndSplineSet
EndChar

StartChar: OE
Encoding: 215 338 175
Width: 1000
GlyphClass: 2
Flags: W
HStem: -12 76<271.724 433.341> 0 84<636 968> 329 84<636 928> 631 85<636 953> 651 77<272.933 431.331>
VStem: 63 98<198.535 516.141> 547 89<84 104 215.271 329 413 503.043 619 631>
AnchorPoint: "Anchor-20" 0 1025 basechar 0
AnchorPoint: "Anchor-19" 1000 1025 basechar 0
AnchorPoint: "Anchor-16" 889 0 basechar 0
AnchorPoint: "Anchor-13" 500 -212 basechar 0
AnchorPoint: "Anchor-12" 1000 928 basechar 0
AnchorPoint: "Anchor-8" 537 -59 basechar 0
AnchorPoint: "Anchor-7" 964 760 basechar 0
AnchorPoint: "Anchor-6" 537 760 basechar 0
LayerCount: 2
Fore
SplineSet
968 84 m 1,0,-1
 968 0 l 1,1,-1
 547 0 l 1,2,-1
 547 104 l 1,3,4
 481 -12 481 -12 352 -12 c 0,5,6
 205 -12 205 -12 129 101 c 0,7,8
 63 201 63 201 63 359 c 0,9,10
 63 516 63 516 132.5 622 c 128,-1,11
 202 728 202 728 352 728 c 0,12,13
 481 728 481 728 547 619 c 1,14,-1
 547 716 l 1,15,-1
 953 716 l 1,16,-1
 953 631 l 1,17,-1
 636 631 l 1,18,-1
 636 413 l 1,19,-1
 928 413 l 1,20,-1
 928 329 l 1,21,-1
 636 329 l 1,22,-1
 636 84 l 1,23,-1
 968 84 l 1,0,-1
352 651 m 0,24,25
 303 651 303 651 255.5 619.5 c 128,-1,26
 208 588 208 588 184.5 523 c 128,-1,27
 161 458 161 458 161 352 c 0,28,29
 161 204 161 204 217 134 c 128,-1,30
 273 64 273 64 352 64 c 128,-1,31
 431 64 431 64 486.5 133.5 c 128,-1,32
 542 203 542 203 542 364 c 0,33,34
 542 513 542 513 486 582 c 128,-1,35
 430 651 430 651 352 651 c 0,24,25
EndSplineSet
EndChar

StartChar: oe
Encoding: 247 339 176
Width: 943
GlyphClass: 2
Flags: W
HStem: -12 73<206.019 355.332 599.595 752.634> 236 72<527 814> 458 72<207.236 357.278 596.174 747.855>
VStem: 40 90<144.739 369.164> 435 89<149.131 236 308 372.16>
AnchorPoint: "Anchor-20" 0 1025 basechar 0
AnchorPoint: "Anchor-19" 944 1025 basechar 0
AnchorPoint: "Anchor-16" 742 0 basechar 0
AnchorPoint: "Anchor-13" 472 -212 basechar 0
AnchorPoint: "Anchor-12" 944 928 basechar 0
AnchorPoint: "Anchor-10" 859 454 basechar 0
AnchorPoint: "Anchor-8" 464 -59 basechar 0
AnchorPoint: "Anchor-7" 886 595 basechar 0
AnchorPoint: "Anchor-6" 464 595 basechar 0
LayerCount: 2
Fore
SplineSet
478 85 m 1,0,1
 441 37 441 37 392.5 12.5 c 128,-1,2
 344 -12 344 -12 284 -12 c 0,3,4
 174 -12 174 -12 107 58 c 128,-1,5
 40 128 40 128 40 253 c 0,6,7
 40 336 40 336 68.5 401 c 128,-1,8
 97 466 97 466 155.5 498 c 128,-1,9
 214 530 214 530 285 530 c 0,10,11
 352 530 352 530 402.5 502 c 128,-1,12
 453 474 453 474 478 431 c 1,13,14
 509 476 509 476 558 503 c 128,-1,15
 607 530 607 530 667 530 c 0,16,17
 774 530 774 530 841 457 c 0,18,19
 906 384 906 384 907 240 c 2,20,-1
 907 236 l 1,21,-1
 524 236 l 1,22,23
 525 155 525 155 569 108 c 128,-1,24
 613 61 613 61 678 61 c 0,25,26
 726 61 726 61 761 88 c 128,-1,27
 796 115 796 115 812 169 c 1,28,-1
 900 156 l 1,29,30
 879 75 879 75 821.5 31.5 c 128,-1,31
 764 -12 764 -12 677 -12 c 0,32,33
 612 -12 612 -12 560 13.5 c 128,-1,34
 508 39 508 39 478 85 c 1,0,1
130 260 m 0,35,36
 130 169 130 169 165 122 c 0,37,38
 210 60 210 60 282 61 c 0,39,40
 345 61 345 61 390 112.5 c 128,-1,41
 435 164 435 164 435 261 c 128,-1,42
 435 358 435 358 390.5 408 c 128,-1,43
 346 458 346 458 282 458 c 0,44,45
 240 458 240 458 204 434 c 128,-1,46
 168 410 168 410 149 363 c 128,-1,47
 130 316 130 316 130 260 c 0,35,36
527 308 m 1,48,-1
 814 308 l 1,49,50
 808 382 808 382 769 420 c 128,-1,51
 730 458 730 458 673 458 c 0,52,53
 614 458 614 458 573 418 c 128,-1,54
 532 378 532 378 527 308 c 1,48,-1
EndSplineSet
EndChar

StartChar: endash
Encoding: 21 8211 177
Width: 556
GlyphClass: 2
Flags: W
HStem: 224 70<-2 554>
LayerCount: 2
Fore
SplineSet
-2 224 m 1,0,-1
 -2 294 l 1,1,-1
 554 294 l 1,2,-1
 554 224 l 1,3,-1
 -2 224 l 1,0,-1
EndSplineSet
EndChar

StartChar: emdash
Encoding: 22 8212 178
Width: 1000
GlyphClass: 2
Flags: W
HStem: 224 70<0 1000>
LayerCount: 2
Fore
SplineSet
0 224 m 1,0,-1
 0 294 l 1,1,-1
 1000 294 l 1,2,-1
 1000 224 l 1,3,-1
 0 224 l 1,0,-1
EndSplineSet
EndChar

StartChar: quotedblleft
Encoding: 16 8220 179
Width: 333
GlyphClass: 2
Flags: W
HStem: 494 102<89 135 240 286> 708 20G<99 133.941 250.5 284.941>
VStem: 41 94<494 595.31> 41 48<596 668.054> 192 94<494 595.31> 192 48<596 671.031>
LayerCount: 2
Fore
SplineSet
135 596 m 1,0,-1
 135 494 l 1,1,-1
 41 494 l 1,2,-1
 41 574 l 2,3,4
 41 639 41 639 56 669 c 0,5,6
 77 708 77 708 121 728 c 1,7,-1
 143 694 l 1,8,9
 116 683 116 683 103 660.5 c 128,-1,10
 90 638 90 638 89 596 c 1,11,-1
 135 596 l 1,0,-1
286 596 m 1,12,-1
 286 494 l 1,13,-1
 192 494 l 1,14,-1
 192 574 l 2,15,16
 192 639 192 639 208 669 c 0,17,18
 229 708 229 708 272 728 c 1,19,-1
 294 694 l 1,20,21
 267 683 267 683 254.5 660.5 c 128,-1,22
 242 638 242 638 240 596 c 1,23,-1
 286 596 l 1,12,-1
EndSplineSet
EndChar

StartChar: quotedblright
Encoding: 17 8221 180
Width: 333
GlyphClass: 2
Flags: W
HStem: 621 102<42 88 194 240>
VStem: 42 95<621.69 723> 88 49<548.946 621> 194 94<621.69 723> 240 48<548.946 621>
LayerCount: 2
Fore
SplineSet
42 621 m 1,0,-1
 42 723 l 1,1,-1
 137 723 l 1,2,-1
 137 643 l 2,3,4
 137 578 137 578 122 548 c 0,5,6
 101 508 101 508 56 489 c 1,7,-1
 35 523 l 1,8,9
 61 534 61 534 74 557.5 c 128,-1,10
 87 581 87 581 88 621 c 1,11,-1
 42 621 l 1,0,-1
194 621 m 1,12,-1
 194 723 l 1,13,-1
 288 723 l 1,14,-1
 288 643 l 2,15,16
 288 578 288 578 273 548 c 0,17,18
 252 508 252 508 208 489 c 1,19,-1
 186 523 l 1,20,21
 212 534 212 534 225 557.5 c 128,-1,22
 238 581 238 581 240 621 c 1,23,-1
 194 621 l 1,12,-1
EndSplineSet
EndChar

StartChar: quoteleft
Encoding: 96 8216 181
Width: 222
GlyphClass: 2
Flags: W
HStem: 494 102<111 157> 708 20G<121 155.941>
VStem: 62 95<494 595.31> 62 49<596 668.054>
LayerCount: 2
Fore
SplineSet
157 596 m 1,0,-1
 157 494 l 1,1,-1
 62 494 l 1,2,-1
 62 574 l 2,3,4
 62 639 62 639 78 669 c 0,5,6
 99 708 99 708 143 728 c 1,7,-1
 165 694 l 1,8,9
 138 683 138 683 125 660.5 c 128,-1,10
 112 638 112 638 111 596 c 1,11,-1
 157 596 l 1,0,-1
EndSplineSet
EndChar

StartChar: quoteright
Encoding: 39 8217 182
Width: 222
GlyphClass: 2
Flags: W
HStem: 621 102<61 106>
VStem: 61 94<621.69 723> 106 49<548.946 621>
LayerCount: 2
Fore
SplineSet
61 621 m 1,0,-1
 61 723 l 1,1,-1
 155 723 l 1,2,-1
 155 643 l 2,3,4
 155 578 155 578 140 548 c 0,5,6
 119 508 119 508 74 489 c 1,7,-1
 53 523 l 1,8,9
 79 534 79 534 92 557.5 c 128,-1,10
 105 581 105 581 106 621 c 1,11,-1
 61 621 l 1,0,-1
EndSplineSet
EndChar

StartChar: divide
Encoding: 290 247 183
Width: 548
GlyphClass: 2
Flags: W
HStem: 156 100<224 324> 312 82<38 511> 450 100<224 324>
VStem: 224 100<156 256 450 550>
CounterMasks: 1 e0
LayerCount: 2
Fore
SplineSet
224 450 m 1,0,-1
 224 550 l 1,1,-1
 324 550 l 1,2,-1
 324 450 l 1,3,-1
 224 450 l 1,0,-1
511 312 m 1,4,-1
 38 312 l 1,5,-1
 38 394 l 1,6,-1
 511 394 l 1,7,-1
 511 312 l 1,4,-1
224 156 m 1,8,-1
 224 256 l 1,9,-1
 324 256 l 1,10,-1
 324 156 l 1,11,-1
 224 156 l 1,8,-1
EndSplineSet
EndChar

StartChar: lozenge
Encoding: 291 9674 184
Width: 494
GlyphClass: 2
Flags: W
HStem: 0 21G<202.96 279.792>
LayerCount: 2
Fore
SplineSet
268 694 m 1,0,-1
 472 346 l 1,1,-1
 268 0 l 1,2,-1
 214 0 l 1,3,-1
 23 346 l 1,4,-1
 214 694 l 1,5,-1
 268 694 l 1,0,-1
242 647 m 1,6,-1
 76 346 l 1,7,-1
 242 46 l 1,8,-1
 417 346 l 1,9,-1
 242 647 l 1,6,-1
EndSplineSet
EndChar

StartChar: fraction
Encoding: 292 8260 187
AltUni2: 002215.ffffffff.0
Width: 166
GlyphClass: 2
Flags: W
HStem: 708 20G<300.794 392>
LayerCount: 2
Fore
SplineSet
-222 -28 m 1,0,-1
 315 728 l 1,1,-1
 392 728 l 1,2,-1
 -146 -28 l 1,3,-1
 -222 -28 l 1,0,-1
EndSplineSet
EndChar

StartChar: Euro
Encoding: 293 8364 188
Width: 556
GlyphClass: 2
Flags: W
HStem: -12 81<282.311 482.141> 261 66<0 51 158 449> 391 66<0 50 156 476> 647 81<280.206 478.643>
VStem: 50 97<327 391>
LayerCount: 2
Fore
SplineSet
386 647 m 0,0,1
 304 647 304 647 248 607 c 0,2,3
 215 584 215 584 188 541 c 0,4,5
 161 497 161 497 156 457 c 1,6,-1
 489 457 l 1,7,-1
 476 391 l 1,8,-1
 148 391 l 1,9,10
 148 381 148 381 147 372 c 0,11,12
 147 334 147 334 148 327 c 1,13,-1
 462 327 l 1,14,-1
 449 261 l 1,15,-1
 158 261 l 1,16,17
 179 149 179 149 257 103 c 0,18,19
 313 69 313 69 378 69 c 0,20,21
 469 69 469 69 521 117 c 1,22,-1
 521 16 l 1,23,24
 460 -12 460 -12 386 -12 c 0,25,26
 165 -12 165 -12 88 171 c 0,27,28
 72 208 72 208 61 261 c 1,29,-1
 -14 261 l 1,30,-1
 0 327 l 1,31,-1
 51 327 l 1,32,33
 50 348 50 348 50 371 c 0,34,35
 50 381 50 381 50 391 c 1,36,-1
 -14 391 l 1,37,-1
 0 457 l 1,38,-1
 57 457 l 1,39,40
 87 616 87 616 214 685 c 0,41,42
 293 728 293 728 388 728 c 0,43,44
 479 728 479 728 541 688 c 1,45,-1
 521 598 l 1,46,47
 462 647 462 647 386 647 c 0,0,1
EndSplineSet
EndChar

StartChar: guilsinglleft
Encoding: 14 8249 189
Width: 333
GlyphClass: 2
Flags: W
VStem: 45 226
LayerCount: 2
Fore
SplineSet
142 257 m 1,0,-1
 271 35 l 1,1,-1
 199 35 l 1,2,-1
 45 257 l 1,3,-1
 199 480 l 1,4,-1
 271 480 l 1,5,-1
 142 257 l 1,0,-1
EndSplineSet
EndChar

StartChar: guilsinglright
Encoding: 15 8250 190
Width: 333
GlyphClass: 2
Flags: W
VStem: 45 221
LayerCount: 2
Fore
SplineSet
174 259 m 1,0,-1
 45 480 l 1,1,-1
 118 480 l 1,2,-1
 266 262 l 1,3,-1
 118 35 l 1,4,-1
 45 35 l 1,5,-1
 174 259 l 1,0,-1
EndSplineSet
EndChar

StartChar: fi
Encoding: 28 64257 191
Width: 500
GlyphClass: 2
Flags: W
HStem: 0 21G<89 177 344 432> 451 68<11 89 177 278> 615 101<344 432> 647 81<193.502 304.415>
VStem: 89 88<0 451 519 628.427> 344 88<0 519 615 716>
LayerCount: 2
Fore
SplineSet
89 0 m 1,0,-1
 89 451 l 1,1,-1
 11 451 l 1,2,-1
 11 519 l 1,3,-1
 89 519 l 1,4,-1
 89 569 l 2,5,6
 89 646 89 646 122.5 687 c 128,-1,7
 156 728 156 728 228 728 c 0,8,9
 276 728 276 728 317 717 c 1,10,-1
 303 643 l 1,11,12
 277 647 277 647 256 647 c 0,13,14
 211 647 211 647 194 629 c 128,-1,15
 177 611 177 611 177 552 c 2,16,-1
 177 519 l 1,17,-1
 278 519 l 1,18,-1
 278 451 l 1,19,-1
 177 451 l 1,20,-1
 177 0 l 1,21,-1
 89 0 l 1,0,-1
344 615 m 1,22,-1
 344 716 l 1,23,-1
 432 716 l 1,24,-1
 432 615 l 1,25,-1
 344 615 l 1,22,-1
344 0 m 1,26,-1
 344 519 l 1,27,-1
 432 519 l 1,28,-1
 432 0 l 1,29,-1
 344 0 l 1,26,-1
EndSplineSet
EndChar

StartChar: fl
Encoding: 29 64258 192
Width: 500
GlyphClass: 2
Flags: W
HStem: 0 21G<89 177 343 431> 451 68<11 89 177 278> 647 81<193.502 304.415> 696 20G<343 431>
VStem: 89 88<0 451 519 628.427> 343 88<0 716>
LayerCount: 2
Fore
SplineSet
89 0 m 1,0,-1
 89 451 l 1,1,-1
 11 451 l 1,2,-1
 11 519 l 1,3,-1
 89 519 l 1,4,-1
 89 569 l 2,5,6
 89 646 89 646 122.5 687 c 128,-1,7
 156 728 156 728 228 728 c 0,8,9
 276 728 276 728 317 717 c 1,10,-1
 303 643 l 1,11,12
 277 647 277 647 256 647 c 0,13,14
 211 647 211 647 194 629 c 128,-1,15
 177 611 177 611 177 552 c 2,16,-1
 177 519 l 1,17,-1
 278 519 l 1,18,-1
 278 451 l 1,19,-1
 177 451 l 1,20,-1
 177 0 l 1,21,-1
 89 0 l 1,0,-1
343 0 m 1,22,-1
 343 716 l 1,23,-1
 431 716 l 1,24,-1
 431 0 l 1,25,-1
 343 0 l 1,22,-1
EndSplineSet
EndChar

StartChar: daggerdbl
Encoding: 294 8225 193
Width: 556
GlyphClass: 2
Flags: W
HStem: 12 78<36 232 320 517> 444 79<36 232 320 517> 686 20G<232 320>
VStem: 232 88<-169 12 90 444 523 706>
LayerCount: 2
Fore
SplineSet
232 -169 m 1,0,-1
 232 12 l 1,1,-1
 36 12 l 1,2,-1
 36 90 l 1,3,-1
 232 90 l 1,4,-1
 232 444 l 1,5,-1
 36 444 l 1,6,-1
 36 523 l 1,7,-1
 232 523 l 1,8,-1
 232 706 l 1,9,-1
 320 706 l 1,10,-1
 320 523 l 1,11,-1
 517 523 l 1,12,-1
 517 444 l 1,13,-1
 320 444 l 1,14,-1
 320 90 l 1,15,-1
 517 90 l 1,16,-1
 517 12 l 1,17,-1
 320 12 l 1,18,-1
 320 -169 l 1,19,-1
 232 -169 l 1,0,-1
EndSplineSet
EndChar

StartChar: periodcentered
Encoding: 295 8729 194
Width: 277
GlyphClass: 2
Flags: W
HStem: 302 100<90 190>
VStem: 90 100<302 402>
LayerCount: 2
Fore
SplineSet
90 302 m 1,0,-1
 90 402 l 1,1,-1
 190 402 l 1,2,-1
 190 302 l 1,3,-1
 90 302 l 1,0,-1
EndSplineSet
EndChar

StartChar: quotesinglbase
Encoding: 13 8218 195
Width: 222
GlyphClass: 2
Flags: W
HStem: 0 102<61 106>
VStem: 61 94<1.56641 102> 106 49<-72.085 0>
LayerCount: 2
Fore
SplineSet
61 0 m 1,0,-1
 61 102 l 1,1,-1
 155 102 l 1,2,-1
 155 21 l 2,3,4
 155 -44 155 -44 140 -73 c 0,5,6
 119 -113 119 -113 74 -132 c 1,7,-1
 53 -98 l 1,8,9
 79 -87 79 -87 92 -64 c 128,-1,10
 105 -41 105 -41 106 0 c 1,11,-1
 61 0 l 1,0,-1
EndSplineSet
EndChar

StartChar: quotedblbase
Encoding: 18 8222 196
Width: 333
GlyphClass: 2
Flags: W
HStem: 0 102<42 88 194 240>
VStem: 42 95<1.56641 102> 88 49<-72.085 0> 194 94<1.56641 102> 240 48<-72.085 0>
LayerCount: 2
Fore
SplineSet
42 0 m 1,0,-1
 42 102 l 1,1,-1
 137 102 l 1,2,-1
 137 21 l 2,3,4
 137 -44 137 -44 122 -73 c 0,5,6
 101 -113 101 -113 56 -132 c 1,7,-1
 35 -98 l 1,8,9
 61 -87 61 -87 74 -64 c 128,-1,10
 87 -41 87 -41 88 0 c 1,11,-1
 42 0 l 1,0,-1
194 0 m 1,12,-1
 194 102 l 1,13,-1
 288 102 l 1,14,-1
 288 21 l 2,15,16
 288 -44 288 -44 273 -73 c 0,17,18
 252 -113 252 -113 208 -132 c 1,19,-1
 186 -98 l 1,20,21
 212 -87 212 -87 225 -64 c 128,-1,22
 238 -41 238 -41 240 0 c 1,23,-1
 194 0 l 1,12,-1
EndSplineSet
EndChar

StartChar: perthousand
Encoding: 296 8240 197
Width: 1000
GlyphClass: 2
Flags: W
HStem: -26 60<467.874 559.657 796.874 888.92> 289 61<467.634 557.465 796.634 886.465> 346 61<113.631 204.219> 662 60<113.635 203.427>
VStem: 18 72<430.547 638.27> 226 72<428.549 639.418> 373 72<56.644 266.865> 581 72<55.0242 265.509> 702 72<56.644 266.865> 910 72<55.0242 265.509>
LayerCount: 2
Fore
SplineSet
156 -26 m 1,0,-1
 450 728 l 1,1,-1
 514 728 l 1,2,-1
 221 -26 l 1,3,-1
 156 -26 l 1,0,-1
18 537 m 0,4,5
 18 634 18 634 56.5 678 c 128,-1,6
 95 722 95 722 158 722 c 0,7,8
 220 722 220 722 259 677.5 c 128,-1,9
 298 633 298 633 298 539 c 0,10,11
 298 443 298 443 264 394.5 c 128,-1,12
 230 346 230 346 159 346 c 0,13,14
 97 346 97 346 57.5 391.5 c 128,-1,15
 18 437 18 437 18 537 c 0,4,5
90 533 m 0,16,17
 90 459 90 459 109.5 433 c 128,-1,18
 129 407 129 407 161 407 c 0,19,20
 190 407 190 407 205 429 c 0,21,22
 226 458 226 458 226 534 c 0,23,24
 226 608 226 608 205 639 c 0,25,26
 188 662 188 662 159 662 c 0,27,28
 129 662 129 662 112 639 c 0,29,30
 90 609 90 609 90 533 c 0,16,17
373 164 m 0,31,32
 373 261 373 261 411 305.5 c 128,-1,33
 449 350 449 350 512 350 c 256,34,35
 574 350 574 350 613.5 305.5 c 128,-1,36
 653 261 653 261 653 166 c 0,37,38
 653 70 653 70 618.5 22 c 128,-1,39
 584 -26 584 -26 513 -26 c 0,40,41
 451 -26 451 -26 412 19 c 128,-1,42
 373 64 373 64 373 164 c 0,31,32
445 160 m 0,43,44
 445 86 445 86 464 60 c 128,-1,45
 483 34 483 34 515 34 c 0,46,47
 544 34 544 34 560 56 c 0,48,49
 581 86 581 86 581 161 c 128,-1,50
 581 236 581 236 559 266 c 0,51,52
 542 289 542 289 513 289 c 0,53,54
 483 289 483 289 467 267 c 0,55,56
 445 236 445 236 445 160 c 0,43,44
702 164 m 0,57,58
 702 261 702 261 740 305.5 c 128,-1,59
 778 350 778 350 841 350 c 0,60,61
 903 350 903 350 942.5 305.5 c 128,-1,62
 982 261 982 261 982 166 c 0,63,64
 982 70 982 70 948 22 c 128,-1,65
 914 -26 914 -26 842 -26 c 0,66,67
 780 -26 780 -26 741 19 c 128,-1,68
 702 64 702 64 702 164 c 0,57,58
774 160 m 0,69,70
 774 86 774 86 793 60 c 128,-1,71
 812 34 812 34 844 34 c 0,72,73
 873 34 873 34 889 56 c 0,74,75
 910 86 910 86 910 161 c 128,-1,76
 910 236 910 236 888 266 c 0,77,78
 871 289 871 289 842 289 c 0,79,80
 812 289 812 289 796 267 c 0,81,82
 774 236 774 236 774 160 c 0,69,70
EndSplineSet
EndChar

StartChar: dotlessi
Encoding: 25 305 213
Width: 277
GlyphClass: 2
Flags: W
HStem: 0 21G<97 185> 499 20G<97 185>
VStem: 97 88<0 519>
AnchorPoint: "Anchor-20" 0 1025 basechar 0
AnchorPoint: "Anchor-19" 278 1025 basechar 0
AnchorPoint: "Anchor-16" 137 0 basechar 0
AnchorPoint: "Anchor-13" 139 -212 basechar 0
AnchorPoint: "Anchor-12" 278 928 basechar 0
AnchorPoint: "Anchor-10" 179 519 basechar 0
AnchorPoint: "Anchor-8" 142 -59 basechar 0
AnchorPoint: "Anchor-7" 195 595 basechar 0
AnchorPoint: "Anchor-6" 146 595 basechar 0
LayerCount: 2
Fore
SplineSet
97 0 m 1,0,-1
 97 519 l 1,1,-1
 185 519 l 1,2,-1
 185 0 l 1,3,-1
 97 0 l 1,0,-1
EndSplineSet
EndChar

StartChar: circumflex
Encoding: 2 710 214
Width: 333
GlyphClass: 2
Flags: W
HStem: 583 137
VStem: 12 309
LayerCount: 2
Fore
SplineSet
168 666 m 1,0,-1
 113 583 l 1,1,-1
 12 583 l 1,2,-1
 118 720 l 1,3,-1
 211 720 l 1,4,-1
 321 583 l 1,5,-1
 222 583 l 1,6,-1
 168 666 l 1,0,-1
EndSplineSet
EndChar

StartChar: tilde
Encoding: 3 732 215
Width: 333
GlyphClass: 2
Flags: W
HStem: 597 69<169.626 254.748> 642 65<73.1035 159.775>
VStem: 3 65<595 638.001> 267 63<674.77 708>
LayerCount: 2
Fore
SplineSet
3 595 m 1,0,-1
 3 597 l 2,1,2
 3 647 3 647 31 676 c 0,3,4
 59 706 59 706 103 707 c 0,5,6
 133 707 133 707 185 680 c 0,7,8
 214 665 214 665 231 666 c 0,9,10
 247 666 247 666 255 674.5 c 128,-1,11
 263 683 263 683 267 708 c 1,12,-1
 330 708 l 1,13,14
 329 652 329 652 302 624.5 c 128,-1,15
 275 597 275 597 234 597 c 0,16,17
 203 597 203 597 153 624 c 0,18,19
 120 642 120 642 105 642 c 0,20,21
 88 642 88 642 79 630 c 0,22,23
 69 619 69 619 68 597 c 2,24,-1
 68 595 l 1,25,-1
 3 595 l 1,0,-1
EndSplineSet
EndChar

StartChar: macron
Encoding: -1 713 216
Width: 333
GlyphClass: 2
Flags: W
HStem: 599 72<14 319>
VStem: 14 305<599 671>
LayerCount: 2
Fore
SplineSet
14 599 m 1,0,-1
 14 671 l 1,1,-1
 319 671 l 1,2,-1
 319 599 l 1,3,-1
 14 599 l 1,0,-1
EndSplineSet
EndChar

StartChar: breve
Encoding: 8 728 217
Width: 333
GlyphClass: 2
Flags: W
HStem: 588 61<107.815 226.184> 695 20G<22 86.5 247.5 311>
VStem: 251 60<670.059 715>
LayerCount: 2
Fore
SplineSet
251 715 m 1,0,-1
 311 715 l 1,1,2
 304 654 304 654 266.5 621 c 128,-1,3
 229 588 229 588 167 588 c 128,-1,4
 105 588 105 588 67.5 620.5 c 128,-1,5
 30 653 30 653 22 715 c 1,6,-1
 83 715 l 1,7,8
 90 682 90 682 110 665.5 c 128,-1,9
 130 649 130 649 164 649 c 0,10,11
 204 649 204 649 224 665 c 128,-1,12
 244 681 244 681 251 715 c 1,0,-1
EndSplineSet
EndChar

StartChar: dotaccent
Encoding: 10 729 218
Width: 333
GlyphClass: 2
Flags: W
HStem: 583 109<112 221>
VStem: 112 109<583 692>
LayerCount: 2
Fore
SplineSet
112 583 m 1,0,-1
 112 692 l 1,1,-1
 221 692 l 1,2,-1
 221 583 l 1,3,-1
 112 583 l 1,0,-1
EndSplineSet
EndChar

StartChar: ring
Encoding: 6 730 219
Width: 333
GlyphClass: 2
Flags: W
HStem: 562 37<130.5 205.588> 705 36<129.418 205.119>
VStem: 79 37<613.619 692.247> 220 35<614.081 690.125>
LayerCount: 2
Fore
SplineSet
79 653 m 0,0,1
 79 689 79 689 105 715 c 128,-1,2
 131 741 131 741 167 741 c 128,-1,3
 203 741 203 741 229 714.5 c 128,-1,4
 255 688 255 688 255 651 c 0,5,6
 255 613 255 613 229 587.5 c 128,-1,7
 203 562 203 562 167 562 c 0,8,9
 130 562 130 562 104.5 588 c 128,-1,10
 79 614 79 614 79 653 c 0,0,1
116 653 m 0,11,12
 116 630 116 630 131.5 614.5 c 128,-1,13
 147 599 147 599 168 599 c 256,14,15
 189 599 189 599 204.5 614.5 c 128,-1,16
 220 630 220 630 220 652 c 256,17,18
 220 674 220 674 204.5 689.5 c 128,-1,19
 189 705 189 705 168 705 c 128,-1,20
 147 705 147 705 131.5 689.5 c 128,-1,21
 116 674 116 674 116 653 c 0,11,12
EndSplineSet
EndChar

StartChar: cedilla
Encoding: 11 184 220
Width: 333
GlyphClass: 2
Flags: W
HStem: -206 61<57.4545 171.676> -75 86<131 176.326>
VStem: 182 82<-133.999 -87.082>
LayerCount: 2
Fore
SplineSet
105 -75 m 1,0,-1
 131 11 l 1,1,-1
 196 11 l 1,2,-1
 180 -41 l 1,3,4
 222 -46 222 -46 243 -66.5 c 128,-1,5
 264 -87 264 -87 264 -113 c 0,6,7
 264 -150 264 -150 228.5 -178 c 128,-1,8
 193 -206 193 -206 123 -206 c 0,9,10
 83 -206 83 -206 52 -200 c 1,11,-1
 58 -143 l 1,12,13
 89 -145 89 -145 104 -145 c 0,14,15
 150 -145 150 -145 168 -132 c 0,16,17
 182 -122 182 -122 182 -108 c 0,18,19
 182 -99 182 -99 176.5 -92 c 128,-1,20
 171 -85 171 -85 155.5 -80 c 128,-1,21
 140 -75 140 -75 105 -75 c 1,0,-1
EndSplineSet
EndChar

StartChar: hungarumlaut
Encoding: 5 733 221
Width: 333
GlyphClass: 2
Flags: W
HStem: 583 137<202 214 375 386>
LayerCount: 2
Fore
SplineSet
28 583 m 1,0,-1
 87 720 l 1,1,-1
 202 720 l 1,2,-1
 99 583 l 1,3,-1
 28 583 l 1,0,-1
198 583 m 1,4,-1
 260 720 l 1,5,-1
 373 720 l 1,6,-1
 271 583 l 1,7,-1
 198 583 l 1,4,-1
EndSplineSet
EndChar

StartChar: ogonek
Encoding: 12 731 222
Width: 333
GlyphClass: 2
Flags: W
HStem: -210 68<118.705 201.282> -20 20G<88 168>
VStem: 37 73<-132.082 -50.6492>
LayerCount: 2
Fore
SplineSet
168 0 m 1,0,1
 140 -17 140 -17 125 -42 c 128,-1,2
 110 -67 110 -67 110 -93 c 0,3,4
 110 -114 110 -114 121 -128 c 128,-1,5
 132 -142 132 -142 158 -142 c 0,6,7
 169 -142 169 -142 180.5 -139 c 128,-1,8
 192 -136 192 -136 202 -130 c 1,9,-1
 202 -193 l 1,10,11
 166 -210 166 -210 136 -210 c 0,12,13
 111 -210 111 -210 92.5 -203 c 128,-1,14
 74 -196 74 -196 61.5 -183.5 c 128,-1,15
 49 -171 49 -171 43 -155 c 128,-1,16
 37 -139 37 -139 37 -120 c 0,17,18
 37 -89 37 -89 54.5 -57.5 c 128,-1,19
 72 -26 72 -26 104 0 c 1,20,-1
 168 0 l 1,0,1
EndSplineSet
EndChar

StartChar: caron
Encoding: 7 711 223
Width: 333
GlyphClass: 2
Flags: W
HStem: 583 137
VStem: 20 309
LayerCount: 2
Fore
SplineSet
175 637 m 1,0,-1
 229 720 l 1,1,-1
 329 720 l 1,2,-1
 219 583 l 1,3,-1
 125 583 l 1,4,-1
 20 720 l 1,5,-1
 120 720 l 1,6,-1
 175 637 l 1,0,-1
EndSplineSet
EndChar

StartChar: Lslash
Encoding: 138 321 224
Width: 556
GlyphClass: 2
Flags: W
HStem: 0 84<166 521> 696 20G<71 166>
VStem: 71 95<84 276 438 716>
AnchorPoint: "Anchor-20" 0 1025 basechar 0
AnchorPoint: "Anchor-19" 556 1025 basechar 0
AnchorPoint: "Anchor-16" 459 0 basechar 0
AnchorPoint: "Anchor-13" 278 -212 basechar 0
AnchorPoint: "Anchor-12" 556 928 basechar 0
AnchorPoint: "Anchor-8" 290 -59 basechar 0
AnchorPoint: "Anchor-7" 488 760 basechar 0
AnchorPoint: "Anchor-6" 283 760 basechar 0
LayerCount: 2
Fore
SplineSet
71 276 m 1,0,-1
 0 216 l 1,1,-1
 0 297 l 1,2,-1
 71 358 l 1,3,-1
 71 716 l 1,4,-1
 166 716 l 1,5,-1
 166 438 l 1,6,-1
 328 576 l 1,7,-1
 328 494 l 1,8,-1
 166 357 l 1,9,-1
 166 84 l 1,10,-1
 521 84 l 1,11,-1
 521 0 l 1,12,-1
 71 0 l 1,13,-1
 71 276 l 1,0,-1
EndSplineSet
EndChar

StartChar: lslash
Encoding: 170 322 225
Width: 222
GlyphClass: 2
Flags: W
HStem: 0 21G<65 152> 696 20G<65 152>
VStem: 65 87<0 280 432 716>
AnchorPoint: "Anchor-20" 0 1025 basechar 0
AnchorPoint: "Anchor-19" 222 1025 basechar 0
AnchorPoint: "Anchor-16" 103 0 basechar 0
AnchorPoint: "Anchor-13" 111 -212 basechar 0
AnchorPoint: "Anchor-12" 222 928 basechar 0
AnchorPoint: "Anchor-8" 107 -59 basechar 0
AnchorPoint: "Anchor-7" 195 760 basechar 0
AnchorPoint: "Anchor-6" 110 760 basechar 0
LayerCount: 2
Fore
SplineSet
65 280 m 1,0,-1
 1 227 l 1,1,-1
 1 304 l 1,2,-1
 65 357 l 1,3,-1
 65 716 l 1,4,-1
 152 716 l 1,5,-1
 152 432 l 1,6,-1
 218 488 l 1,7,-1
 218 411 l 1,8,-1
 152 355 l 1,9,-1
 152 0 l 1,10,-1
 65 0 l 1,11,-1
 65 280 l 1,0,-1
EndSplineSet
EndChar

StartChar: brokenbar
Encoding: 297 166 230
Width: 259
GlyphClass: 2
Flags: W
HStem: 708 20G<92 168>
VStem: 92 76<-210 176 342 728>
LayerCount: 2
Fore
SplineSet
168 728 m 1,0,-1
 168 342 l 1,1,-1
 92 342 l 1,2,-1
 92 728 l 1,3,-1
 168 728 l 1,0,-1
168 176 m 1,4,-1
 168 -210 l 1,5,-1
 92 -210 l 1,6,-1
 92 176 l 1,7,-1
 168 176 l 1,4,-1
EndSplineSet
EndChar

StartChar: Eth
Encoding: 208 208 231
Width: 722
GlyphClass: 2
Flags: W
HStem: 0 84<172 457.234> 326 64<-1 77 172 369> 631 85<172 460.572>
VStem: 77 95<84 326 390 631> 571 98<215.592 505.303>
AnchorPoint: "Anchor-20" 0 1025 basechar 0
AnchorPoint: "Anchor-19" 722 1025 basechar 0
AnchorPoint: "Anchor-16" 371 0 basechar 0
AnchorPoint: "Anchor-13" 361 -212 basechar 0
AnchorPoint: "Anchor-12" 722 928 basechar 0
AnchorPoint: "Anchor-8" 317 -59 basechar 0
AnchorPoint: "Anchor-7" 586 760 basechar 0
AnchorPoint: "Anchor-6" 317 760 basechar 0
LayerCount: 2
Fore
SplineSet
77 0 m 1,0,-1
 77 326 l 1,1,-1
 -1 326 l 1,2,-1
 -1 390 l 1,3,-1
 77 390 l 1,4,-1
 77 716 l 1,5,-1
 324 716 l 2,6,7
 407 716 407 716 451 706 c 0,8,9
 513 692 513 692 556 654 c 0,10,11
 613 606 613 606 641 532 c 128,-1,12
 669 458 669 458 669 362 c 0,13,14
 669 253 669 253 634.5 174 c 128,-1,15
 600 95 600 95 551.5 59 c 128,-1,16
 503 23 503 23 440 8 c 0,17,18
 405 0 405 0 335 0 c 2,19,-1
 77 0 l 1,0,-1
172 84 m 1,20,-1
 325 84 l 2,21,22
 396 84 396 84 436 97.5 c 128,-1,23
 476 111 476 111 500 134 c 0,24,25
 534 168 534 168 552.5 224.5 c 128,-1,26
 571 281 571 281 571 363 c 0,27,28
 571 447 571 447 552.5 497 c 128,-1,29
 534 547 534 547 503.5 577.5 c 128,-1,30
 473 608 473 608 436 619.5 c 128,-1,31
 399 631 399 631 322 631 c 2,32,-1
 172 631 l 1,33,-1
 172 390 l 1,34,-1
 369 390 l 1,35,-1
 369 326 l 1,36,-1
 172 326 l 1,37,-1
 172 84 l 1,20,-1
EndSplineSet
EndChar

StartChar: eth
Encoding: 240 240 232
Width: 556
GlyphClass: 2
Flags: W
HStem: -12 72<198.739 348.585> 451 68<198.003 345.773> 696 20G<150 273.5 380 430.8>
VStem: 36 89<140.346 368.659> 425 91<145.114 366.327>
AnchorPoint: "Anchor-20" 0 1025 basechar 0
AnchorPoint: "Anchor-19" 556 1025 basechar 0
AnchorPoint: "Anchor-16" 337 0 basechar 0
AnchorPoint: "Anchor-13" 278 -212 basechar 0
AnchorPoint: "Anchor-12" 556 928 basechar 0
AnchorPoint: "Anchor-11" 278 273 basechar 0
AnchorPoint: "Anchor-8" 278 -59 basechar 0
AnchorPoint: "Anchor-7" 518 635 basechar 0
AnchorPoint: "Anchor-6" 283 760 basechar 0
LayerCount: 2
Fore
SplineSet
150 716 m 1,0,-1
 256 716 l 1,1,2
 291 690 291 690 317 666 c 1,3,-1
 422 716 l 1,4,-1
 444 666 l 1,5,-1
 360 625 l 1,6,7
 516 445 516 445 516 254 c 0,8,9
 516 130 516 130 448 59 c 128,-1,10
 380 -12 380 -12 275 -12 c 0,11,12
 150 -12 150 -12 81 83 c 0,13,14
 36 145 36 145 36 252 c 0,15,16
 36 379 36 379 99 449 c 128,-1,17
 162 519 162 519 256 519 c 0,18,19
 284 519 284 519 306 513 c 128,-1,20
 328 507 328 507 360 490 c 1,21,22
 342 526 342 526 329 545.5 c 128,-1,23
 316 565 316 565 291 594 c 1,24,-1
 156 532 l 1,25,-1
 135 582 l 1,26,-1
 251 635 l 1,27,28
 204 679 204 679 150 716 c 1,0,-1
425 258 m 0,29,30
 425 352 425 352 380.5 401.5 c 128,-1,31
 336 451 336 451 272 451 c 0,32,33
 209 451 209 451 167 401.5 c 128,-1,34
 125 352 125 352 125 250 c 0,35,36
 125 155 125 155 168 107.5 c 128,-1,37
 211 60 211 60 275 60 c 0,38,39
 337 60 337 60 381 110 c 128,-1,40
 425 160 425 160 425 258 c 0,29,30
EndSplineSet
EndChar

StartChar: Thorn
Encoding: 222 222 235
Width: 666
GlyphClass: 2
Flags: W
HStem: 0 21G<77 172> 146 84<172 469.652> 486 84<172 476.26> 696 20G<77 172>
VStem: 77 95<0 146 230 486 570 716> 526 98<283.295 435.139>
AnchorPoint: "Anchor-20" 0 1025 basechar 0
AnchorPoint: "Anchor-19" 667 1025 basechar 0
AnchorPoint: "Anchor-16" 117 0 basechar 0
AnchorPoint: "Anchor-13" 333 -212 basechar 0
AnchorPoint: "Anchor-12" 667 928 basechar 0
AnchorPoint: "Anchor-8" 322 -59 basechar 0
AnchorPoint: "Anchor-7" 635 635 basechar 0
AnchorPoint: "Anchor-6" 317 760 basechar 0
LayerCount: 2
Fore
SplineSet
77 0 m 1,0,-1
 77 716 l 1,1,-1
 172 716 l 1,2,-1
 172 570 l 1,3,-1
 347 570 l 2,4,5
 418 570 418 570 457 563 c 0,6,7
 510 554 510 554 545.5 529.5 c 128,-1,8
 581 505 581 505 602.5 460.5 c 128,-1,9
 624 416 624 416 624 363 c 0,10,11
 624 272 624 272 565.5 209 c 128,-1,12
 507 146 507 146 355 146 c 2,13,-1
 172 146 l 1,14,-1
 172 0 l 1,15,-1
 77 0 l 1,0,-1
172 230 m 1,16,-1
 357 230 l 2,17,18
 449 230 449 230 487.5 264 c 128,-1,19
 526 298 526 298 526 360 c 0,20,21
 526 404 526 404 503.5 436.5 c 128,-1,22
 481 469 481 469 444 479 c 0,23,24
 420 486 420 486 355 486 c 2,25,-1
 172 486 l 1,26,-1
 172 230 l 1,16,-1
EndSplineSet
EndChar

StartChar: thorn
Encoding: 254 254 236
Width: 556
GlyphClass: 2
Flags: W
HStem: -199 21G<66 154> -12 73<214.52 354.043> 461 69<221.585 355.707> 696 20G<66 154>
VStem: 66 88<-199 54 464 716> 66 80<137.439 373.142> 426 90<142.235 382.068>
AnchorPoint: "Anchor-20" 0 1025 basechar 0
AnchorPoint: "Anchor-19" 556 1025 basechar 0
AnchorPoint: "Anchor-16" 103 -205 basechar 0
AnchorPoint: "Anchor-13" 278 -212 basechar 0
AnchorPoint: "Anchor-12" 556 928 basechar 0
AnchorPoint: "Anchor-8" 283 -269 basechar 0
AnchorPoint: "Anchor-7" 518 635 basechar 0
AnchorPoint: "Anchor-6" 283 760 basechar 0
LayerCount: 2
Fore
SplineSet
66 -199 m 1,0,-1
 66 716 l 1,1,-1
 154 716 l 1,2,-1
 154 464 l 1,3,4
 190 502 190 502 216 514 c 0,5,6
 251 531 251 531 296 530 c 0,7,8
 362 530 362 530 413 496 c 128,-1,9
 464 462 464 462 490 399.5 c 128,-1,10
 516 337 516 337 516 263 c 0,11,12
 516 183 516 183 487.5 119.5 c 128,-1,13
 459 56 459 56 404.5 22 c 128,-1,14
 350 -12 350 -12 291 -12 c 0,15,16
 250 -12 250 -12 215 4 c 0,17,18
 189 17 189 17 154 54 c 1,19,-1
 154 -199 l 1,20,-1
 66 -199 l 1,0,-1
146 256 m 256,21,22
 146 156 146 156 186.5 108.5 c 128,-1,23
 227 61 227 61 284 61 c 0,24,25
 343 61 343 61 384.5 110.5 c 128,-1,26
 426 160 426 160 426 264 c 0,27,28
 426 363 426 363 385.5 412 c 128,-1,29
 345 461 345 461 288 461 c 0,30,31
 232 461 232 461 189 408.5 c 128,-1,32
 146 356 146 356 146 256 c 256,21,22
EndSplineSet
EndChar

StartChar: minus
Encoding: 298 8722 237
Width: 583
GlyphClass: 2
Flags: W
HStem: 312 82<56 528>
LayerCount: 2
Fore
SplineSet
528 312 m 1,0,-1
 56 312 l 1,1,-1
 56 394 l 1,2,-1
 528 394 l 1,3,-1
 528 312 l 1,0,-1
EndSplineSet
EndChar

StartChar: multiply
Encoding: 299 215 238
Width: 583
GlyphClass: 2
Flags: W
LayerCount: 2
Fore
SplineSet
79 200 m 1,0,-1
 232 354 l 1,1,-1
 79 507 l 1,2,-1
 139 566 l 1,3,-1
 292 413 l 1,4,-1
 445 566 l 1,5,-1
 503 507 l 1,6,-1
 351 354 l 1,7,-1
 504 201 l 1,8,-1
 445 141 l 1,9,-1
 292 294 l 1,10,-1
 138 141 l 1,11,-1
 79 200 l 1,0,-1
EndSplineSet
EndChar

StartChar: onesuperior
Encoding: 300 185 239
Width: 333
GlyphClass: 2
Flags: W
HStem: 705 20G<168.5 232>
VStem: 162 70<358 628>
LayerCount: 2
Fore
SplineSet
162 358 m 1,0,-1
 162 628 l 1,1,2
 112 588 112 588 52 573 c 1,3,-1
 52 633 l 1,4,5
 82 643 82 643 119.5 669 c 128,-1,6
 157 695 157 695 180 725 c 1,7,-1
 232 725 l 1,8,-1
 232 358 l 1,9,-1
 162 358 l 1,0,-1
EndSplineSet
EndChar

StartChar: twosuperior
Encoding: 301 178 240
Width: 333
GlyphClass: 2
Flags: W
HStem: 358 59<128 316> 667 58<117.342 222.994>
VStem: 238 76<568.57 652.843>
LayerCount: 2
Fore
SplineSet
12 358 m 1,0,1
 15 386 15 386 35 414 c 0,2,3
 66 456 66 456 136.5 507 c 128,-1,4
 207 558 207 558 220 572 c 0,5,6
 238 592 238 592 238 613 c 0,7,8
 238 636 238 636 221 651.5 c 128,-1,9
 204 667 204 667 170 667 c 0,10,11
 138 667 138 667 122 655.5 c 128,-1,12
 106 644 106 644 96 611 c 1,13,-1
 22 619 l 1,14,15
 36 673 36 673 71 699 c 128,-1,16
 106 725 106 725 172 725 c 0,17,18
 246 725 246 725 280 696 c 128,-1,19
 314 667 314 667 314 625 c 0,20,21
 314 584 314 584 286 548 c 0,22,23
 264 521 264 521 186 464 c 1,24,25
 145 434 145 434 128 417 c 1,26,-1
 316 417 l 1,27,-1
 316 358 l 1,28,-1
 12 358 l 1,0,1
EndSplineSet
EndChar

StartChar: threesuperior
Encoding: 302 179 241
Width: 333
GlyphClass: 2
Flags: W
HStem: 349 57<105.312 219.489> 525 52<146 203.433> 670 55<115.429 210.566>
VStem: 222 76<589.894 659.335> 239 76<425.163 511.386>
LayerCount: 2
Fore
SplineSet
16 454 m 1,0,-1
 87 461 l 1,1,2
 97 432 97 432 113 421 c 0,3,4
 134 406 134 406 163 406 c 0,5,6
 198 406 198 406 218.5 425 c 128,-1,7
 239 444 239 444 239 471 c 0,8,9
 239 495 239 495 221.5 510 c 128,-1,10
 204 525 204 525 162 525 c 0,11,12
 156 525 156 525 146 524 c 0,13,14
 139 524 139 524 135 523 c 1,15,-1
 146 577 l 1,16,-1
 148 577 l 2,17,18
 186 577 186 577 204 591 c 0,19,20
 222 606 222 606 222 627 c 0,21,22
 222 645 222 645 207 657.5 c 128,-1,23
 192 670 192 670 164 670 c 0,24,25
 137 670 137 670 121 659.5 c 128,-1,26
 105 649 105 649 94 621 c 1,27,-1
 24 632 l 1,28,29
 44 684 44 684 74.5 704.5 c 128,-1,30
 105 725 105 725 164 725 c 0,31,32
 234 725 234 725 266 698.5 c 128,-1,33
 298 672 298 672 298 633 c 0,34,35
 298 606 298 606 281 585 c 128,-1,36
 264 564 264 564 231 555 c 1,37,38
 274 544 274 544 294.5 519.5 c 128,-1,39
 315 495 315 495 315 462 c 0,40,41
 315 417 315 417 276.5 383 c 128,-1,42
 238 349 238 349 167 349 c 0,43,44
 99 349 99 349 62.5 376.5 c 128,-1,45
 26 404 26 404 16 454 c 1,0,-1
EndSplineSet
EndChar

StartChar: onehalf
Encoding: 303 189 242
Width: 833
GlyphClass: 2
Flags: W
HStem: -15 59<628 816> 293 59<616.884 723.891> 708 20G<168.5 232 634.767 726>
VStem: 162 70<358 628> 738 76<195.467 279.601>
LayerCount: 2
Fore
SplineSet
111 -28 m 1,0,-1
 649 728 l 1,1,-1
 726 728 l 1,2,-1
 188 -28 l 1,3,-1
 111 -28 l 1,0,-1
162 358 m 1,4,-1
 162 628 l 1,5,6
 112 588 112 588 52 573 c 1,7,-1
 52 633 l 1,8,9
 82 643 82 643 119.5 669 c 128,-1,10
 157 695 157 695 180 725 c 1,11,-1
 232 725 l 1,12,-1
 232 358 l 1,13,-1
 162 358 l 1,4,-1
512 -15 m 1,14,15
 515 12 515 12 536 40 c 1,16,17
 566 82 566 82 636.5 133 c 128,-1,18
 707 184 707 184 720 199 c 0,19,20
 738 219 738 219 738 240 c 0,21,22
 738 263 738 263 721 278 c 128,-1,23
 704 293 704 293 670 293 c 0,24,25
 638 293 638 293 622 282 c 128,-1,26
 606 271 606 271 596 238 c 1,27,-1
 522 246 l 1,28,29
 536 301 536 301 571.5 326.5 c 128,-1,30
 607 352 607 352 672 352 c 0,31,32
 746 352 746 352 780 323 c 128,-1,33
 814 294 814 294 814 252 c 0,34,35
 814 211 814 211 786 175 c 0,36,37
 764 148 764 148 686 91 c 0,38,39
 645 61 645 61 628 44 c 1,40,-1
 816 44 l 1,41,-1
 816 -15 l 1,42,-1
 512 -15 l 1,14,15
EndSplineSet
EndChar

StartChar: onequarter
Encoding: 304 188 243
Width: 833
GlyphClass: 2
Flags: W
HStem: 60 53<586 698 769 819> 708 20G<168.5 232 646.767 737>
VStem: 162 70<358 628> 698 71<-15 60 113 241>
LayerCount: 2
Fore
SplineSet
123 -28 m 1,0,-1
 661 728 l 1,1,-1
 737 728 l 1,2,-1
 200 -28 l 1,3,-1
 123 -28 l 1,0,-1
162 358 m 1,4,-1
 162 628 l 1,5,6
 112 588 112 588 52 573 c 1,7,-1
 52 633 l 1,8,9
 82 643 82 643 119.5 669 c 128,-1,10
 157 695 157 695 180 725 c 1,11,-1
 232 725 l 1,12,-1
 232 358 l 1,13,-1
 162 358 l 1,4,-1
698 -15 m 1,14,-1
 698 60 l 1,15,-1
 511 60 l 1,16,-1
 511 120 l 1,17,-1
 709 352 l 1,18,-1
 769 352 l 1,19,-1
 769 113 l 1,20,-1
 819 113 l 1,21,-1
 819 60 l 1,22,-1
 769 60 l 1,23,-1
 769 -15 l 1,24,-1
 698 -15 l 1,14,-1
698 113 m 1,25,-1
 698 241 l 1,26,-1
 586 113 l 1,27,-1
 698 113 l 1,25,-1
EndSplineSet
EndChar

StartChar: threequarters
Encoding: 305 190 244
Width: 833
GlyphClass: 2
Flags: W
HStem: 60 53<586 698 769 819> 349 57<105.312 219.489> 525 52<146 203.433> 670 55<115.429 210.566>
VStem: 222 76<589.894 659.335> 239 76<425.163 511.386> 698 71<-15 60 113 241>
LayerCount: 2
Fore
SplineSet
123 -28 m 1,0,-1
 661 728 l 1,1,-1
 737 728 l 1,2,-1
 200 -28 l 1,3,-1
 123 -28 l 1,0,-1
16 454 m 1,4,-1
 87 461 l 1,5,6
 97 432 97 432 113 421 c 0,7,8
 134 406 134 406 163 406 c 0,9,10
 198 406 198 406 218.5 425 c 128,-1,11
 239 444 239 444 239 471 c 0,12,13
 239 495 239 495 221.5 510 c 128,-1,14
 204 525 204 525 163 525 c 1,15,16
 139 524 139 524 135 523 c 1,17,-1
 146 577 l 1,18,-1
 148 577 l 2,19,20
 186 577 186 577 204 591 c 0,21,22
 222 606 222 606 222 627 c 0,23,24
 222 645 222 645 207 657.5 c 128,-1,25
 192 670 192 670 164 670 c 0,26,27
 137 670 137 670 121 659.5 c 128,-1,28
 105 649 105 649 94 621 c 1,29,-1
 24 632 l 1,30,31
 44 684 44 684 74.5 704.5 c 128,-1,32
 105 725 105 725 164 725 c 0,33,34
 234 725 234 725 266 698.5 c 128,-1,35
 298 672 298 672 298 633 c 0,36,37
 298 606 298 606 281 585 c 128,-1,38
 264 564 264 564 231 555 c 1,39,40
 274 544 274 544 294.5 519.5 c 128,-1,41
 315 495 315 495 315 462 c 0,42,43
 315 417 315 417 276.5 383 c 128,-1,44
 238 349 238 349 167 349 c 0,45,46
 99 349 99 349 62.5 376.5 c 128,-1,47
 26 404 26 404 16 454 c 1,4,-1
698 -15 m 1,48,-1
 698 60 l 1,49,-1
 511 60 l 1,50,-1
 511 120 l 1,51,-1
 708 352 l 1,52,-1
 769 352 l 1,53,-1
 769 113 l 1,54,-1
 819 113 l 1,55,-1
 819 60 l 1,56,-1
 769 60 l 1,57,-1
 769 -15 l 1,58,-1
 698 -15 l 1,48,-1
698 113 m 1,59,-1
 698 241 l 1,60,-1
 586 113 l 1,61,-1
 698 113 l 1,59,-1
EndSplineSet
EndChar

StartChar: franc
Encoding: 306 8355 245
Width: 556
GlyphClass: 2
Flags: W
HStem: 0 21G<82 177> 120 73<0 82 177 331> 325 85<177 454> 631 85<177 506>
VStem: 82 95<0 120 193 325 410 631>
LayerCount: 2
Fore
SplineSet
82 120 m 1,0,-1
 0 120 l 1,1,-1
 0 193 l 1,2,-1
 82 193 l 1,3,-1
 82 716 l 1,4,-1
 506 716 l 1,5,-1
 506 631 l 1,6,-1
 177 631 l 1,7,-1
 177 410 l 1,8,-1
 454 410 l 1,9,-1
 454 325 l 1,10,-1
 177 325 l 1,11,-1
 177 193 l 1,12,-1
 331 193 l 1,13,-1
 331 120 l 1,14,-1
 177 120 l 1,15,-1
 177 0 l 1,16,-1
 82 0 l 1,17,-1
 82 120 l 1,0,-1
EndSplineSet
EndChar

StartChar: dbar
Encoding: 158 273 255
Width: 556
GlyphClass: 2
Flags: W
HStem: -12 73<196.351 336.242> 0 21G<402 484> 458 72<191.936 332.452> 595 65<228 396 484 555> 696 20G<396 484>
VStem: 34 91<141.57 382.274> 396 88<0 65 459 595 660 716> 404 80<136.426 374.704>
AnchorPoint: "Anchor-20" 0 1025 basechar 0
AnchorPoint: "Anchor-19" 556 1025 basechar 0
AnchorPoint: "Anchor-16" 444 0 basechar 0
AnchorPoint: "Anchor-13" 278 -212 basechar 0
AnchorPoint: "Anchor-12" 556 928 basechar 0
AnchorPoint: "Anchor-8" 281 -59 basechar 0
AnchorPoint: "Anchor-7" 586 760 basechar 0
AnchorPoint: "Anchor-6" 286 760 basechar 0
LayerCount: 2
Fore
SplineSet
396 595 m 1,0,-1
 228 595 l 1,1,-1
 228 660 l 1,2,-1
 396 660 l 1,3,-1
 396 716 l 1,4,-1
 484 716 l 1,5,-1
 484 660 l 1,6,-1
 555 660 l 1,7,-1
 555 595 l 1,8,-1
 484 595 l 1,9,-1
 484 0 l 1,10,-1
 402 0 l 1,11,-1
 402 65 l 1,12,13
 353 -12 353 -12 257 -12 c 0,14,15
 195 -12 195 -12 143 22.5 c 128,-1,16
 91 57 91 57 62.5 118 c 128,-1,17
 34 179 34 179 34 259 c 0,18,19
 34 337 34 337 60 400 c 128,-1,20
 86 463 86 463 137.5 496.5 c 128,-1,21
 189 530 189 530 253 530 c 0,22,23
 300 530 300 530 337 510.5 c 128,-1,24
 374 491 374 491 396 459 c 1,25,-1
 396 595 l 1,0,-1
125 259 m 0,26,27
 125 159 125 159 166.5 110 c 128,-1,28
 208 61 208 61 266 61 c 128,-1,29
 324 61 324 61 364 108 c 128,-1,30
 404 155 404 155 404 251 c 0,31,32
 404 357 404 357 363 407.5 c 128,-1,33
 322 458 322 458 262 458 c 0,34,35
 203 458 203 458 164 410 c 128,-1,36
 125 362 125 362 125 259 c 0,26,27
EndSplineSet
EndChar

StartChar: macron
Encoding: 9 175 256
Width: 552
GlyphClass: 2
Flags: W
HStem: 765 63<-15 567>
LayerCount: 2
Fore
SplineSet
-15 765 m 1,0,-1
 -15 828 l 1,1,-1
 567 828 l 1,2,-1
 567 765 l 1,3,-1
 -15 765 l 1,0,-1
EndSplineSet
EndChar

StartChar: middot
Encoding: 307 183 257
Width: 333
GlyphClass: 2
Flags: W
HStem: 311 100<116 216>
VStem: 116 100<311 411>
LayerCount: 2
Fore
SplineSet
116 311 m 1,0,-1
 116 411 l 1,1,-1
 216 411 l 1,2,-1
 216 311 l 1,3,-1
 116 311 l 1,0,-1
EndSplineSet
EndChar

StartChar: dcaron
Encoding: 164 271 263
Width: 614
GlyphClass: 2
Flags: W
HStem: -12 73<197.184 335.581> 0 21G<403 484> 458 72<192.374 332.732> 625 91<526 571>
VStem: 35 90<141.57 382.274> 397 87<0 65 123.884 388.501 -nan 716> 526 90<625 716> 571 45<552.393 625>
AnchorPoint: "Anchor-20" 0 1025 basechar 0
AnchorPoint: "Anchor-19" 615 1025 basechar 0
AnchorPoint: "Anchor-16" 439 0 basechar 0
AnchorPoint: "Anchor-13" 307 -212 basechar 0
AnchorPoint: "Anchor-12" 615 928 basechar 0
AnchorPoint: "Anchor-8" 305 -59 basechar 0
AnchorPoint: "Anchor-7" 635 760 basechar 0
AnchorPoint: "Anchor-6" 281 742 basechar 0
LayerCount: 2
Fore
SplineSet
526 625 m 1,0,-1
 526 716 l 1,1,-1
 616 716 l 1,2,-1
 616 625 l 2,3,4
 616 576 616 576 598.5 545.5 c 128,-1,5
 581 515 581 515 543 499 c 1,6,-1
 521 532 l 1,7,8
 546 543 546 543 558 564 c 128,-1,9
 570 585 570 585 571 625 c 1,10,-1
 526 625 l 1,0,-1
403 0 m 1,11,-1
 403 65 l 1,12,13
 354 -12 354 -12 258 -12 c 0,14,15
 196 -12 196 -12 144 22.5 c 128,-1,16
 92 57 92 57 63.5 118 c 128,-1,17
 35 179 35 179 35 259 c 0,18,19
 35 337 35 337 60.5 400 c 128,-1,20
 86 463 86 463 138 496.5 c 128,-1,21
 190 530 190 530 254 530 c 0,22,23
 301 530 301 530 337.5 510.5 c 128,-1,24
 374 491 374 491 397 459 c 1,25,-1
 397 716 l 1,26,-1
 484 716 l 1,27,-1
 484 0 l 1,28,-1
 403 0 l 1,11,-1
125 259 m 0,29,30
 125 159 125 159 167 110 c 128,-1,31
 209 61 209 61 266 61 c 0,32,33
 324 61 324 61 364 108 c 128,-1,34
 404 155 404 155 404 251 c 0,35,36
 404 357 404 357 363 407.5 c 128,-1,37
 322 458 322 458 262 458 c 0,38,39
 203 458 203 458 164 410 c 128,-1,40
 125 362 125 362 125 259 c 0,29,30
EndSplineSet
EndChar

StartChar: Dcroat
Encoding: 308 272 264
Width: 722
GlyphClass: 2
Flags: W
HStem: 0 84<172 457.234> 326 64<-1 77 172 369> 631 85<172 460.572>
VStem: 77 95<84 326 390 631> 571 98<215.592 505.303>
AnchorPoint: "Anchor-20" 0 1025 basechar 0
AnchorPoint: "Anchor-19" 722 1025 basechar 0
AnchorPoint: "Anchor-16" 371 0 basechar 0
AnchorPoint: "Anchor-13" 361 -212 basechar 0
AnchorPoint: "Anchor-12" 722 928 basechar 0
AnchorPoint: "Anchor-8" 342 -59 basechar 0
AnchorPoint: "Anchor-7" 635 760 basechar 0
AnchorPoint: "Anchor-6" 317 760 basechar 0
LayerCount: 2
Fore
SplineSet
77 0 m 1,0,-1
 77 326 l 1,1,-1
 -1 326 l 1,2,-1
 -1 390 l 1,3,-1
 77 390 l 1,4,-1
 77 716 l 1,5,-1
 324 716 l 2,6,7
 407 716 407 716 451 706 c 0,8,9
 513 692 513 692 556 654 c 0,10,11
 613 606 613 606 641 532 c 128,-1,12
 669 458 669 458 669 362 c 0,13,14
 669 253 669 253 634.5 174 c 128,-1,15
 600 95 600 95 551.5 59 c 128,-1,16
 503 23 503 23 440 8 c 0,17,18
 405 0 405 0 335 0 c 2,19,-1
 77 0 l 1,0,-1
172 84 m 1,20,-1
 325 84 l 2,21,22
 396 84 396 84 436 97.5 c 128,-1,23
 476 111 476 111 500 134 c 0,24,25
 534 168 534 168 552.5 224.5 c 128,-1,26
 571 281 571 281 571 363 c 0,27,28
 571 447 571 447 552.5 497 c 128,-1,29
 534 547 534 547 503.5 577.5 c 128,-1,30
 473 608 473 608 436 619.5 c 128,-1,31
 399 631 399 631 322 631 c 2,32,-1
 172 631 l 1,33,-1
 172 390 l 1,34,-1
 369 390 l 1,35,-1
 369 326 l 1,36,-1
 172 326 l 1,37,-1
 172 84 l 1,20,-1
EndSplineSet
EndChar

StartChar: Lcaron
Encoding: 137 317 271
Width: 556
GlyphClass: 2
Flags: W
HStem: 0 84<168 521> 616 100<348 397>
VStem: 73 95<84 716> 348 100<616 716> 397 51<535.828 616>
AnchorPoint: "Anchor-20" 0 1025 basechar 0
AnchorPoint: "Anchor-19" 556 1025 basechar 0
AnchorPoint: "Anchor-16" 459 0 basechar 0
AnchorPoint: "Anchor-13" 278 -212 basechar 0
AnchorPoint: "Anchor-12" 556 928 basechar 0
AnchorPoint: "Anchor-8" 290 -59 basechar 0
AnchorPoint: "Anchor-7" 464 760 basechar 0
AnchorPoint: "Anchor-6" 293 760 basechar 0
LayerCount: 2
Fore
SplineSet
348 616 m 1,0,-1
 348 716 l 1,1,-1
 448 716 l 1,2,-1
 448 616 l 2,3,4
 448 561 448 561 428.5 527 c 128,-1,5
 409 493 409 493 366 474 c 1,6,-1
 342 512 l 1,7,8
 370 524 370 524 383 547.5 c 128,-1,9
 396 571 396 571 397 616 c 1,10,-1
 348 616 l 1,0,-1
73 0 m 1,11,-1
 73 716 l 1,12,-1
 168 716 l 1,13,-1
 168 84 l 1,14,-1
 521 84 l 1,15,-1
 521 0 l 1,16,-1
 73 0 l 1,11,-1
EndSplineSet
EndChar

StartChar: lcaron
Encoding: 169 318 272
Width: 291
GlyphClass: 2
Flags: W
HStem: 0 21G<66 154> 625 91<201 246>
VStem: 66 88<0 716> 201 90<625 716> 246 45<552.393 625>
AnchorPoint: "Anchor-20" 0 1025 basechar 0
AnchorPoint: "Anchor-19" 292 1025 basechar 0
AnchorPoint: "Anchor-16" 103 0 basechar 0
AnchorPoint: "Anchor-13" 146 -212 basechar 0
AnchorPoint: "Anchor-12" 292 928 basechar 0
AnchorPoint: "Anchor-8" 110 -59 basechar 0
AnchorPoint: "Anchor-7" 322 760 basechar 0
AnchorPoint: "Anchor-6" 115 760 basechar 0
LayerCount: 2
Fore
SplineSet
201 625 m 1,0,-1
 201 716 l 1,1,-1
 291 716 l 1,2,-1
 291 625 l 2,3,4
 291 576 291 576 273.5 545.5 c 128,-1,5
 256 515 256 515 218 499 c 1,6,-1
 196 532 l 1,7,8
 221 543 221 543 233 564 c 128,-1,9
 245 585 245 585 246 625 c 1,10,-1
 201 625 l 1,0,-1
66 0 m 1,11,-1
 66 716 l 1,12,-1
 154 716 l 1,13,-1
 154 0 l 1,14,-1
 66 0 l 1,11,-1
EndSplineSet
EndChar

StartChar: tcaron
Encoding: 311 357 290
Width: 375
GlyphClass: 2
Flags: W
HStem: -7 82<174.527 258.564> 450 69<17 82 169 257> 625 91<284 328>
VStem: 82 87<98.8348 450 519 647> 284 90<625 716> 328 46<552.393 625>
AnchorPoint: "Anchor-20" 0 1025 basechar 0
AnchorPoint: "Anchor-19" 375 1025 basechar 0
AnchorPoint: "Anchor-16" 171 0 basechar 0
AnchorPoint: "Anchor-13" 188 -212 basechar 0
AnchorPoint: "Anchor-12" 375 928 basechar 0
AnchorPoint: "Anchor-8" 195 -59 basechar 0
AnchorPoint: "Anchor-7" 388 744 basechar 0
AnchorPoint: "Anchor-6" 125 760 basechar 0
LayerCount: 2
Fore
SplineSet
284 625 m 1,0,-1
 284 716 l 1,1,-1
 374 716 l 1,2,-1
 374 625 l 2,3,4
 374 576 374 576 356 545.5 c 128,-1,5
 338 515 338 515 300 499 c 1,6,-1
 278 532 l 1,7,8
 303 543 303 543 315 564 c 128,-1,9
 327 585 327 585 328 625 c 1,10,-1
 284 625 l 1,0,-1
257 79 m 1,11,-1
 270 1 l 1,12,13
 233 -7 233 -7 204 -7 c 0,14,15
 156 -7 156 -7 129.5 8 c 128,-1,16
 103 23 103 23 92.5 48 c 128,-1,17
 82 73 82 73 82 152 c 2,18,-1
 82 450 l 1,19,-1
 17 450 l 1,20,-1
 17 519 l 1,21,-1
 82 519 l 1,22,-1
 82 647 l 1,23,-1
 169 700 l 1,24,-1
 169 519 l 1,25,-1
 257 519 l 1,26,-1
 257 450 l 1,27,-1
 169 450 l 1,28,-1
 169 147 l 2,29,30
 169 109 169 109 173.5 98.5 c 128,-1,31
 178 88 178 88 188.5 81.5 c 128,-1,32
 199 75 199 75 219 75 c 0,33,34
 233 76 233 76 257 79 c 1,11,-1
EndSplineSet
EndChar

StartChar: Gamma
Encoding: 312 915 299
Width: 550
GlyphClass: 2
Flags: W
HStem: 0 21G<80 175> 631 85<175 527>
VStem: 80 95<0 631>
LayerCount: 2
Fore
SplineSet
80 716 m 1,0,-1
 527 716 l 1,1,-1
 527 631 l 1,2,-1
 175 631 l 1,3,-1
 175 0 l 1,4,-1
 80 0 l 1,5,-1
 80 716 l 1,0,-1
EndSplineSet
EndChar

StartChar: Theta
Encoding: 313 920 300
Width: 777
GlyphClass: 2
Flags: W
HStem: -12 81<283.893 491.54> 316 84<248 531> 647 82<287.098 492.06>
VStem: 47 98<221.878 493.802> 634 97<224.19 491.381>
LayerCount: 2
Fore
SplineSet
47 349 m 0,0,1
 47 528 47 528 143 628.5 c 128,-1,2
 239 729 239 729 390 729 c 128,-1,3
 541 729 541 729 636 626.5 c 128,-1,4
 731 524 731 524 731 357 c 0,5,6
 731 191 731 191 635 89.5 c 128,-1,7
 539 -12 539 -12 389 -12 c 0,8,9
 281 -12 281 -12 200 42 c 128,-1,10
 119 96 119 96 83 181 c 128,-1,11
 47 266 47 266 47 349 c 0,0,1
145 347 m 0,12,13
 145 224 145 224 211 146.5 c 128,-1,14
 277 69 277 69 389 69 c 0,15,16
 498 69 498 69 566 146 c 128,-1,17
 634 223 634 223 634 357 c 0,18,19
 634 494 634 494 565.5 570.5 c 128,-1,20
 497 647 497 647 390 647 c 0,21,22
 285 647 285 647 215 575 c 128,-1,23
 145 503 145 503 145 347 c 0,12,13
248 316 m 1,24,-1
 248 400 l 1,25,-1
 531 400 l 1,26,-1
 531 316 l 1,27,-1
 248 316 l 1,24,-1
EndSplineSet
EndChar

StartChar: Phi
Encoding: 314 934 301
Width: 797
GlyphClass: 2
Flags: W
HStem: 79 80<250.465 352 446 548.978> 567 82<248.103 352 446 555.216>
VStem: 42 98<260.766 465.852> 352 94<-26 79 159 567 649 737> 660 96<262.69 463.069>
LayerCount: 2
Fore
SplineSet
352 737 m 1,0,-1
 446 737 l 1,1,-1
 446 649 l 1,2,3
 596 640 596 640 676 561 c 128,-1,4
 756 482 756 482 756 366 c 0,5,6
 756 235 756 235 669.5 159 c 128,-1,7
 583 83 583 83 446 79 c 1,8,-1
 446 -26 l 1,9,-1
 352 -26 l 1,10,-1
 352 79 l 1,11,12
 211 84 211 84 126.5 162 c 128,-1,13
 42 240 42 240 42 361 c 0,14,15
 42 441 42 441 78.5 505.5 c 128,-1,16
 115 570 115 570 182 607 c 128,-1,17
 249 644 249 644 352 649 c 1,18,-1
 352 737 l 1,0,-1
352 567 m 1,19,20
 251 564 251 564 195.5 511.5 c 128,-1,21
 140 459 140 459 140 362 c 0,22,23
 140 263 140 263 200.5 212 c 128,-1,24
 261 161 261 161 352 159 c 1,25,-1
 352 567 l 1,19,20
446 159 m 1,26,27
 546 162 546 162 603 215.5 c 128,-1,28
 660 269 660 269 660 363 c 0,29,30
 660 453 660 453 605.5 510 c 128,-1,31
 551 567 551 567 446 567 c 1,32,-1
 446 159 l 1,26,27
EndSplineSet
EndChar

StartChar: alpha
Encoding: 315 945 302
Width: 578
GlyphClass: 2
Flags: W
HStem: -12 73<196.027 332.753> 0 21G<442.5 541> 458 72<197.443 338.551> 499 20G<440 541>
VStem: 35 97<137.933 380.587>
LayerCount: 2
Fore
SplineSet
451 519 m 1,0,-1
 541 519 l 1,1,2
 507 412 507 412 478 259 c 1,3,4
 512 71 512 71 541 0 c 1,5,-1
 453 0 l 1,6,7
 432 49 432 49 421 95 c 1,8,9
 380 -11 380 -11 252 -12 c 0,10,11
 154 -12 154 -12 94.5 61.5 c 128,-1,12
 35 135 35 135 35 260 c 0,13,14
 35 389 35 389 95 459.5 c 128,-1,15
 155 530 155 530 253 530 c 0,16,17
 314 530 314 530 353 505.5 c 128,-1,18
 392 481 392 481 425 431 c 1,19,20
 429 448 429 448 451 519 c 1,0,-1
268 458 m 0,21,22
 205 458 205 458 168.5 407 c 128,-1,23
 132 356 132 356 132 260 c 0,24,25
 132 167 132 167 166.5 114 c 128,-1,26
 201 61 201 61 263 61 c 0,27,28
 324 61 324 61 364.5 113.5 c 128,-1,29
 405 166 405 166 405 264 c 0,30,31
 405 360 405 360 367 409 c 128,-1,32
 329 458 329 458 268 458 c 0,21,22
EndSplineSet
EndChar

StartChar: delta
Encoding: 316 948 303
Width: 556
GlyphClass: 2
Flags: W
HStem: -12 73<203.293 355.273> 444 68<201.36 252> 645 71<203 476>
VStem: 35 90<149.05 355.97> 431 90<141.081 360.326>
LayerCount: 2
Fore
SplineSet
85 716 m 1,0,-1
 476 716 l 1,1,-1
 476 645 l 1,2,-1
 203 645 l 1,3,4
 252 595 252 595 355 523 c 0,5,6
 448 459 448 459 484.5 403.5 c 128,-1,7
 521 348 521 348 521 254 c 0,8,9
 521 128 521 128 453 58 c 128,-1,10
 385 -12 385 -12 276 -12 c 0,11,12
 156 -12 156 -12 95.5 66.5 c 128,-1,13
 35 145 35 145 35 252 c 0,14,15
 35 377 35 377 99 442.5 c 128,-1,16
 163 508 163 508 252 512 c 1,17,18
 207 544 207 544 85 652 c 1,19,-1
 85 716 l 1,0,-1
125 251 m 0,20,21
 125 168 125 168 168.5 114.5 c 128,-1,22
 212 61 212 61 280 61 c 0,23,24
 340 61 340 61 385.5 106.5 c 128,-1,25
 431 152 431 152 431 251 c 0,26,27
 431 343 431 343 387.5 393.5 c 128,-1,28
 344 444 344 444 278 444 c 0,29,30
 205 444 205 444 165 387.5 c 128,-1,31
 125 331 125 331 125 251 c 0,20,21
EndSplineSet
EndChar

StartChar: epsilon
Encoding: 317 949 304
Width: 445
GlyphClass: 2
Flags: W
HStem: -12 73<169.317 307.62> 230 73<177.637 287> 455 75<168.295 303.42>
VStem: 48 91<89.8866 197.248> 62 85<332.449 432.326>
LayerCount: 2
Fore
SplineSet
405 460 m 1,0,-1
 342 409 l 1,1,2
 282 454 282 454 229 455 c 0,3,4
 186 455 186 455 166.5 432 c 128,-1,5
 147 409 147 409 147 382 c 0,6,7
 147 348 147 348 176.5 325.5 c 128,-1,8
 206 303 206 303 262 303 c 0,9,10
 269 303 269 303 287 303 c 1,11,-1
 287 229 l 1,12,13
 271 229 271 229 263 230 c 0,14,15
 193 230 193 230 166 203 c 128,-1,16
 139 176 139 176 139 143 c 0,17,18
 139 108 139 108 166.5 84.5 c 128,-1,19
 194 61 194 61 231 61 c 0,20,21
 300 61 300 61 360 125 c 1,22,-1
 423 71 l 1,23,24
 345 -12 345 -12 229 -12 c 0,25,26
 138 -12 138 -12 93 34.5 c 128,-1,27
 48 81 48 81 48 143 c 0,28,29
 48 231 48 231 134 268 c 1,30,31
 62 309 62 309 62 380 c 0,32,33
 62 438 62 438 104.5 484 c 128,-1,34
 147 530 147 530 235 530 c 0,35,36
 336 530 336 530 405 460 c 1,0,-1
EndSplineSet
EndChar

StartChar: sigma
Encoding: 318 963 305
Width: 617
GlyphClass: 2
Flags: W
HStem: -12 73<198.184 353.413> 447 72<454 595> 458 72<198.79 355.903>
VStem: 33 91<143.407 373.329> 430 89<146.796 370.453>
LayerCount: 2
Fore
SplineSet
595 519 m 1,0,-1
 595 447 l 1,1,-1
 454 447 l 1,2,3
 519 386 519 386 519 259 c 0,4,5
 519 120 519 120 448 54 c 128,-1,6
 377 -12 377 -12 275 -12 c 0,7,8
 170 -12 170 -12 101.5 56.5 c 128,-1,9
 33 125 33 125 33 259 c 0,10,11
 33 397 33 397 104 463.5 c 128,-1,12
 175 530 175 530 275 530 c 0,13,14
 312 530 312 530 358 519 c 1,15,-1
 595 519 l 1,0,-1
274 458 m 0,16,17
 210 458 210 458 167 408 c 128,-1,18
 124 358 124 358 124 259 c 128,-1,19
 124 160 124 160 166 110.5 c 128,-1,20
 208 61 208 61 275 61 c 0,21,22
 346 61 346 61 388 113 c 128,-1,23
 430 165 430 165 430 259 c 0,24,25
 430 345 430 345 391.5 401.5 c 128,-1,26
 353 458 353 458 274 458 c 0,16,17
EndSplineSet
EndChar

StartChar: tau
Encoding: 319 964 306
Width: 395
GlyphClass: 2
Flags: W
HStem: 0 21G<159 247> 447 72<22 159 247 372>
VStem: 159 88<0 447>
LayerCount: 2
Fore
SplineSet
247 447 m 1,0,-1
 247 0 l 1,1,-1
 159 0 l 1,2,-1
 159 447 l 1,3,-1
 22 447 l 1,4,-1
 22 519 l 1,5,-1
 372 519 l 1,6,-1
 372 447 l 1,7,-1
 247 447 l 1,0,-1
EndSplineSet
EndChar

StartChar: phi
Encoding: 320 966 307
Width: 648
GlyphClass: 2
Flags: W
HStem: -199 21G<284 371> -12 80<371 426.839> 458 72<382.235 471.595>
VStem: 35 90<174.086 382.882> 284 87<-199 -12 68 439.427> 521 93<175.833 394.019>
LayerCount: 2
Fore
SplineSet
244 529 m 1,0,-1
 227 453 l 1,1,2
 126 419 126 419 125 276 c 0,3,4
 125 200 125 200 165 141 c 128,-1,5
 205 82 205 82 284 64 c 1,6,-1
 284 387 l 2,7,8
 284 439 284 439 291.5 467 c 128,-1,9
 299 495 299 495 325 512.5 c 128,-1,10
 351 530 351 530 396 530 c 0,11,12
 466 530 466 530 509.5 502 c 128,-1,13
 553 474 553 474 583.5 413 c 128,-1,14
 614 352 614 352 614 281 c 0,15,16
 614 222 614 222 590 163.5 c 128,-1,17
 566 105 566 105 512 55.5 c 128,-1,18
 458 6 458 6 371 -12 c 1,19,-1
 371 -199 l 1,20,-1
 284 -199 l 1,21,-1
 284 -12 l 1,22,23
 193 -12 193 -12 114 67.5 c 128,-1,24
 35 147 35 147 35 272 c 0,25,26
 35 388 35 388 99 459 c 0,27,28
 161 528 161 528 239 529 c 2,29,-1
 244 529 l 1,0,-1
371 68 m 1,30,31
 433 79 433 79 477 137.5 c 128,-1,32
 521 196 521 196 521 290 c 0,33,34
 521 377 521 377 489 417.5 c 128,-1,35
 457 458 457 458 421 458 c 0,36,37
 395 458 395 458 383 440 c 128,-1,38
 371 422 371 422 371 361 c 2,39,-1
 371 68 l 1,30,31
EndSplineSet
EndChar

StartChar: underscoredbl
Encoding: 321 8215 308
Width: 552
GlyphClass: 2
Flags: W
HStem: -325 63<-15 567> -199 64<-15 567>
LayerCount: 2
Fore
SplineSet
-15 -199 m 1,0,-1
 -15 -135 l 1,1,-1
 567 -135 l 1,2,-1
 567 -199 l 1,3,-1
 -15 -199 l 1,0,-1
-15 -325 m 1,4,-1
 -15 -262 l 1,5,-1
 567 -262 l 1,6,-1
 567 -325 l 1,7,-1
 -15 -325 l 1,4,-1
EndSplineSet
EndChar

StartChar: nsuperior
Encoding: 323 8319 310
Width: 364
GlyphClass: 2
Flags: W
HStem: 526 59<131.427 242.624>
VStem: 40 69<253 502.79 544 578> 257 69<253 508.462>
LayerCount: 2
Fore
SplineSet
40 253 m 1,0,-1
 40 578 l 1,1,-1
 104 578 l 1,2,-1
 104 544 l 1,3,4
 124 564 124 564 149 574.5 c 128,-1,5
 174 585 174 585 205 585 c 0,6,7
 246 585 246 585 273.5 569.5 c 128,-1,8
 301 554 301 554 313.5 529.5 c 128,-1,9
 326 505 326 505 326 452 c 2,10,-1
 326 253 l 1,11,-1
 257 253 l 1,12,-1
 257 449 l 2,13,14
 257 492 257 492 241 509 c 128,-1,15
 225 526 225 526 192 526 c 0,16,17
 152 526 152 526 130.5 503.5 c 128,-1,18
 109 481 109 481 109 430 c 2,19,-1
 109 253 l 1,20,-1
 40 253 l 1,0,-1
EndSplineSet
EndChar

StartChar: peseta
Encoding: 324 8359 311
Width: 1093
GlyphClass: 2
Flags: W
HStem: -13 75<790.638 944.531> -8 82<621.862 679.67> 0 21G<25 120> 292 83<120 321.799> 449 71<474.875 522 611 687> 456 77<783.272 931.213> 632 84<120 325.093>
VStem: 25 95<0 292 375 632> 522 89<84.8302 449 520 670> 664.5 83.5<104.531 165> 671 87<354.76 433.775> 960 92<373 428.508> 984 88<98.2627 183.85>
LayerCount: 2
Fore
SplineSet
25 716 m 1,0,-1
 250 716 l 2,1,2
 364 716 364 716 425 653 c 0,3,4
 471 605 471 605 477 520 c 1,5,-1
 522 520 l 1,6,-1
 522 671 l 1,7,-1
 611 670 l 1,8,-1
 611 520 l 1,9,-1
 767 520 l 1,10,11
 809 534 809 534 854 533 c 0,12,13
 946 533 946 533 1003 483 c 0,14,15
 1049 443 1049 443 1052 373 c 1,16,-1
 960 373 l 1,17,18
 957 414 957 414 932 435 c 128,-1,19
 907 456 907 456 857 456 c 256,20,21
 807 456 807 456 782.5 436.5 c 128,-1,22
 758 417 758 417 758 395 c 0,23,24
 758 368 758 368 786 350 c 0,25,26
 813 332 813 332 890.5 313.5 c 128,-1,27
 968 295 968 295 1002 275.5 c 128,-1,28
 1036 256 1036 256 1054 222.5 c 128,-1,29
 1072 189 1072 189 1072 153 c 0,30,31
 1072 88 1072 88 1014.5 37.5 c 128,-1,32
 957 -13 957 -13 861 -13 c 0,33,34
 800 -13 800 -13 761.5 5 c 128,-1,35
 723 23 723 23 689 64 c 1,36,-1
 689 0 l 1,37,38
 675 -4 675 -4 663.5 -6 c 128,-1,39
 652 -8 652 -8 644 -8 c 0,40,41
 572 -8 572 -8 540 30 c 0,42,43
 522 51 522 51 522 102 c 2,44,-1
 522 449 l 1,45,-1
 472 449 l 1,46,47
 457 392 457 392 422 355.5 c 128,-1,48
 387 319 387 319 331 303 c 0,49,50
 292 292 292 292 197 292 c 2,51,-1
 120 292 l 1,52,-1
 120 0 l 1,53,-1
 25 0 l 1,54,-1
 25 716 l 1,0,-1
120 632 m 1,55,-1
 120 375 l 1,56,-1
 184 375 l 2,57,58
 262 375 262 375 299.5 387 c 128,-1,59
 337 399 337 399 358.5 428.5 c 128,-1,60
 380 458 380 458 380 503 c 0,61,62
 380 544 380 544 362.5 573.5 c 128,-1,63
 345 603 345 603 314.5 617.5 c 128,-1,64
 284 632 284 632 220 632 c 2,65,-1
 120 632 l 1,55,-1
611 449 m 1,66,-1
 611 129 l 1,67,-1
 610 114 l 1,68,69
 610 95 610 95 621.5 84.5 c 128,-1,70
 633 74 633 74 654 74 c 0,71,72
 660 74 660 74 666.5 75 c 128,-1,73
 673 76 673 76 680 79 c 1,74,75
 669 102 669 102 664.5 120.5 c 128,-1,76
 660 139 660 139 659 165 c 1,77,-1
 748 165 l 1,78,79
 752 117 752 117 783.5 89.5 c 128,-1,80
 815 62 815 62 868 62 c 0,81,82
 919 62 919 62 956 92 c 0,83,84
 984 114 984 114 984 144 c 0,85,86
 984 166 984 166 967 182 c 0,87,88
 945 203 945 203 862.5 225 c 128,-1,89
 780 247 780 247 752 261 c 0,90,91
 710 283 710 283 690.5 312.5 c 128,-1,92
 671 342 671 342 671 380 c 128,-1,93
 671 418 671 418 687 448 c 1,94,-1
 611 449 l 1,66,-1
EndSplineSet
EndChar

StartChar: arrowleft
Encoding: 325 8592 312
Width: 1000
GlyphClass: 2
Flags: W
HStem: 228 49<182 961>
LayerCount: 2
Fore
SplineSet
240 428 m 1,0,-1
 277 428 l 1,1,2
 248 370 248 370 234 347 c 128,-1,3
 220 324 220 324 182 277 c 1,4,-1
 961 277 l 1,5,-1
 961 228 l 1,6,-1
 182 228 l 1,7,8
 233 175 233 175 279 77 c 1,9,-1
 241 77 l 1,10,11
 178 147 178 147 132.5 183.5 c 128,-1,12
 87 220 87 220 39 243 c 1,13,-1
 39 265 l 1,14,15
 81 283 81 283 128.5 320.5 c 128,-1,16
 176 358 176 358 240 428 c 1,0,-1
EndSplineSet
EndChar

StartChar: arrowup
Encoding: 326 8593 313
Width: 500
GlyphClass: 2
Flags: W
VStem: 226 49<-209 510>
LayerCount: 2
Fore
SplineSet
75 452 m 1,0,1
 146 517 146 517 182.5 564.5 c 128,-1,2
 219 612 219 612 237 654 c 1,3,-1
 260 654 l 1,4,5
 283 606 283 606 319 560.5 c 128,-1,6
 355 515 355 515 426 452 c 1,7,-1
 426 414 l 1,8,9
 328 460 328 460 275 510 c 1,10,-1
 275 -209 l 1,11,-1
 226 -209 l 1,12,-1
 226 510 l 1,13,14
 179 473 179 473 155.5 458.5 c 128,-1,15
 132 444 132 444 75 415 c 1,16,-1
 75 452 l 1,0,1
EndSplineSet
EndChar

StartChar: arrowright
Encoding: 327 8594 314
Width: 1000
GlyphClass: 2
Flags: W
HStem: 228 49<39 817>
LayerCount: 2
Fore
SplineSet
759 428 m 1,0,1
 824 357 824 357 871.5 320 c 128,-1,2
 919 283 919 283 961 265 c 1,3,-1
 961 243 l 1,4,5
 913 220 913 220 867.5 183.5 c 128,-1,6
 822 147 822 147 759 77 c 1,7,-1
 721 77 l 1,8,9
 767 175 767 175 817 228 c 1,10,-1
 39 228 l 1,11,-1
 39 277 l 1,12,-1
 817 277 l 1,13,14
 780 324 780 324 765.5 347 c 128,-1,15
 751 370 751 370 722 428 c 1,16,-1
 759 428 l 1,0,1
EndSplineSet
EndChar

StartChar: arrowdown
Encoding: 328 8595 315
Width: 500
GlyphClass: 2
Flags: W
VStem: 226 49<-66 654>
LayerCount: 2
Fore
SplineSet
75 -8 m 1,0,-1
 75 29 l 1,1,2
 133 0 133 0 156 -14.5 c 128,-1,3
 179 -29 179 -29 226 -66 c 1,4,-1
 226 654 l 1,5,-1
 275 654 l 1,6,-1
 275 -66 l 1,7,8
 328 -16 328 -16 426 30 c 1,9,-1
 426 -7 l 1,10,11
 356 -70 356 -70 319.5 -115.5 c 128,-1,12
 283 -161 283 -161 260 -209 c 1,13,-1
 237 -209 l 1,14,15
 219 -167 219 -167 182.5 -120 c 128,-1,16
 146 -73 146 -73 75 -8 c 1,0,-1
EndSplineSet
EndChar

StartChar: arrowboth
Encoding: 329 8596 316
Width: 1000
GlyphClass: 2
Flags: W
HStem: 229 48<181 818>
LayerCount: 2
Fore
SplineSet
961 264 m 1,0,-1
 961 242 l 1,1,2
 915 221 915 221 870.5 185 c 128,-1,3
 826 149 826 149 763 77 c 1,4,-1
 724 77 l 1,5,6
 758 161 758 161 818 229 c 1,7,-1
 181 229 l 1,8,9
 242 161 242 161 276 77 c 1,10,-1
 237 77 l 1,11,12
 174 149 174 149 129 185 c 128,-1,13
 84 221 84 221 39 242 c 1,14,-1
 39 264 l 1,15,16
 85 285 85 285 129 320.5 c 128,-1,17
 173 356 173 356 237 429 c 1,18,-1
 276 429 l 1,19,20
 242 345 242 345 181 277 c 1,21,-1
 818 277 l 1,22,23
 757 345 757 345 724 429 c 1,24,-1
 763 429 l 1,25,26
 826 356 826 356 870.5 320.5 c 128,-1,27
 915 285 915 285 961 264 c 1,0,-1
EndSplineSet
EndChar

StartChar: arrowupdn
Encoding: 330 8597 317
Width: 500
GlyphClass: 2
Flags: W
VStem: 226 47<-66 572>
LayerCount: 2
Fore
SplineSet
239 714 m 1,0,-1
 261 714 l 1,1,2
 282 668 282 668 317.5 623.5 c 128,-1,3
 353 579 353 579 425 516 c 1,4,-1
 425 477 l 1,5,6
 342 511 342 511 273 572 c 1,7,-1
 273 -66 l 1,8,9
 341 -4 341 -4 425 29 c 1,10,-1
 425 -10 l 1,11,12
 353 -73 353 -73 317.5 -118 c 128,-1,13
 282 -163 282 -163 261 -208 c 1,14,-1
 239 -208 l 1,15,16
 218 -162 218 -162 182 -117.5 c 128,-1,17
 146 -73 146 -73 74 -10 c 1,18,-1
 74 29 l 1,19,20
 157 -4 157 -4 226 -66 c 1,21,-1
 226 572 l 1,22,23
 158 510 158 510 74 477 c 1,24,-1
 74 516 l 1,25,26
 146 579 146 579 182 623.5 c 128,-1,27
 218 668 218 668 239 714 c 1,0,-1
EndSplineSet
EndChar

StartChar: arrowupdnbse
Encoding: 331 8616 318
Width: 500
GlyphClass: 2
Flags: W
HStem: -303 48<75 425>
VStem: 226 47<-66 572>
LayerCount: 2
Fore
SplineSet
239 714 m 1,0,-1
 261 714 l 1,1,2
 282 668 282 668 317.5 623.5 c 128,-1,3
 353 579 353 579 425 516 c 1,4,-1
 425 477 l 1,5,6
 342 511 342 511 273 572 c 1,7,-1
 273 -66 l 1,8,9
 341 -4 341 -4 425 29 c 1,10,-1
 425 -10 l 1,11,12
 353 -73 353 -73 317.5 -118 c 128,-1,13
 282 -163 282 -163 261 -208 c 1,14,-1
 239 -208 l 1,15,16
 218 -162 218 -162 182 -117.5 c 128,-1,17
 146 -73 146 -73 74 -10 c 1,18,-1
 74 29 l 1,19,20
 157 -4 157 -4 226 -66 c 1,21,-1
 226 572 l 1,22,23
 158 510 158 510 74 477 c 1,24,-1
 74 516 l 1,25,26
 146 579 146 579 182 623.5 c 128,-1,27
 218 668 218 668 239 714 c 1,0,-1
75 -255 m 1,28,-1
 425 -255 l 1,29,-1
 425 -303 l 1,30,-1
 75 -303 l 1,31,-1
 75 -255 l 1,28,-1
EndSplineSet
EndChar

StartChar: orthogonal
Encoding: 332 8735 319
Width: 979
GlyphClass: 2
Flags: W
HStem: 0 49<226 802>
VStem: 177 49<49 625>
LayerCount: 2
Fore
SplineSet
177 625 m 1,0,-1
 226 625 l 1,1,-1
 226 49 l 1,2,-1
 802 49 l 1,3,-1
 802 0 l 1,4,-1
 177 0 l 1,5,-1
 177 625 l 1,0,-1
EndSplineSet
EndChar

